<?xml version="1.0" encoding="utf-8" standalone="no"?>
<!DOCTYPE svg PUBLIC "-//W3C//DTD SVG 1.1//EN"
  "http://www.w3.org/Graphics/SVG/1.1/DTD/svg11.dtd">
<!-- Created with matplotlib (https://matplotlib.org/) -->
<svg height="889.596247pt" version="1.1" viewBox="0 0 1133.858268 889.596247" width="1133.858268pt" xmlns="http://www.w3.org/2000/svg" xmlns:xlink="http://www.w3.org/1999/xlink">
 <metadata>
  <rdf:RDF xmlns:cc="http://creativecommons.org/ns#" xmlns:dc="http://purl.org/dc/elements/1.1/" xmlns:rdf="http://www.w3.org/1999/02/22-rdf-syntax-ns#">
   <cc:Work>
    <dc:type rdf:resource="http://purl.org/dc/dcmitype/StillImage"/>
    <dc:date>2024-09-15T22:13:20.956318</dc:date>
    <dc:format>image/svg+xml</dc:format>
    <dc:creator>
     <cc:Agent>
      <dc:title>Matplotlib v3.3.2, https://matplotlib.org/</dc:title>
     </cc:Agent>
    </dc:creator>
   </cc:Work>
  </rdf:RDF>
 </metadata>
 <defs>
  <style type="text/css">*{stroke-linecap:butt;stroke-linejoin:round;}</style>
 </defs>
 <g id="figure_1">
  <g id="patch_1">
   <path d="M 0 889.596247 
L 1133.858268 889.596247 
L 1133.858268 0 
L 0 0 
z
" style="fill:#ffffff;"/>
  </g>
  <g id="axes_1"/>
  <g id="axes_2"/>
  <g id="axes_3"/>
  <g id="axes_4">
   <g id="line2d_1">
    <path clip-path="url(#p010d2295bf)" d="M 312.737009 60.703635 
L 312.737009 55.034344 
" style="fill:none;stroke:#000000;stroke-linecap:square;stroke-width:0.5;"/>
   </g>
   <g id="line2d_2">
    <path clip-path="url(#p010d2295bf)" d="M 312.737009 57.86899 
L 736.511983 57.86899 
" style="fill:none;stroke:#000000;stroke-linecap:square;stroke-width:0.5;"/>
   </g>
   <g id="line2d_3">
    <path clip-path="url(#p010d2295bf)" d="M 736.511983 60.703635 
L 736.511983 55.034344 
" style="fill:none;stroke:#000000;stroke-linecap:square;stroke-width:0.5;"/>
   </g>
   <g id="text_1">
    <!-- 5 kb -->
    <g transform="translate(756.172046 61.18024)scale(0.12 -0.12)">
     <defs>
      <path d="M 10.796875 72.90625 
L 49.515625 72.90625 
L 49.515625 64.59375 
L 19.828125 64.59375 
L 19.828125 46.734375 
Q 21.96875 47.46875 24.109375 47.828125 
Q 26.265625 48.1875 28.421875 48.1875 
Q 40.625 48.1875 47.75 41.5 
Q 54.890625 34.8125 54.890625 23.390625 
Q 54.890625 11.625 47.5625 5.09375 
Q 40.234375 -1.421875 26.90625 -1.421875 
Q 22.3125 -1.421875 17.546875 -0.640625 
Q 12.796875 0.140625 7.71875 1.703125 
L 7.71875 11.625 
Q 12.109375 9.234375 16.796875 8.0625 
Q 21.484375 6.890625 26.703125 6.890625 
Q 35.15625 6.890625 40.078125 11.328125 
Q 45.015625 15.765625 45.015625 23.390625 
Q 45.015625 31 40.078125 35.4375 
Q 35.15625 39.890625 26.703125 39.890625 
Q 22.75 39.890625 18.8125 39.015625 
Q 14.890625 38.140625 10.796875 36.28125 
z
" id="DejaVuSans-53"/>
      <path id="DejaVuSans-32"/>
      <path d="M 9.078125 75.984375 
L 18.109375 75.984375 
L 18.109375 31.109375 
L 44.921875 54.6875 
L 56.390625 54.6875 
L 27.390625 29.109375 
L 57.625 0 
L 45.90625 0 
L 18.109375 26.703125 
L 18.109375 0 
L 9.078125 0 
z
" id="DejaVuSans-107"/>
      <path d="M 48.6875 27.296875 
Q 48.6875 37.203125 44.609375 42.84375 
Q 40.53125 48.484375 33.40625 48.484375 
Q 26.265625 48.484375 22.1875 42.84375 
Q 18.109375 37.203125 18.109375 27.296875 
Q 18.109375 17.390625 22.1875 11.75 
Q 26.265625 6.109375 33.40625 6.109375 
Q 40.53125 6.109375 44.609375 11.75 
Q 48.6875 17.390625 48.6875 27.296875 
z
M 18.109375 46.390625 
Q 20.953125 51.265625 25.265625 53.625 
Q 29.59375 56 35.59375 56 
Q 45.5625 56 51.78125 48.09375 
Q 58.015625 40.1875 58.015625 27.296875 
Q 58.015625 14.40625 51.78125 6.484375 
Q 45.5625 -1.421875 35.59375 -1.421875 
Q 29.59375 -1.421875 25.265625 0.953125 
Q 20.953125 3.328125 18.109375 8.203125 
L 18.109375 0 
L 9.078125 0 
L 9.078125 75.984375 
L 18.109375 75.984375 
z
" id="DejaVuSans-98"/>
     </defs>
     <use xlink:href="#DejaVuSans-53"/>
     <use x="63.623047" xlink:href="#DejaVuSans-32"/>
     <use x="95.410156" xlink:href="#DejaVuSans-107"/>
     <use x="153.320312" xlink:href="#DejaVuSans-98"/>
    </g>
   </g>
  </g>
  <g id="axes_5"/>
  <g id="axes_6"/>
  <g id="axes_7"/>
  <g id="axes_8"/>
  <g id="axes_9"/>
  <g id="axes_10">
   <g id="patch_2">
    <path clip-path="url(#p0fe01f031d)" d="M 600.649726 188.145277 
C 600.649726 177.094857 599.063655 166.485728 596.243437 158.671901 
C 593.42322 150.858073 589.594104 146.463628 585.605715 146.463628 
C 581.617325 146.463628 577.78821 150.858073 574.967992 158.671901 
C 572.147775 166.485728 570.561703 177.094857 570.561703 188.145277 
" style="fill:none;stroke:#ff0000;stroke-linejoin:miter;stroke-width:0.7;"/>
   </g>
   <g id="patch_3">
    <path clip-path="url(#p0fe01f031d)" d="M 602.005806 188.145277 
C 602.005806 176.596809 600.34825 165.509523 597.400924 157.343523 
C 594.453598 149.177523 590.451903 144.585019 586.283755 144.585019 
C 582.115607 144.585019 578.113911 149.177523 575.166585 157.343523 
C 572.21926 165.509523 570.561703 176.596809 570.561703 188.145277 
" style="fill:none;stroke:#ff0000;stroke-linejoin:miter;stroke-width:0.7;"/>
   </g>
   <g id="patch_4">
    <path clip-path="url(#p0fe01f031d)" d="M 634.805989 188.145277 
C 634.805989 164.550294 631.419391 141.897564 625.397631 125.213391 
C 619.375871 108.529219 611.199901 99.146151 602.683846 99.146151 
C 594.167792 99.146151 585.991821 108.529219 579.970061 125.213391 
C 573.948301 141.897564 570.561703 164.550294 570.561703 188.145277 
" style="fill:none;stroke:#ff0000;stroke-linejoin:miter;stroke-width:0.7;"/>
   </g>
   <g id="patch_5">
    <path clip-path="url(#p0fe01f031d)" d="M 644.891834 188.145277 
C 644.891834 160.846069 640.973567 134.637039 634.006438 115.333583 
C 627.039309 96.030128 617.579776 85.173992 607.726768 85.173992 
C 597.873761 85.173992 588.414227 96.030128 581.447099 115.333583 
C 574.47997 134.637039 570.561703 160.846069 570.561703 188.145277 
" style="fill:none;stroke:#ff0000;stroke-linejoin:miter;stroke-width:0.7;"/>
   </g>
   <g id="patch_6">
    <path clip-path="url(#p0fe01f031d)" d="M 634.805989 188.145277 
C 634.805989 181.950816 633.916896 176.003727 632.335985 171.623582 
C 630.755074 167.243436 628.608612 164.780071 626.372867 164.780071 
C 624.137122 164.780071 621.99066 167.243436 620.40975 171.623582 
C 618.828839 176.003727 617.939745 181.950816 617.939745 188.145277 
" style="fill:none;stroke:#ff0000;stroke-linejoin:miter;stroke-width:0.7;"/>
   </g>
   <g id="patch_7">
    <path clip-path="url(#p0fe01f031d)" d="M 634.805989 188.145277 
C 634.805989 182.479991 633.992848 177.040945 632.54699 173.034983 
C 631.101132 169.029021 629.138037 166.776094 627.093285 166.776094 
C 625.048533 166.776094 623.085437 169.029021 621.639579 173.034983 
C 620.193721 177.040945 619.38058 182.479991 619.38058 188.145277 
" style="fill:none;stroke:#ff0000;stroke-linejoin:miter;stroke-width:0.7;"/>
   </g>
   <g id="patch_8">
    <path clip-path="url(#p0fe01f031d)" d="M 731.680948 188.145277 
C 731.680948 175.22718 729.826808 162.824959 726.529934 153.690485 
C 723.23306 144.55601 718.756771 139.418843 714.094287 139.418843 
C 709.431803 139.418843 704.955513 144.55601 701.658639 153.690485 
C 698.361765 162.824959 696.507625 175.22718 696.507625 188.145277 
" style="fill:none;stroke:#ff0000;stroke-linejoin:miter;stroke-width:0.7;"/>
   </g>
  </g>
  <g id="axes_11"/>
  <g id="axes_12"/>
  <g id="axes_13">
   <g id="line2d_4">
    <path clip-path="url(#p1a57d2b234)" d="M 221.032105 195.349305 
L 765.837211 195.349305 
" style="fill:none;stroke:#000000;stroke-linecap:square;stroke-width:0.5;"/>
   </g>
   <g id="patch_9">
    <path clip-path="url(#p1a57d2b234)" d="M 221.032105 192.29473 
L 221.032105 198.40388 
L 568.781848 198.40388 
L 568.781848 201.458455 
L 617.85499 201.458455 
L 617.85499 189.240155 
L 568.781848 189.240155 
L 568.781848 192.29473 
z
" style="fill:#191970;"/>
   </g>
   <g id="patch_10">
    <path clip-path="url(#p1a57d2b234)" d="M 427.919047 192.29473 
L 427.919047 198.40388 
L 568.781848 198.40388 
L 568.781848 201.458455 
L 649.468603 201.458455 
L 649.468603 189.240155 
L 568.781848 189.240155 
L 568.781848 192.29473 
z
" style="fill:#191970;"/>
   </g>
   <g id="patch_11">
    <path clip-path="url(#p1a57d2b234)" d="M 439.191461 192.29473 
L 439.191461 198.40388 
L 458.34609 198.40388 
L 458.34609 192.29473 
z
" style="fill:#191970;"/>
   </g>
   <g id="patch_12">
    <path clip-path="url(#p1a57d2b234)" d="M 465.380755 192.29473 
L 465.380755 198.40388 
L 482.331754 198.40388 
L 482.331754 192.29473 
z
" style="fill:#191970;"/>
   </g>
   <g id="patch_13">
    <path clip-path="url(#p1a57d2b234)" d="M 465.80453 192.29473 
L 465.80453 198.40388 
L 482.331754 198.40388 
L 482.331754 192.29473 
z
" style="fill:#191970;"/>
   </g>
   <g id="patch_14">
    <path clip-path="url(#p1a57d2b234)" d="M 531.998181 192.29473 
L 531.998181 198.40388 
L 568.781848 198.40388 
L 568.781848 201.458455 
L 570.476948 201.458455 
L 570.476948 189.240155 
L 568.781848 189.240155 
L 568.781848 192.29473 
z
" style="fill:#191970;"/>
   </g>
   <g id="patch_15">
    <path clip-path="url(#p1a57d2b234)" d="M 551.830849 192.29473 
L 551.830849 198.40388 
L 568.781848 198.40388 
L 568.781848 201.458455 
L 570.476948 201.458455 
L 570.476948 189.240155 
L 568.781848 189.240155 
L 568.781848 192.29473 
z
" style="fill:#191970;"/>
   </g>
   <g id="patch_16">
    <path clip-path="url(#p1a57d2b234)" d="M 554.119234 192.29473 
L 554.119234 198.40388 
L 568.781848 198.40388 
L 568.781848 201.458455 
L 617.85499 201.458455 
L 617.85499 189.240155 
L 568.781848 189.240155 
L 568.781848 192.29473 
z
" style="fill:#191970;"/>
   </g>
   <g id="patch_17">
    <path clip-path="url(#p1a57d2b234)" d="M 560.391104 192.29473 
L 560.391104 198.40388 
L 568.781848 198.40388 
L 568.781848 201.458455 
L 570.476948 201.458455 
L 570.476948 189.240155 
L 568.781848 189.240155 
L 568.781848 192.29473 
z
" style="fill:#191970;"/>
   </g>
   <g id="patch_18">
    <path clip-path="url(#p1a57d2b234)" d="M 560.391104 192.29473 
L 560.391104 198.40388 
L 568.781848 198.40388 
L 568.781848 201.458455 
L 649.468603 201.458455 
L 649.468603 189.240155 
L 568.781848 189.240155 
L 568.781848 192.29473 
z
" style="fill:#191970;"/>
   </g>
   <g id="patch_19">
    <path clip-path="url(#p1a57d2b234)" d="M 560.391104 192.29473 
L 560.391104 198.40388 
L 568.781848 198.40388 
L 568.781848 201.458455 
L 578.359163 201.458455 
L 578.359163 189.240155 
L 568.781848 189.240155 
L 568.781848 192.29473 
z
" style="fill:#191970;"/>
   </g>
   <g id="patch_20">
    <path clip-path="url(#p1a57d2b234)" d="M 600.649726 189.240155 
L 600.649726 201.458455 
L 617.85499 201.458455 
L 617.85499 189.240155 
z
" style="fill:#191970;"/>
   </g>
   <g id="patch_21">
    <path clip-path="url(#p1a57d2b234)" d="M 602.005806 189.240155 
L 602.005806 201.458455 
L 617.85499 201.458455 
L 617.85499 189.240155 
z
" style="fill:#191970;"/>
   </g>
   <g id="patch_22">
    <path clip-path="url(#p1a57d2b234)" d="M 634.805989 189.240155 
L 634.805989 201.458455 
L 649.468603 201.458455 
L 649.468603 189.240155 
z
" style="fill:#191970;"/>
   </g>
   <g id="patch_23">
    <path clip-path="url(#p1a57d2b234)" d="M 634.805989 189.240155 
L 634.805989 201.458455 
L 649.468603 201.458455 
L 649.468603 189.240155 
z
" style="fill:#191970;"/>
   </g>
   <g id="patch_24">
    <path clip-path="url(#p1a57d2b234)" d="M 634.805989 189.240155 
L 634.805989 201.458455 
L 649.468603 201.458455 
L 649.468603 189.240155 
z
" style="fill:#191970;"/>
   </g>
   <g id="patch_25">
    <path clip-path="url(#p1a57d2b234)" d="M 634.805989 189.240155 
L 634.805989 201.458455 
L 649.468603 201.458455 
L 649.468603 189.240155 
z
" style="fill:#191970;"/>
   </g>
   <g id="patch_26">
    <path clip-path="url(#p1a57d2b234)" d="M 672.182942 189.240155 
L 672.182942 201.458455 
L 696.42287 201.458455 
L 696.42287 189.240155 
z
" style="fill:#191970;"/>
   </g>
   <g id="patch_27">
    <path clip-path="url(#p1a57d2b234)" d="M 680.743196 189.240155 
L 680.743196 201.458455 
L 686.082761 201.458455 
L 686.082761 189.240155 
z
" style="fill:#191970;"/>
   </g>
   <g id="patch_28">
    <path clip-path="url(#p1a57d2b234)" d="M 680.743196 189.240155 
L 680.743196 201.458455 
L 696.42287 201.458455 
L 696.42287 189.240155 
z
" style="fill:#191970;"/>
   </g>
   <g id="patch_29">
    <path clip-path="url(#p1a57d2b234)" d="M 680.743196 189.240155 
L 680.743196 201.458455 
L 696.42287 201.458455 
L 696.42287 189.240155 
z
" style="fill:#191970;"/>
   </g>
   <g id="patch_30">
    <path clip-path="url(#p1a57d2b234)" d="M 680.743196 189.240155 
L 680.743196 201.458455 
L 696.42287 201.458455 
L 696.42287 189.240155 
z
" style="fill:#191970;"/>
   </g>
   <g id="patch_31">
    <path clip-path="url(#p1a57d2b234)" d="M 680.743196 189.240155 
L 680.743196 201.458455 
L 696.42287 201.458455 
L 696.42287 189.240155 
z
" style="fill:#191970;"/>
   </g>
   <g id="patch_32">
    <path clip-path="url(#p1a57d2b234)" d="M 680.743196 189.240155 
L 680.743196 201.458455 
L 696.42287 201.458455 
L 696.42287 189.240155 
z
" style="fill:#191970;"/>
   </g>
   <g id="patch_33">
    <path clip-path="url(#p1a57d2b234)" d="M 694.897281 189.240155 
L 694.897281 201.458455 
L 696.42287 201.458455 
L 696.42287 189.240155 
z
" style="fill:#191970;"/>
   </g>
   <g id="patch_34">
    <path clip-path="url(#p1a57d2b234)" d="M 728.545013 189.240155 
L 728.545013 201.458455 
L 748.123417 201.458455 
L 748.123417 198.40388 
L 758.633037 198.40388 
L 758.633037 192.29473 
L 748.123417 192.29473 
L 748.123417 189.240155 
z
" style="fill:#191970;"/>
   </g>
   <g id="patch_35">
    <path clip-path="url(#p1a57d2b234)" d="M 731.680948 189.240155 
L 731.680948 201.458455 
L 748.123417 201.458455 
L 748.123417 198.40388 
L 757.361712 198.40388 
L 757.361712 192.29473 
L 748.123417 192.29473 
L 748.123417 189.240155 
z
" style="fill:#191970;"/>
   </g>
   <g id="patch_36">
    <path clip-path="url(#p1a57d2b234)" d="M 731.680948 189.240155 
L 731.680948 201.458455 
L 748.123417 201.458455 
L 748.123417 198.40388 
L 756.175142 198.40388 
L 756.175142 192.29473 
L 748.123417 192.29473 
L 748.123417 189.240155 
z
" style="fill:#191970;"/>
   </g>
   <g id="patch_37">
    <path clip-path="url(#p1a57d2b234)" d="M 731.680948 189.240155 
L 731.680948 201.458455 
L 748.123417 201.458455 
L 748.123417 198.40388 
L 758.633037 198.40388 
L 758.633037 192.29473 
L 748.123417 192.29473 
L 748.123417 189.240155 
z
" style="fill:#191970;"/>
   </g>
   <g id="patch_38">
    <path clip-path="url(#p1a57d2b234)" d="M 731.680948 189.240155 
L 731.680948 201.458455 
L 748.123417 201.458455 
L 748.123417 198.40388 
L 759.650097 198.40388 
L 759.650097 192.29473 
L 748.123417 192.29473 
L 748.123417 189.240155 
z
" style="fill:#191970;"/>
   </g>
   <g id="patch_39">
    <path clip-path="url(#p1a57d2b234)" d="M 731.680948 189.240155 
L 731.680948 201.458455 
L 748.123417 201.458455 
L 748.123417 198.40388 
L 765.837211 198.40388 
L 765.837211 192.29473 
L 748.123417 192.29473 
L 748.123417 189.240155 
z
" style="fill:#191970;"/>
   </g>
   <g id="patch_40">
    <path clip-path="url(#p1a57d2b234)" d="M 731.680948 189.240155 
L 731.680948 201.458455 
L 748.123417 201.458455 
L 748.123417 198.40388 
L 758.633037 198.40388 
L 758.633037 192.29473 
L 748.123417 192.29473 
L 748.123417 189.240155 
z
" style="fill:#191970;"/>
   </g>
   <g id="line2d_5">
    <path clip-path="url(#p1a57d2b234)" d="M 462.795727 192.29473 
L 460.931117 195.349305 
L 462.795727 198.40388 
" style="fill:none;stroke:#000000;stroke-linecap:square;stroke-width:0.5;"/>
   </g>
   <g id="line2d_6">
    <path clip-path="url(#p1a57d2b234)" d="M 493.180393 192.29473 
L 491.315783 195.349305 
L 493.180393 198.40388 
" style="fill:none;stroke:#000000;stroke-linecap:square;stroke-width:0.5;"/>
   </g>
   <g id="line2d_7">
    <path clip-path="url(#p1a57d2b234)" d="M 523.014151 192.29473 
L 521.149541 195.349305 
L 523.014151 198.40388 
" style="fill:none;stroke:#000000;stroke-linecap:square;stroke-width:0.5;"/>
   </g>
   <g id="line2d_8">
    <path clip-path="url(#p1a57d2b234)" d="M 590.436749 192.29473 
L 588.57214 195.349305 
L 590.436749 198.40388 
" style="fill:none;stroke:#000000;stroke-linecap:square;stroke-width:0.5;"/>
   </g>
   <g id="line2d_9">
    <path clip-path="url(#p1a57d2b234)" d="M 627.262795 192.29473 
L 625.398185 195.349305 
L 627.262795 198.40388 
" style="fill:none;stroke:#000000;stroke-linecap:square;stroke-width:0.5;"/>
   </g>
   <g id="line2d_10">
    <path clip-path="url(#p1a57d2b234)" d="M 661.758078 192.29473 
L 659.893468 195.349305 
L 661.758078 198.40388 
" style="fill:none;stroke:#000000;stroke-linecap:square;stroke-width:0.5;"/>
   </g>
   <g id="line2d_11">
    <path clip-path="url(#p1a57d2b234)" d="M 698.499368 192.29473 
L 696.634758 195.349305 
L 698.499368 198.40388 
" style="fill:none;stroke:#000000;stroke-linecap:square;stroke-width:0.5;"/>
   </g>
   <g id="line2d_12">
    <path clip-path="url(#p1a57d2b234)" d="M 728.333126 192.29473 
L 726.468516 195.349305 
L 728.333126 198.40388 
" style="fill:none;stroke:#000000;stroke-linecap:square;stroke-width:0.5;"/>
   </g>
   <g id="text_2">
    <!-- SRSF1 -->
    <g transform="translate(769.566431 198.10868)scale(0.1 -0.1)">
     <defs>
      <path d="M 53.515625 70.515625 
L 53.515625 60.890625 
Q 47.90625 63.578125 42.921875 64.890625 
Q 37.9375 66.21875 33.296875 66.21875 
Q 25.25 66.21875 20.875 63.09375 
Q 16.5 59.96875 16.5 54.203125 
Q 16.5 49.359375 19.40625 46.890625 
Q 22.3125 44.4375 30.421875 42.921875 
L 36.375 41.703125 
Q 47.40625 39.59375 52.65625 34.296875 
Q 57.90625 29 57.90625 20.125 
Q 57.90625 9.515625 50.796875 4.046875 
Q 43.703125 -1.421875 29.984375 -1.421875 
Q 24.8125 -1.421875 18.96875 -0.25 
Q 13.140625 0.921875 6.890625 3.21875 
L 6.890625 13.375 
Q 12.890625 10.015625 18.65625 8.296875 
Q 24.421875 6.59375 29.984375 6.59375 
Q 38.421875 6.59375 43.015625 9.90625 
Q 47.609375 13.234375 47.609375 19.390625 
Q 47.609375 24.75 44.3125 27.78125 
Q 41.015625 30.8125 33.5 32.328125 
L 27.484375 33.5 
Q 16.453125 35.6875 11.515625 40.375 
Q 6.59375 45.0625 6.59375 53.421875 
Q 6.59375 63.09375 13.40625 68.65625 
Q 20.21875 74.21875 32.171875 74.21875 
Q 37.3125 74.21875 42.625 73.28125 
Q 47.953125 72.359375 53.515625 70.515625 
z
" id="DejaVuSans-83"/>
      <path d="M 44.390625 34.1875 
Q 47.5625 33.109375 50.5625 29.59375 
Q 53.5625 26.078125 56.59375 19.921875 
L 66.609375 0 
L 56 0 
L 46.6875 18.703125 
Q 43.0625 26.03125 39.671875 28.421875 
Q 36.28125 30.8125 30.421875 30.8125 
L 19.671875 30.8125 
L 19.671875 0 
L 9.8125 0 
L 9.8125 72.90625 
L 32.078125 72.90625 
Q 44.578125 72.90625 50.734375 67.671875 
Q 56.890625 62.453125 56.890625 51.90625 
Q 56.890625 45.015625 53.6875 40.46875 
Q 50.484375 35.9375 44.390625 34.1875 
z
M 19.671875 64.796875 
L 19.671875 38.921875 
L 32.078125 38.921875 
Q 39.203125 38.921875 42.84375 42.21875 
Q 46.484375 45.515625 46.484375 51.90625 
Q 46.484375 58.296875 42.84375 61.546875 
Q 39.203125 64.796875 32.078125 64.796875 
z
" id="DejaVuSans-82"/>
      <path d="M 9.8125 72.90625 
L 51.703125 72.90625 
L 51.703125 64.59375 
L 19.671875 64.59375 
L 19.671875 43.109375 
L 48.578125 43.109375 
L 48.578125 34.8125 
L 19.671875 34.8125 
L 19.671875 0 
L 9.8125 0 
z
" id="DejaVuSans-70"/>
      <path d="M 12.40625 8.296875 
L 28.515625 8.296875 
L 28.515625 63.921875 
L 10.984375 60.40625 
L 10.984375 69.390625 
L 28.421875 72.90625 
L 38.28125 72.90625 
L 38.28125 8.296875 
L 54.390625 8.296875 
L 54.390625 0 
L 12.40625 0 
z
" id="DejaVuSans-49"/>
     </defs>
     <use xlink:href="#DejaVuSans-83"/>
     <use x="63.476562" xlink:href="#DejaVuSans-82"/>
     <use x="132.958984" xlink:href="#DejaVuSans-83"/>
     <use x="196.435547" xlink:href="#DejaVuSans-70"/>
     <use x="253.955078" xlink:href="#DejaVuSans-49"/>
    </g>
   </g>
  </g>
  <g id="axes_14"/>
  <g id="axes_15">
   <g id="text_3">
    <!-- Leafcutter 2 -->
    <g transform="translate(996.534359 199.204441)scale(0.144 -0.144)">
     <defs>
      <path d="M 9.8125 72.90625 
L 19.671875 72.90625 
L 19.671875 8.296875 
L 55.171875 8.296875 
L 55.171875 0 
L 9.8125 0 
z
" id="DejaVuSans-76"/>
      <path d="M 56.203125 29.59375 
L 56.203125 25.203125 
L 14.890625 25.203125 
Q 15.484375 15.921875 20.484375 11.0625 
Q 25.484375 6.203125 34.421875 6.203125 
Q 39.59375 6.203125 44.453125 7.46875 
Q 49.3125 8.734375 54.109375 11.28125 
L 54.109375 2.78125 
Q 49.265625 0.734375 44.1875 -0.34375 
Q 39.109375 -1.421875 33.890625 -1.421875 
Q 20.796875 -1.421875 13.15625 6.1875 
Q 5.515625 13.8125 5.515625 26.8125 
Q 5.515625 40.234375 12.765625 48.109375 
Q 20.015625 56 32.328125 56 
Q 43.359375 56 49.78125 48.890625 
Q 56.203125 41.796875 56.203125 29.59375 
z
M 47.21875 32.234375 
Q 47.125 39.59375 43.09375 43.984375 
Q 39.0625 48.390625 32.421875 48.390625 
Q 24.90625 48.390625 20.390625 44.140625 
Q 15.875 39.890625 15.1875 32.171875 
z
" id="DejaVuSans-101"/>
      <path d="M 34.28125 27.484375 
Q 23.390625 27.484375 19.1875 25 
Q 14.984375 22.515625 14.984375 16.5 
Q 14.984375 11.71875 18.140625 8.90625 
Q 21.296875 6.109375 26.703125 6.109375 
Q 34.1875 6.109375 38.703125 11.40625 
Q 43.21875 16.703125 43.21875 25.484375 
L 43.21875 27.484375 
z
M 52.203125 31.203125 
L 52.203125 0 
L 43.21875 0 
L 43.21875 8.296875 
Q 40.140625 3.328125 35.546875 0.953125 
Q 30.953125 -1.421875 24.3125 -1.421875 
Q 15.921875 -1.421875 10.953125 3.296875 
Q 6 8.015625 6 15.921875 
Q 6 25.140625 12.171875 29.828125 
Q 18.359375 34.515625 30.609375 34.515625 
L 43.21875 34.515625 
L 43.21875 35.40625 
Q 43.21875 41.609375 39.140625 45 
Q 35.0625 48.390625 27.6875 48.390625 
Q 23 48.390625 18.546875 47.265625 
Q 14.109375 46.140625 10.015625 43.890625 
L 10.015625 52.203125 
Q 14.9375 54.109375 19.578125 55.046875 
Q 24.21875 56 28.609375 56 
Q 40.484375 56 46.34375 49.84375 
Q 52.203125 43.703125 52.203125 31.203125 
z
" id="DejaVuSans-97"/>
      <path d="M 37.109375 75.984375 
L 37.109375 68.5 
L 28.515625 68.5 
Q 23.6875 68.5 21.796875 66.546875 
Q 19.921875 64.59375 19.921875 59.515625 
L 19.921875 54.6875 
L 34.71875 54.6875 
L 34.71875 47.703125 
L 19.921875 47.703125 
L 19.921875 0 
L 10.890625 0 
L 10.890625 47.703125 
L 2.296875 47.703125 
L 2.296875 54.6875 
L 10.890625 54.6875 
L 10.890625 58.5 
Q 10.890625 67.625 15.140625 71.796875 
Q 19.390625 75.984375 28.609375 75.984375 
z
" id="DejaVuSans-102"/>
      <path d="M 48.78125 52.59375 
L 48.78125 44.1875 
Q 44.96875 46.296875 41.140625 47.34375 
Q 37.3125 48.390625 33.40625 48.390625 
Q 24.65625 48.390625 19.8125 42.84375 
Q 14.984375 37.3125 14.984375 27.296875 
Q 14.984375 17.28125 19.8125 11.734375 
Q 24.65625 6.203125 33.40625 6.203125 
Q 37.3125 6.203125 41.140625 7.25 
Q 44.96875 8.296875 48.78125 10.40625 
L 48.78125 2.09375 
Q 45.015625 0.34375 40.984375 -0.53125 
Q 36.96875 -1.421875 32.421875 -1.421875 
Q 20.0625 -1.421875 12.78125 6.34375 
Q 5.515625 14.109375 5.515625 27.296875 
Q 5.515625 40.671875 12.859375 48.328125 
Q 20.21875 56 33.015625 56 
Q 37.15625 56 41.109375 55.140625 
Q 45.0625 54.296875 48.78125 52.59375 
z
" id="DejaVuSans-99"/>
      <path d="M 8.5 21.578125 
L 8.5 54.6875 
L 17.484375 54.6875 
L 17.484375 21.921875 
Q 17.484375 14.15625 20.5 10.265625 
Q 23.53125 6.390625 29.59375 6.390625 
Q 36.859375 6.390625 41.078125 11.03125 
Q 45.3125 15.671875 45.3125 23.6875 
L 45.3125 54.6875 
L 54.296875 54.6875 
L 54.296875 0 
L 45.3125 0 
L 45.3125 8.40625 
Q 42.046875 3.421875 37.71875 1 
Q 33.40625 -1.421875 27.6875 -1.421875 
Q 18.265625 -1.421875 13.375 4.4375 
Q 8.5 10.296875 8.5 21.578125 
z
M 31.109375 56 
z
" id="DejaVuSans-117"/>
      <path d="M 18.3125 70.21875 
L 18.3125 54.6875 
L 36.8125 54.6875 
L 36.8125 47.703125 
L 18.3125 47.703125 
L 18.3125 18.015625 
Q 18.3125 11.328125 20.140625 9.421875 
Q 21.96875 7.515625 27.59375 7.515625 
L 36.8125 7.515625 
L 36.8125 0 
L 27.59375 0 
Q 17.1875 0 13.234375 3.875 
Q 9.28125 7.765625 9.28125 18.015625 
L 9.28125 47.703125 
L 2.6875 47.703125 
L 2.6875 54.6875 
L 9.28125 54.6875 
L 9.28125 70.21875 
z
" id="DejaVuSans-116"/>
      <path d="M 41.109375 46.296875 
Q 39.59375 47.171875 37.8125 47.578125 
Q 36.03125 48 33.890625 48 
Q 26.265625 48 22.1875 43.046875 
Q 18.109375 38.09375 18.109375 28.8125 
L 18.109375 0 
L 9.078125 0 
L 9.078125 54.6875 
L 18.109375 54.6875 
L 18.109375 46.1875 
Q 20.953125 51.171875 25.484375 53.578125 
Q 30.03125 56 36.53125 56 
Q 37.453125 56 38.578125 55.875 
Q 39.703125 55.765625 41.0625 55.515625 
z
" id="DejaVuSans-114"/>
      <path d="M 19.1875 8.296875 
L 53.609375 8.296875 
L 53.609375 0 
L 7.328125 0 
L 7.328125 8.296875 
Q 12.9375 14.109375 22.625 23.890625 
Q 32.328125 33.6875 34.8125 36.53125 
Q 39.546875 41.84375 41.421875 45.53125 
Q 43.3125 49.21875 43.3125 52.78125 
Q 43.3125 58.59375 39.234375 62.25 
Q 35.15625 65.921875 28.609375 65.921875 
Q 23.96875 65.921875 18.8125 64.3125 
Q 13.671875 62.703125 7.8125 59.421875 
L 7.8125 69.390625 
Q 13.765625 71.78125 18.9375 73 
Q 24.125 74.21875 28.421875 74.21875 
Q 39.75 74.21875 46.484375 68.546875 
Q 53.21875 62.890625 53.21875 53.421875 
Q 53.21875 48.921875 51.53125 44.890625 
Q 49.859375 40.875 45.40625 35.40625 
Q 44.1875 33.984375 37.640625 27.21875 
Q 31.109375 20.453125 19.1875 8.296875 
z
" id="DejaVuSans-50"/>
     </defs>
     <use xlink:href="#DejaVuSans-76"/>
     <use x="53.962891" xlink:href="#DejaVuSans-101"/>
     <use x="115.486328" xlink:href="#DejaVuSans-97"/>
     <use x="176.765625" xlink:href="#DejaVuSans-102"/>
     <use x="211.970703" xlink:href="#DejaVuSans-99"/>
     <use x="266.951172" xlink:href="#DejaVuSans-117"/>
     <use x="330.330078" xlink:href="#DejaVuSans-116"/>
     <use x="369.539062" xlink:href="#DejaVuSans-116"/>
     <use x="408.748047" xlink:href="#DejaVuSans-101"/>
     <use x="470.271484" xlink:href="#DejaVuSans-114"/>
     <use x="511.384766" xlink:href="#DejaVuSans-32"/>
     <use x="543.171875" xlink:href="#DejaVuSans-50"/>
    </g>
   </g>
  </g>
  <g id="axes_16">
   <g id="patch_41">
    <path clip-path="url(#pe3f2194eed)" d="M 728.545013 202.707958 
C 728.545013 229.9699 726.856182 256.143151 723.853247 275.420255 
C 720.850311 294.697359 716.773112 305.538674 712.526319 305.538674 
C 708.279527 305.538674 704.202328 294.697359 701.199392 275.420255 
C 698.196457 256.143151 696.507625 229.9699 696.507625 202.707958 
" style="fill:none;stroke:#808080;stroke-linejoin:miter;stroke-width:0.7;"/>
   </g>
  </g>
  <g id="axes_17"/>
  <g id="axes_18"/>
  <g id="axes_19">
   <g id="patch_42">
    <path clip-path="url(#p2557fe3a7c)" d="M 560.391104 429.137351 
C 560.391104 406.741557 555.016332 385.240126 545.45937 369.403907 
C 535.902408 353.567689 522.92656 344.661505 509.410974 344.661505 
C 495.895389 344.661505 482.919541 353.567689 473.362579 369.403907 
C 463.805617 385.240126 458.430845 406.741557 458.430845 429.137351 
" style="fill:none;stroke:#800080;stroke-linejoin:miter;stroke-width:0.7;"/>
   </g>
   <g id="patch_43">
    <path clip-path="url(#p2557fe3a7c)" d="M 602.005806 429.137351 
C 602.005806 422.230585 600.34825 415.599637 597.400924 410.715816 
C 594.453598 405.831994 590.451903 403.085366 586.283755 403.085366 
C 582.115607 403.085366 578.113911 405.831994 575.166585 410.715816 
C 572.21926 415.599637 570.561703 422.230585 570.561703 429.137351 
" style="fill:none;stroke:#800080;stroke-linejoin:miter;stroke-width:0.7;"/>
   </g>
   <g id="patch_44">
    <path clip-path="url(#p2557fe3a7c)" d="M 694.897281 429.137351 
C 694.897281 401.826769 688.343007 375.60682 676.688757 356.295321 
C 665.034506 336.983823 649.211091 326.123164 632.729492 326.123164 
C 616.247893 326.123164 600.424477 336.983823 588.770227 356.295321 
C 577.115976 375.60682 570.561703 401.826769 570.561703 429.137351 
" style="fill:none;stroke:#800080;stroke-linejoin:miter;stroke-width:0.7;"/>
   </g>
   <g id="patch_45">
    <path clip-path="url(#p2557fe3a7c)" d="M 634.805989 429.137351 
C 634.805989 425.432644 633.916896 421.875882 632.335985 419.256258 
C 630.755074 416.636634 628.608612 415.163375 626.372867 415.163375 
C 624.137122 415.163375 621.99066 416.636634 620.40975 419.256258 
C 618.828839 421.875882 617.939745 425.432644 617.939745 429.137351 
" style="fill:none;stroke:#800080;stroke-linejoin:miter;stroke-width:0.7;"/>
   </g>
   <g id="patch_46">
    <path clip-path="url(#p2557fe3a7c)" d="M 680.743196 429.137351 
C 680.743196 422.286435 679.099043 415.709106 676.17555 410.864777 
C 673.252057 406.020447 669.282721 403.296028 665.148277 403.296028 
C 661.013834 403.296028 657.044497 406.020447 654.121004 410.864777 
C 651.197511 415.709106 649.553358 422.286435 649.553358 429.137351 
" style="fill:none;stroke:#800080;stroke-linejoin:miter;stroke-width:0.7;"/>
   </g>
   <g id="patch_47">
    <path clip-path="url(#p2557fe3a7c)" d="M 731.680948 429.137351 
C 731.680948 421.411454 729.826808 413.994086 726.529934 408.531051 
C 723.23306 403.068017 718.756771 399.995642 714.094287 399.995642 
C 709.431803 399.995642 704.955513 403.068017 701.658639 408.531051 
C 698.361765 413.994086 696.507625 421.411454 696.507625 429.137351 
" style="fill:none;stroke:#800080;stroke-linejoin:miter;stroke-width:0.7;"/>
   </g>
  </g>
  <g id="axes_20"/>
  <g id="axes_21"/>
  <g id="axes_22">
   <g id="line2d_13">
    <path clip-path="url(#p8ff641c088)" d="M 221.032105 436.294187 
L 765.837211 436.294187 
" style="fill:none;stroke:#000000;stroke-linecap:square;stroke-width:0.5;"/>
   </g>
   <g id="patch_48">
    <path clip-path="url(#p8ff641c088)" d="M 221.032105 433.239612 
L 221.032105 439.348762 
L 568.781848 439.348762 
L 568.781848 442.403337 
L 617.85499 442.403337 
L 617.85499 430.185036 
L 568.781848 430.185036 
L 568.781848 433.239612 
z
" style="fill:#191970;"/>
   </g>
   <g id="patch_49">
    <path clip-path="url(#p8ff641c088)" d="M 427.919047 433.239612 
L 427.919047 439.348762 
L 568.781848 439.348762 
L 568.781848 442.403337 
L 649.468603 442.403337 
L 649.468603 430.185036 
L 568.781848 430.185036 
L 568.781848 433.239612 
z
" style="fill:#191970;"/>
   </g>
   <g id="patch_50">
    <path clip-path="url(#p8ff641c088)" d="M 439.191461 433.239612 
L 439.191461 439.348762 
L 458.34609 439.348762 
L 458.34609 433.239612 
z
" style="fill:#191970;"/>
   </g>
   <g id="patch_51">
    <path clip-path="url(#p8ff641c088)" d="M 465.380755 433.239612 
L 465.380755 439.348762 
L 482.331754 439.348762 
L 482.331754 433.239612 
z
" style="fill:#191970;"/>
   </g>
   <g id="patch_52">
    <path clip-path="url(#p8ff641c088)" d="M 465.80453 433.239612 
L 465.80453 439.348762 
L 482.331754 439.348762 
L 482.331754 433.239612 
z
" style="fill:#191970;"/>
   </g>
   <g id="patch_53">
    <path clip-path="url(#p8ff641c088)" d="M 531.998181 433.239612 
L 531.998181 439.348762 
L 568.781848 439.348762 
L 568.781848 442.403337 
L 570.476948 442.403337 
L 570.476948 430.185036 
L 568.781848 430.185036 
L 568.781848 433.239612 
z
" style="fill:#191970;"/>
   </g>
   <g id="patch_54">
    <path clip-path="url(#p8ff641c088)" d="M 551.830849 433.239612 
L 551.830849 439.348762 
L 568.781848 439.348762 
L 568.781848 442.403337 
L 570.476948 442.403337 
L 570.476948 430.185036 
L 568.781848 430.185036 
L 568.781848 433.239612 
z
" style="fill:#191970;"/>
   </g>
   <g id="patch_55">
    <path clip-path="url(#p8ff641c088)" d="M 554.119234 433.239612 
L 554.119234 439.348762 
L 568.781848 439.348762 
L 568.781848 442.403337 
L 617.85499 442.403337 
L 617.85499 430.185036 
L 568.781848 430.185036 
L 568.781848 433.239612 
z
" style="fill:#191970;"/>
   </g>
   <g id="patch_56">
    <path clip-path="url(#p8ff641c088)" d="M 560.391104 433.239612 
L 560.391104 439.348762 
L 568.781848 439.348762 
L 568.781848 442.403337 
L 570.476948 442.403337 
L 570.476948 430.185036 
L 568.781848 430.185036 
L 568.781848 433.239612 
z
" style="fill:#191970;"/>
   </g>
   <g id="patch_57">
    <path clip-path="url(#p8ff641c088)" d="M 560.391104 433.239612 
L 560.391104 439.348762 
L 568.781848 439.348762 
L 568.781848 442.403337 
L 649.468603 442.403337 
L 649.468603 430.185036 
L 568.781848 430.185036 
L 568.781848 433.239612 
z
" style="fill:#191970;"/>
   </g>
   <g id="patch_58">
    <path clip-path="url(#p8ff641c088)" d="M 560.391104 433.239612 
L 560.391104 439.348762 
L 568.781848 439.348762 
L 568.781848 442.403337 
L 578.359163 442.403337 
L 578.359163 430.185036 
L 568.781848 430.185036 
L 568.781848 433.239612 
z
" style="fill:#191970;"/>
   </g>
   <g id="patch_59">
    <path clip-path="url(#p8ff641c088)" d="M 600.649726 430.185036 
L 600.649726 442.403337 
L 617.85499 442.403337 
L 617.85499 430.185036 
z
" style="fill:#191970;"/>
   </g>
   <g id="patch_60">
    <path clip-path="url(#p8ff641c088)" d="M 602.005806 430.185036 
L 602.005806 442.403337 
L 617.85499 442.403337 
L 617.85499 430.185036 
z
" style="fill:#191970;"/>
   </g>
   <g id="patch_61">
    <path clip-path="url(#p8ff641c088)" d="M 634.805989 430.185036 
L 634.805989 442.403337 
L 649.468603 442.403337 
L 649.468603 430.185036 
z
" style="fill:#191970;"/>
   </g>
   <g id="patch_62">
    <path clip-path="url(#p8ff641c088)" d="M 634.805989 430.185036 
L 634.805989 442.403337 
L 649.468603 442.403337 
L 649.468603 430.185036 
z
" style="fill:#191970;"/>
   </g>
   <g id="patch_63">
    <path clip-path="url(#p8ff641c088)" d="M 634.805989 430.185036 
L 634.805989 442.403337 
L 649.468603 442.403337 
L 649.468603 430.185036 
z
" style="fill:#191970;"/>
   </g>
   <g id="patch_64">
    <path clip-path="url(#p8ff641c088)" d="M 634.805989 430.185036 
L 634.805989 442.403337 
L 649.468603 442.403337 
L 649.468603 430.185036 
z
" style="fill:#191970;"/>
   </g>
   <g id="patch_65">
    <path clip-path="url(#p8ff641c088)" d="M 672.182942 430.185036 
L 672.182942 442.403337 
L 696.42287 442.403337 
L 696.42287 430.185036 
z
" style="fill:#191970;"/>
   </g>
   <g id="patch_66">
    <path clip-path="url(#p8ff641c088)" d="M 680.743196 430.185036 
L 680.743196 442.403337 
L 686.082761 442.403337 
L 686.082761 430.185036 
z
" style="fill:#191970;"/>
   </g>
   <g id="patch_67">
    <path clip-path="url(#p8ff641c088)" d="M 680.743196 430.185036 
L 680.743196 442.403337 
L 696.42287 442.403337 
L 696.42287 430.185036 
z
" style="fill:#191970;"/>
   </g>
   <g id="patch_68">
    <path clip-path="url(#p8ff641c088)" d="M 680.743196 430.185036 
L 680.743196 442.403337 
L 696.42287 442.403337 
L 696.42287 430.185036 
z
" style="fill:#191970;"/>
   </g>
   <g id="patch_69">
    <path clip-path="url(#p8ff641c088)" d="M 680.743196 430.185036 
L 680.743196 442.403337 
L 696.42287 442.403337 
L 696.42287 430.185036 
z
" style="fill:#191970;"/>
   </g>
   <g id="patch_70">
    <path clip-path="url(#p8ff641c088)" d="M 680.743196 430.185036 
L 680.743196 442.403337 
L 696.42287 442.403337 
L 696.42287 430.185036 
z
" style="fill:#191970;"/>
   </g>
   <g id="patch_71">
    <path clip-path="url(#p8ff641c088)" d="M 680.743196 430.185036 
L 680.743196 442.403337 
L 696.42287 442.403337 
L 696.42287 430.185036 
z
" style="fill:#191970;"/>
   </g>
   <g id="patch_72">
    <path clip-path="url(#p8ff641c088)" d="M 694.897281 430.185036 
L 694.897281 442.403337 
L 696.42287 442.403337 
L 696.42287 430.185036 
z
" style="fill:#191970;"/>
   </g>
   <g id="patch_73">
    <path clip-path="url(#p8ff641c088)" d="M 728.545013 430.185036 
L 728.545013 442.403337 
L 748.123417 442.403337 
L 748.123417 439.348762 
L 758.633037 439.348762 
L 758.633037 433.239612 
L 748.123417 433.239612 
L 748.123417 430.185036 
z
" style="fill:#191970;"/>
   </g>
   <g id="patch_74">
    <path clip-path="url(#p8ff641c088)" d="M 731.680948 430.185036 
L 731.680948 442.403337 
L 748.123417 442.403337 
L 748.123417 439.348762 
L 757.361712 439.348762 
L 757.361712 433.239612 
L 748.123417 433.239612 
L 748.123417 430.185036 
z
" style="fill:#191970;"/>
   </g>
   <g id="patch_75">
    <path clip-path="url(#p8ff641c088)" d="M 731.680948 430.185036 
L 731.680948 442.403337 
L 748.123417 442.403337 
L 748.123417 439.348762 
L 756.175142 439.348762 
L 756.175142 433.239612 
L 748.123417 433.239612 
L 748.123417 430.185036 
z
" style="fill:#191970;"/>
   </g>
   <g id="patch_76">
    <path clip-path="url(#p8ff641c088)" d="M 731.680948 430.185036 
L 731.680948 442.403337 
L 748.123417 442.403337 
L 748.123417 439.348762 
L 758.633037 439.348762 
L 758.633037 433.239612 
L 748.123417 433.239612 
L 748.123417 430.185036 
z
" style="fill:#191970;"/>
   </g>
   <g id="patch_77">
    <path clip-path="url(#p8ff641c088)" d="M 731.680948 430.185036 
L 731.680948 442.403337 
L 748.123417 442.403337 
L 748.123417 439.348762 
L 759.650097 439.348762 
L 759.650097 433.239612 
L 748.123417 433.239612 
L 748.123417 430.185036 
z
" style="fill:#191970;"/>
   </g>
   <g id="patch_78">
    <path clip-path="url(#p8ff641c088)" d="M 731.680948 430.185036 
L 731.680948 442.403337 
L 748.123417 442.403337 
L 748.123417 439.348762 
L 765.837211 439.348762 
L 765.837211 433.239612 
L 748.123417 433.239612 
L 748.123417 430.185036 
z
" style="fill:#191970;"/>
   </g>
   <g id="patch_79">
    <path clip-path="url(#p8ff641c088)" d="M 731.680948 430.185036 
L 731.680948 442.403337 
L 748.123417 442.403337 
L 748.123417 439.348762 
L 758.633037 439.348762 
L 758.633037 433.239612 
L 748.123417 433.239612 
L 748.123417 430.185036 
z
" style="fill:#191970;"/>
   </g>
   <g id="line2d_14">
    <path clip-path="url(#p8ff641c088)" d="M 462.795727 433.239612 
L 460.931117 436.294187 
L 462.795727 439.348762 
" style="fill:none;stroke:#000000;stroke-linecap:square;stroke-width:0.5;"/>
   </g>
   <g id="line2d_15">
    <path clip-path="url(#p8ff641c088)" d="M 493.180393 433.239612 
L 491.315783 436.294187 
L 493.180393 439.348762 
" style="fill:none;stroke:#000000;stroke-linecap:square;stroke-width:0.5;"/>
   </g>
   <g id="line2d_16">
    <path clip-path="url(#p8ff641c088)" d="M 523.014151 433.239612 
L 521.149541 436.294187 
L 523.014151 439.348762 
" style="fill:none;stroke:#000000;stroke-linecap:square;stroke-width:0.5;"/>
   </g>
   <g id="line2d_17">
    <path clip-path="url(#p8ff641c088)" d="M 590.436749 433.239612 
L 588.57214 436.294187 
L 590.436749 439.348762 
" style="fill:none;stroke:#000000;stroke-linecap:square;stroke-width:0.5;"/>
   </g>
   <g id="line2d_18">
    <path clip-path="url(#p8ff641c088)" d="M 627.262795 433.239612 
L 625.398185 436.294187 
L 627.262795 439.348762 
" style="fill:none;stroke:#000000;stroke-linecap:square;stroke-width:0.5;"/>
   </g>
   <g id="line2d_19">
    <path clip-path="url(#p8ff641c088)" d="M 661.758078 433.239612 
L 659.893468 436.294187 
L 661.758078 439.348762 
" style="fill:none;stroke:#000000;stroke-linecap:square;stroke-width:0.5;"/>
   </g>
   <g id="line2d_20">
    <path clip-path="url(#p8ff641c088)" d="M 698.499368 433.239612 
L 696.634758 436.294187 
L 698.499368 439.348762 
" style="fill:none;stroke:#000000;stroke-linecap:square;stroke-width:0.5;"/>
   </g>
   <g id="line2d_21">
    <path clip-path="url(#p8ff641c088)" d="M 728.333126 433.239612 
L 726.468516 436.294187 
L 728.333126 439.348762 
" style="fill:none;stroke:#000000;stroke-linecap:square;stroke-width:0.5;"/>
   </g>
   <g id="text_4">
    <!-- SRSF1 -->
    <g transform="translate(769.566431 439.053562)scale(0.1 -0.1)">
     <use xlink:href="#DejaVuSans-83"/>
     <use x="63.476562" xlink:href="#DejaVuSans-82"/>
     <use x="132.958984" xlink:href="#DejaVuSans-83"/>
     <use x="196.435547" xlink:href="#DejaVuSans-70"/>
     <use x="253.955078" xlink:href="#DejaVuSans-49"/>
    </g>
   </g>
  </g>
  <g id="axes_23"/>
  <g id="axes_24">
   <g id="text_5">
    <!-- GENCODE -->
    <g transform="translate(996.534359 440.149322)scale(0.144 -0.144)">
     <defs>
      <path d="M 59.515625 10.40625 
L 59.515625 29.984375 
L 43.40625 29.984375 
L 43.40625 38.09375 
L 69.28125 38.09375 
L 69.28125 6.78125 
Q 63.578125 2.734375 56.6875 0.65625 
Q 49.8125 -1.421875 42 -1.421875 
Q 24.90625 -1.421875 15.25 8.5625 
Q 5.609375 18.5625 5.609375 36.375 
Q 5.609375 54.25 15.25 64.234375 
Q 24.90625 74.21875 42 74.21875 
Q 49.125 74.21875 55.546875 72.453125 
Q 61.96875 70.703125 67.390625 67.28125 
L 67.390625 56.78125 
Q 61.921875 61.421875 55.765625 63.765625 
Q 49.609375 66.109375 42.828125 66.109375 
Q 29.4375 66.109375 22.71875 58.640625 
Q 16.015625 51.171875 16.015625 36.375 
Q 16.015625 21.625 22.71875 14.15625 
Q 29.4375 6.6875 42.828125 6.6875 
Q 48.046875 6.6875 52.140625 7.59375 
Q 56.25 8.5 59.515625 10.40625 
z
" id="DejaVuSans-71"/>
      <path d="M 9.8125 72.90625 
L 55.90625 72.90625 
L 55.90625 64.59375 
L 19.671875 64.59375 
L 19.671875 43.015625 
L 54.390625 43.015625 
L 54.390625 34.71875 
L 19.671875 34.71875 
L 19.671875 8.296875 
L 56.78125 8.296875 
L 56.78125 0 
L 9.8125 0 
z
" id="DejaVuSans-69"/>
      <path d="M 9.8125 72.90625 
L 23.09375 72.90625 
L 55.421875 11.921875 
L 55.421875 72.90625 
L 64.984375 72.90625 
L 64.984375 0 
L 51.703125 0 
L 19.390625 60.984375 
L 19.390625 0 
L 9.8125 0 
z
" id="DejaVuSans-78"/>
      <path d="M 64.40625 67.28125 
L 64.40625 56.890625 
Q 59.421875 61.53125 53.78125 63.8125 
Q 48.140625 66.109375 41.796875 66.109375 
Q 29.296875 66.109375 22.65625 58.46875 
Q 16.015625 50.828125 16.015625 36.375 
Q 16.015625 21.96875 22.65625 14.328125 
Q 29.296875 6.6875 41.796875 6.6875 
Q 48.140625 6.6875 53.78125 8.984375 
Q 59.421875 11.28125 64.40625 15.921875 
L 64.40625 5.609375 
Q 59.234375 2.09375 53.4375 0.328125 
Q 47.65625 -1.421875 41.21875 -1.421875 
Q 24.65625 -1.421875 15.125 8.703125 
Q 5.609375 18.84375 5.609375 36.375 
Q 5.609375 53.953125 15.125 64.078125 
Q 24.65625 74.21875 41.21875 74.21875 
Q 47.75 74.21875 53.53125 72.484375 
Q 59.328125 70.75 64.40625 67.28125 
z
" id="DejaVuSans-67"/>
      <path d="M 39.40625 66.21875 
Q 28.65625 66.21875 22.328125 58.203125 
Q 16.015625 50.203125 16.015625 36.375 
Q 16.015625 22.609375 22.328125 14.59375 
Q 28.65625 6.59375 39.40625 6.59375 
Q 50.140625 6.59375 56.421875 14.59375 
Q 62.703125 22.609375 62.703125 36.375 
Q 62.703125 50.203125 56.421875 58.203125 
Q 50.140625 66.21875 39.40625 66.21875 
z
M 39.40625 74.21875 
Q 54.734375 74.21875 63.90625 63.9375 
Q 73.09375 53.65625 73.09375 36.375 
Q 73.09375 19.140625 63.90625 8.859375 
Q 54.734375 -1.421875 39.40625 -1.421875 
Q 24.03125 -1.421875 14.8125 8.828125 
Q 5.609375 19.09375 5.609375 36.375 
Q 5.609375 53.65625 14.8125 63.9375 
Q 24.03125 74.21875 39.40625 74.21875 
z
" id="DejaVuSans-79"/>
      <path d="M 19.671875 64.796875 
L 19.671875 8.109375 
L 31.59375 8.109375 
Q 46.6875 8.109375 53.6875 14.9375 
Q 60.6875 21.78125 60.6875 36.53125 
Q 60.6875 51.171875 53.6875 57.984375 
Q 46.6875 64.796875 31.59375 64.796875 
z
M 9.8125 72.90625 
L 30.078125 72.90625 
Q 51.265625 72.90625 61.171875 64.09375 
Q 71.09375 55.28125 71.09375 36.53125 
Q 71.09375 17.671875 61.125 8.828125 
Q 51.171875 0 30.078125 0 
L 9.8125 0 
z
" id="DejaVuSans-68"/>
     </defs>
     <use xlink:href="#DejaVuSans-71"/>
     <use x="77.490234" xlink:href="#DejaVuSans-69"/>
     <use x="140.673828" xlink:href="#DejaVuSans-78"/>
     <use x="215.478516" xlink:href="#DejaVuSans-67"/>
     <use x="285.302734" xlink:href="#DejaVuSans-79"/>
     <use x="364.013672" xlink:href="#DejaVuSans-68"/>
     <use x="441.015625" xlink:href="#DejaVuSans-69"/>
    </g>
   </g>
  </g>
  <g id="axes_25">
   <g id="patch_80">
    <path clip-path="url(#pf0fbd4ac8f)" d="M 560.391104 443.492732 
C 560.391104 470.793262 556.280721 497.00356 548.971989 516.30795 
C 541.663256 535.61234 531.739915 546.469001 521.403806 546.469001 
C 511.067698 546.469001 501.144356 535.61234 493.835624 516.30795 
C 486.526891 497.00356 482.416509 470.793262 482.416509 443.492732 
" style="fill:none;stroke:#808080;stroke-linejoin:miter;stroke-width:0.7;"/>
   </g>
   <g id="patch_81">
    <path clip-path="url(#pf0fbd4ac8f)" d="M 600.649726 443.492732 
C 600.649726 454.027175 599.063655 464.140932 596.243437 471.589908 
C 593.42322 479.038885 589.594104 483.22814 585.605715 483.22814 
C 581.617325 483.22814 577.78821 479.038885 574.967992 471.589908 
C 572.147775 464.140932 570.561703 454.027175 570.561703 443.492732 
" style="fill:none;stroke:#808080;stroke-linejoin:miter;stroke-width:0.7;"/>
   </g>
   <g id="patch_82">
    <path clip-path="url(#pf0fbd4ac8f)" d="M 728.545013 443.492732 
C 728.545013 454.709689 726.856182 465.478702 723.853247 473.410289 
C 720.850311 481.341875 716.773112 485.802546 712.526319 485.802546 
C 708.279527 485.802546 704.202328 481.341875 701.199392 473.410289 
C 698.196457 465.478702 696.507625 454.709689 696.507625 443.492732 
" style="fill:none;stroke:#808080;stroke-linejoin:miter;stroke-width:0.7;"/>
   </g>
  </g>
  <g id="axes_26"/>
  <g id="axes_27"/>
  <g id="axes_28">
   <g id="line2d_22">
    <path clip-path="url(#pc5ab488f0f)" d="M 221.032105 564.33148 
L 757.361712 564.33148 
" style="fill:none;stroke:#000000;stroke-linecap:square;stroke-width:0.5;"/>
   </g>
   <g id="line2d_23">
    <path clip-path="url(#pc5ab488f0f)" d="M 427.919047 594.33003 
L 758.633037 594.33003 
" style="fill:none;stroke:#000000;stroke-linecap:square;stroke-width:0.5;"/>
   </g>
   <g id="line2d_24">
    <path clip-path="url(#pc5ab488f0f)" d="M 439.191461 624.328581 
L 578.359163 624.328581 
" style="fill:none;stroke:#000000;stroke-linecap:square;stroke-width:0.5;"/>
   </g>
   <g id="line2d_25">
    <path clip-path="url(#pc5ab488f0f)" d="M 465.380755 654.327132 
L 686.082761 654.327132 
" style="fill:none;stroke:#000000;stroke-linecap:square;stroke-width:0.5;"/>
   </g>
   <g id="line2d_26">
    <path clip-path="url(#pc5ab488f0f)" d="M 465.80453 684.325683 
L 756.175142 684.325683 
" style="fill:none;stroke:#000000;stroke-linecap:square;stroke-width:0.5;"/>
   </g>
   <g id="line2d_27">
    <path clip-path="url(#pc5ab488f0f)" d="M 531.998181 714.324233 
L 758.633037 714.324233 
" style="fill:none;stroke:#000000;stroke-linecap:square;stroke-width:0.5;"/>
   </g>
   <g id="line2d_28">
    <path clip-path="url(#pc5ab488f0f)" d="M 551.830849 744.322784 
L 759.650097 744.322784 
" style="fill:none;stroke:#000000;stroke-linecap:square;stroke-width:0.5;"/>
   </g>
   <g id="line2d_29">
    <path clip-path="url(#pc5ab488f0f)" d="M 554.119234 774.321335 
L 758.633037 774.321335 
" style="fill:none;stroke:#000000;stroke-linecap:square;stroke-width:0.5;"/>
   </g>
   <g id="line2d_30">
    <path clip-path="url(#pc5ab488f0f)" d="M 672.182942 804.319886 
L 765.837211 804.319886 
" style="fill:none;stroke:#000000;stroke-linecap:square;stroke-width:0.5;"/>
   </g>
   <g id="patch_83">
    <path clip-path="url(#pc5ab488f0f)" d="M 221.032105 561.070767 
L 221.032105 567.592192 
L 601.582031 567.592192 
L 601.582031 570.852904 
L 617.85499 570.852904 
L 617.85499 557.810055 
L 601.582031 557.810055 
L 601.582031 561.070767 
z
" style="fill:#0000ff;"/>
   </g>
   <g id="patch_84">
    <path clip-path="url(#pc5ab488f0f)" d="M 634.805989 557.810055 
L 634.805989 570.852904 
L 649.468603 570.852904 
L 649.468603 557.810055 
z
" style="fill:#0000ff;"/>
   </g>
   <g id="patch_85">
    <path clip-path="url(#pc5ab488f0f)" d="M 680.743196 557.810055 
L 680.743196 570.852904 
L 696.42287 570.852904 
L 696.42287 557.810055 
z
" style="fill:#0000ff;"/>
   </g>
   <g id="patch_86">
    <path clip-path="url(#pc5ab488f0f)" d="M 731.680948 557.810055 
L 731.680948 570.852904 
L 748.123417 570.852904 
L 748.123417 567.592192 
L 757.361712 567.592192 
L 757.361712 561.070767 
L 748.123417 561.070767 
L 748.123417 557.810055 
z
" style="fill:#0000ff;"/>
   </g>
   <g id="patch_87">
    <path clip-path="url(#pc5ab488f0f)" d="M 427.919047 591.069318 
L 427.919047 597.590742 
L 630.483484 597.590742 
L 630.483484 600.851454 
L 649.468603 600.851454 
L 649.468603 587.808606 
L 630.483484 587.808606 
L 630.483484 591.069318 
z
" style="fill:#0000ff;"/>
   </g>
   <g id="patch_88">
    <path clip-path="url(#pc5ab488f0f)" d="M 680.743196 587.808606 
L 680.743196 600.851454 
L 696.42287 600.851454 
L 696.42287 587.808606 
z
" style="fill:#0000ff;"/>
   </g>
   <g id="patch_89">
    <path clip-path="url(#pc5ab488f0f)" d="M 731.680948 587.808606 
L 731.680948 600.851454 
L 748.123417 600.851454 
L 748.123417 597.590742 
L 758.633037 597.590742 
L 758.633037 591.069318 
L 748.123417 591.069318 
L 748.123417 587.808606 
z
" style="fill:#0000ff;"/>
   </g>
   <g id="patch_90">
    <path clip-path="url(#pc5ab488f0f)" d="M 439.191461 621.067869 
L 439.191461 627.589293 
L 458.34609 627.589293 
L 458.34609 621.067869 
z
" style="fill:#0000ff;"/>
   </g>
   <g id="patch_91">
    <path clip-path="url(#pc5ab488f0f)" d="M 560.391104 621.067869 
L 560.391104 627.589293 
L 578.359163 627.589293 
L 578.359163 621.067869 
z
" style="fill:#0000ff;"/>
   </g>
   <g id="patch_92">
    <path clip-path="url(#pc5ab488f0f)" d="M 465.380755 651.06642 
L 465.380755 657.587844 
L 482.331754 657.587844 
L 482.331754 651.06642 
z
" style="fill:#0000ff;"/>
   </g>
   <g id="patch_93">
    <path clip-path="url(#pc5ab488f0f)" d="M 560.391104 651.06642 
L 560.391104 657.587844 
L 570.476948 657.587844 
L 570.476948 651.06642 
z
" style="fill:#0000ff;"/>
   </g>
   <g id="patch_94">
    <path clip-path="url(#pc5ab488f0f)" d="M 600.649726 651.06642 
L 600.649726 657.587844 
L 601.582031 657.587844 
L 601.582031 660.848556 
L 617.85499 660.848556 
L 617.85499 647.805708 
L 601.582031 647.805708 
L 601.582031 651.06642 
z
" style="fill:#0000ff;"/>
   </g>
   <g id="patch_95">
    <path clip-path="url(#pc5ab488f0f)" d="M 634.805989 647.805708 
L 634.805989 660.848556 
L 649.468603 660.848556 
L 649.468603 647.805708 
z
" style="fill:#0000ff;"/>
   </g>
   <g id="patch_96">
    <path clip-path="url(#pc5ab488f0f)" d="M 680.743196 647.805708 
L 680.743196 660.848556 
L 686.082761 660.848556 
L 686.082761 647.805708 
z
" style="fill:#0000ff;"/>
   </g>
   <g id="patch_97">
    <path clip-path="url(#pc5ab488f0f)" d="M 465.80453 681.064971 
L 465.80453 687.586395 
L 482.331754 687.586395 
L 482.331754 681.064971 
z
" style="fill:#0000ff;"/>
   </g>
   <g id="patch_98">
    <path clip-path="url(#pc5ab488f0f)" d="M 560.391104 681.064971 
L 560.391104 687.586395 
L 630.483484 687.586395 
L 630.483484 690.847107 
L 649.468603 690.847107 
L 649.468603 677.804259 
L 630.483484 677.804259 
L 630.483484 681.064971 
z
" style="fill:#0000ff;"/>
   </g>
   <g id="patch_99">
    <path clip-path="url(#pc5ab488f0f)" d="M 680.743196 677.804259 
L 680.743196 690.847107 
L 696.42287 690.847107 
L 696.42287 677.804259 
z
" style="fill:#0000ff;"/>
   </g>
   <g id="patch_100">
    <path clip-path="url(#pc5ab488f0f)" d="M 731.680948 677.804259 
L 731.680948 690.847107 
L 748.123417 690.847107 
L 748.123417 687.586395 
L 756.175142 687.586395 
L 756.175142 681.064971 
L 748.123417 681.064971 
L 748.123417 677.804259 
z
" style="fill:#0000ff;"/>
   </g>
   <g id="patch_101">
    <path clip-path="url(#pc5ab488f0f)" d="M 531.998181 711.063521 
L 531.998181 717.584946 
L 568.781848 717.584946 
L 568.781848 720.845658 
L 570.476948 720.845658 
L 570.476948 707.802809 
L 568.781848 707.802809 
L 568.781848 711.063521 
z
" style="fill:#0000ff;"/>
   </g>
   <g id="patch_102">
    <path clip-path="url(#pc5ab488f0f)" d="M 602.005806 707.802809 
L 602.005806 720.845658 
L 617.85499 720.845658 
L 617.85499 707.802809 
z
" style="fill:#0000ff;"/>
   </g>
   <g id="patch_103">
    <path clip-path="url(#pc5ab488f0f)" d="M 634.805989 707.802809 
L 634.805989 720.845658 
L 649.468603 720.845658 
L 649.468603 707.802809 
z
" style="fill:#0000ff;"/>
   </g>
   <g id="patch_104">
    <path clip-path="url(#pc5ab488f0f)" d="M 680.743196 707.802809 
L 680.743196 720.845658 
L 696.42287 720.845658 
L 696.42287 707.802809 
z
" style="fill:#0000ff;"/>
   </g>
   <g id="patch_105">
    <path clip-path="url(#pc5ab488f0f)" d="M 731.680948 707.802809 
L 731.680948 720.845658 
L 748.123417 720.845658 
L 748.123417 717.584946 
L 758.633037 717.584946 
L 758.633037 711.063521 
L 748.123417 711.063521 
L 748.123417 707.802809 
z
" style="fill:#0000ff;"/>
   </g>
   <g id="patch_106">
    <path clip-path="url(#pc5ab488f0f)" d="M 551.830849 741.062072 
L 551.830849 747.583496 
L 569.883663 747.583496 
L 569.883663 750.844208 
L 570.476948 750.844208 
L 570.476948 737.80136 
L 569.883663 737.80136 
L 569.883663 741.062072 
z
" style="fill:#0000ff;"/>
   </g>
   <g id="patch_107">
    <path clip-path="url(#pc5ab488f0f)" d="M 694.897281 737.80136 
L 694.897281 750.844208 
L 696.42287 750.844208 
L 696.42287 737.80136 
z
" style="fill:#0000ff;"/>
   </g>
   <g id="patch_108">
    <path clip-path="url(#pc5ab488f0f)" d="M 731.680948 737.80136 
L 731.680948 750.844208 
L 748.123417 750.844208 
L 748.123417 747.583496 
L 759.650097 747.583496 
L 759.650097 741.062072 
L 748.123417 741.062072 
L 748.123417 737.80136 
z
" style="fill:#0000ff;"/>
   </g>
   <g id="patch_109">
    <path clip-path="url(#pc5ab488f0f)" d="M 554.119234 771.060623 
L 554.119234 777.582047 
L 617.85499 777.582047 
L 617.85499 771.060623 
z
" style="fill:#0000ff;"/>
   </g>
   <g id="patch_110">
    <path clip-path="url(#pc5ab488f0f)" d="M 634.805989 771.060623 
L 634.805989 777.582047 
L 649.468603 777.582047 
L 649.468603 771.060623 
z
" style="fill:#0000ff;"/>
   </g>
   <g id="patch_111">
    <path clip-path="url(#pc5ab488f0f)" d="M 680.743196 771.060623 
L 680.743196 777.582047 
L 696.42287 777.582047 
L 696.42287 771.060623 
z
" style="fill:#0000ff;"/>
   </g>
   <g id="patch_112">
    <path clip-path="url(#pc5ab488f0f)" d="M 728.545013 771.060623 
L 728.545013 777.582047 
L 731.596193 777.582047 
L 731.596193 780.842759 
L 748.123417 780.842759 
L 748.123417 777.582047 
L 758.633037 777.582047 
L 758.633037 771.060623 
L 748.123417 771.060623 
L 748.123417 767.799911 
L 731.596193 767.799911 
L 731.596193 771.060623 
z
" style="fill:#0000ff;"/>
   </g>
   <g id="patch_113">
    <path clip-path="url(#pc5ab488f0f)" d="M 672.182942 801.059174 
L 672.182942 807.580598 
L 696.42287 807.580598 
L 696.42287 801.059174 
z
" style="fill:#0000ff;"/>
   </g>
   <g id="patch_114">
    <path clip-path="url(#pc5ab488f0f)" d="M 731.680948 801.059174 
L 731.680948 807.580598 
L 765.837211 807.580598 
L 765.837211 801.059174 
z
" style="fill:#0000ff;"/>
   </g>
   <g id="line2d_31">
    <path clip-path="url(#pc5ab488f0f)" d="M 627.262795 561.070767 
L 625.398185 564.33148 
L 627.262795 567.592192 
" style="fill:none;stroke:#000000;stroke-linecap:square;stroke-width:0.5;"/>
   </g>
   <g id="line2d_32">
    <path clip-path="url(#pc5ab488f0f)" d="M 651.121326 561.070767 
L 649.256716 564.33148 
L 651.121326 567.592192 
" style="fill:none;stroke:#000000;stroke-linecap:square;stroke-width:0.5;"/>
   </g>
   <g id="line2d_33">
    <path clip-path="url(#pc5ab488f0f)" d="M 680.955084 561.070767 
L 679.090474 564.33148 
L 680.955084 567.592192 
" style="fill:none;stroke:#000000;stroke-linecap:square;stroke-width:0.5;"/>
   </g>
   <g id="line2d_34">
    <path clip-path="url(#pc5ab488f0f)" d="M 700.067335 561.070767 
L 698.202725 564.33148 
L 700.067335 567.592192 
" style="fill:none;stroke:#000000;stroke-linecap:square;stroke-width:0.5;"/>
   </g>
   <g id="line2d_35">
    <path clip-path="url(#pc5ab488f0f)" d="M 729.901093 561.070767 
L 728.036483 564.33148 
L 729.901093 567.592192 
" style="fill:none;stroke:#000000;stroke-linecap:square;stroke-width:0.5;"/>
   </g>
   <g id="line2d_36">
    <path clip-path="url(#pc5ab488f0f)" d="M 651.121326 591.069318 
L 649.256716 594.33003 
L 651.121326 597.590742 
" style="fill:none;stroke:#000000;stroke-linecap:square;stroke-width:0.5;"/>
   </g>
   <g id="line2d_37">
    <path clip-path="url(#pc5ab488f0f)" d="M 680.955084 591.069318 
L 679.090474 594.33003 
L 680.955084 597.590742 
" style="fill:none;stroke:#000000;stroke-linecap:square;stroke-width:0.5;"/>
   </g>
   <g id="line2d_38">
    <path clip-path="url(#pc5ab488f0f)" d="M 700.067335 591.069318 
L 698.202725 594.33003 
L 700.067335 597.590742 
" style="fill:none;stroke:#000000;stroke-linecap:square;stroke-width:0.5;"/>
   </g>
   <g id="line2d_39">
    <path clip-path="url(#pc5ab488f0f)" d="M 729.901093 591.069318 
L 728.036483 594.33003 
L 729.901093 597.590742 
" style="fill:none;stroke:#000000;stroke-linecap:square;stroke-width:0.5;"/>
   </g>
   <g id="line2d_40">
    <path clip-path="url(#pc5ab488f0f)" d="M 465.550265 621.067869 
L 463.685655 624.328581 
L 465.550265 627.589293 
" style="fill:none;stroke:#000000;stroke-linecap:square;stroke-width:0.5;"/>
   </g>
   <g id="line2d_41">
    <path clip-path="url(#pc5ab488f0f)" d="M 495.384023 621.067869 
L 493.519413 624.328581 
L 495.384023 627.589293 
" style="fill:none;stroke:#000000;stroke-linecap:square;stroke-width:0.5;"/>
   </g>
   <g id="line2d_42">
    <path clip-path="url(#pc5ab488f0f)" d="M 525.217781 621.067869 
L 523.353171 624.328581 
L 525.217781 627.589293 
" style="fill:none;stroke:#000000;stroke-linecap:square;stroke-width:0.5;"/>
   </g>
   <g id="line2d_43">
    <path clip-path="url(#pc5ab488f0f)" d="M 555.051539 621.067869 
L 553.186929 624.328581 
L 555.051539 627.589293 
" style="fill:none;stroke:#000000;stroke-linecap:square;stroke-width:0.5;"/>
   </g>
   <g id="line2d_44">
    <path clip-path="url(#pc5ab488f0f)" d="M 492.459976 651.06642 
L 490.595366 654.327132 
L 492.459976 657.587844 
" style="fill:none;stroke:#000000;stroke-linecap:square;stroke-width:0.5;"/>
   </g>
   <g id="line2d_45">
    <path clip-path="url(#pc5ab488f0f)" d="M 522.293734 651.06642 
L 520.429124 654.327132 
L 522.293734 657.587844 
" style="fill:none;stroke:#000000;stroke-linecap:square;stroke-width:0.5;"/>
   </g>
   <g id="line2d_46">
    <path clip-path="url(#pc5ab488f0f)" d="M 552.127492 651.06642 
L 550.262882 654.327132 
L 552.127492 657.587844 
" style="fill:none;stroke:#000000;stroke-linecap:square;stroke-width:0.5;"/>
   </g>
   <g id="line2d_47">
    <path clip-path="url(#pc5ab488f0f)" d="M 571.578763 651.06642 
L 569.714153 654.327132 
L 571.578763 657.587844 
" style="fill:none;stroke:#000000;stroke-linecap:square;stroke-width:0.5;"/>
   </g>
   <g id="line2d_48">
    <path clip-path="url(#pc5ab488f0f)" d="M 601.412521 651.06642 
L 599.547911 654.327132 
L 601.412521 657.587844 
" style="fill:none;stroke:#000000;stroke-linecap:square;stroke-width:0.5;"/>
   </g>
   <g id="line2d_49">
    <path clip-path="url(#pc5ab488f0f)" d="M 627.262795 651.06642 
L 625.398185 654.327132 
L 627.262795 657.587844 
" style="fill:none;stroke:#000000;stroke-linecap:square;stroke-width:0.5;"/>
   </g>
   <g id="line2d_50">
    <path clip-path="url(#pc5ab488f0f)" d="M 651.121326 651.06642 
L 649.256716 654.327132 
L 651.121326 657.587844 
" style="fill:none;stroke:#000000;stroke-linecap:square;stroke-width:0.5;"/>
   </g>
   <g id="line2d_51">
    <path clip-path="url(#pc5ab488f0f)" d="M 680.955084 651.06642 
L 679.090474 654.327132 
L 680.955084 657.587844 
" style="fill:none;stroke:#000000;stroke-linecap:square;stroke-width:0.5;"/>
   </g>
   <g id="line2d_52">
    <path clip-path="url(#pc5ab488f0f)" d="M 492.459976 681.064971 
L 490.595366 684.325683 
L 492.459976 687.586395 
" style="fill:none;stroke:#000000;stroke-linecap:square;stroke-width:0.5;"/>
   </g>
   <g id="line2d_53">
    <path clip-path="url(#pc5ab488f0f)" d="M 522.293734 681.064971 
L 520.429124 684.325683 
L 522.293734 687.586395 
" style="fill:none;stroke:#000000;stroke-linecap:square;stroke-width:0.5;"/>
   </g>
   <g id="line2d_54">
    <path clip-path="url(#pc5ab488f0f)" d="M 552.127492 681.064971 
L 550.262882 684.325683 
L 552.127492 687.586395 
" style="fill:none;stroke:#000000;stroke-linecap:square;stroke-width:0.5;"/>
   </g>
   <g id="line2d_55">
    <path clip-path="url(#pc5ab488f0f)" d="M 651.121326 681.064971 
L 649.256716 684.325683 
L 651.121326 687.586395 
" style="fill:none;stroke:#000000;stroke-linecap:square;stroke-width:0.5;"/>
   </g>
   <g id="line2d_56">
    <path clip-path="url(#pc5ab488f0f)" d="M 680.955084 681.064971 
L 679.090474 684.325683 
L 680.955084 687.586395 
" style="fill:none;stroke:#000000;stroke-linecap:square;stroke-width:0.5;"/>
   </g>
   <g id="line2d_57">
    <path clip-path="url(#pc5ab488f0f)" d="M 700.067335 681.064971 
L 698.202725 684.325683 
L 700.067335 687.586395 
" style="fill:none;stroke:#000000;stroke-linecap:square;stroke-width:0.5;"/>
   </g>
   <g id="line2d_58">
    <path clip-path="url(#pc5ab488f0f)" d="M 729.901093 681.064971 
L 728.036483 684.325683 
L 729.901093 687.586395 
" style="fill:none;stroke:#000000;stroke-linecap:square;stroke-width:0.5;"/>
   </g>
   <g id="line2d_59">
    <path clip-path="url(#pc5ab488f0f)" d="M 572.256803 711.063521 
L 570.392193 714.324233 
L 572.256803 717.584946 
" style="fill:none;stroke:#000000;stroke-linecap:square;stroke-width:0.5;"/>
   </g>
   <g id="line2d_60">
    <path clip-path="url(#pc5ab488f0f)" d="M 602.090561 711.063521 
L 600.225951 714.324233 
L 602.090561 717.584946 
" style="fill:none;stroke:#000000;stroke-linecap:square;stroke-width:0.5;"/>
   </g>
   <g id="line2d_61">
    <path clip-path="url(#pc5ab488f0f)" d="M 627.262795 711.063521 
L 625.398185 714.324233 
L 627.262795 717.584946 
" style="fill:none;stroke:#000000;stroke-linecap:square;stroke-width:0.5;"/>
   </g>
   <g id="line2d_62">
    <path clip-path="url(#pc5ab488f0f)" d="M 651.121326 711.063521 
L 649.256716 714.324233 
L 651.121326 717.584946 
" style="fill:none;stroke:#000000;stroke-linecap:square;stroke-width:0.5;"/>
   </g>
   <g id="line2d_63">
    <path clip-path="url(#pc5ab488f0f)" d="M 680.955084 711.063521 
L 679.090474 714.324233 
L 680.955084 717.584946 
" style="fill:none;stroke:#000000;stroke-linecap:square;stroke-width:0.5;"/>
   </g>
   <g id="line2d_64">
    <path clip-path="url(#pc5ab488f0f)" d="M 700.067335 711.063521 
L 698.202725 714.324233 
L 700.067335 717.584946 
" style="fill:none;stroke:#000000;stroke-linecap:square;stroke-width:0.5;"/>
   </g>
   <g id="line2d_65">
    <path clip-path="url(#pc5ab488f0f)" d="M 729.901093 711.063521 
L 728.036483 714.324233 
L 729.901093 717.584946 
" style="fill:none;stroke:#000000;stroke-linecap:square;stroke-width:0.5;"/>
   </g>
   <g id="line2d_66">
    <path clip-path="url(#pc5ab488f0f)" d="M 573.951903 741.062072 
L 572.087293 744.322784 
L 573.951903 747.583496 
" style="fill:none;stroke:#000000;stroke-linecap:square;stroke-width:0.5;"/>
   </g>
   <g id="line2d_67">
    <path clip-path="url(#pc5ab488f0f)" d="M 603.785661 741.062072 
L 601.921051 744.322784 
L 603.785661 747.583496 
" style="fill:none;stroke:#000000;stroke-linecap:square;stroke-width:0.5;"/>
   </g>
   <g id="line2d_68">
    <path clip-path="url(#pc5ab488f0f)" d="M 633.619419 741.062072 
L 631.754809 744.322784 
L 633.619419 747.583496 
" style="fill:none;stroke:#000000;stroke-linecap:square;stroke-width:0.5;"/>
   </g>
   <g id="line2d_69">
    <path clip-path="url(#pc5ab488f0f)" d="M 663.453177 741.062072 
L 661.588568 744.322784 
L 663.453177 747.583496 
" style="fill:none;stroke:#000000;stroke-linecap:square;stroke-width:0.5;"/>
   </g>
   <g id="line2d_70">
    <path clip-path="url(#pc5ab488f0f)" d="M 693.286936 741.062072 
L 691.422326 744.322784 
L 693.286936 747.583496 
" style="fill:none;stroke:#000000;stroke-linecap:square;stroke-width:0.5;"/>
   </g>
   <g id="line2d_71">
    <path clip-path="url(#pc5ab488f0f)" d="M 700.067335 741.062072 
L 698.202725 744.322784 
L 700.067335 747.583496 
" style="fill:none;stroke:#000000;stroke-linecap:square;stroke-width:0.5;"/>
   </g>
   <g id="line2d_72">
    <path clip-path="url(#pc5ab488f0f)" d="M 729.901093 741.062072 
L 728.036483 744.322784 
L 729.901093 747.583496 
" style="fill:none;stroke:#000000;stroke-linecap:square;stroke-width:0.5;"/>
   </g>
   <g id="line2d_73">
    <path clip-path="url(#pc5ab488f0f)" d="M 627.262795 771.060623 
L 625.398185 774.321335 
L 627.262795 777.582047 
" style="fill:none;stroke:#000000;stroke-linecap:square;stroke-width:0.5;"/>
   </g>
   <g id="line2d_74">
    <path clip-path="url(#pc5ab488f0f)" d="M 651.121326 771.060623 
L 649.256716 774.321335 
L 651.121326 777.582047 
" style="fill:none;stroke:#000000;stroke-linecap:square;stroke-width:0.5;"/>
   </g>
   <g id="line2d_75">
    <path clip-path="url(#pc5ab488f0f)" d="M 680.955084 771.060623 
L 679.090474 774.321335 
L 680.955084 777.582047 
" style="fill:none;stroke:#000000;stroke-linecap:square;stroke-width:0.5;"/>
   </g>
   <g id="line2d_76">
    <path clip-path="url(#pc5ab488f0f)" d="M 698.499368 771.060623 
L 696.634758 774.321335 
L 698.499368 777.582047 
" style="fill:none;stroke:#000000;stroke-linecap:square;stroke-width:0.5;"/>
   </g>
   <g id="line2d_77">
    <path clip-path="url(#pc5ab488f0f)" d="M 728.333126 771.060623 
L 726.468516 774.321335 
L 728.333126 777.582047 
" style="fill:none;stroke:#000000;stroke-linecap:square;stroke-width:0.5;"/>
   </g>
   <g id="line2d_78">
    <path clip-path="url(#pc5ab488f0f)" d="M 700.067335 801.059174 
L 698.202725 804.319886 
L 700.067335 807.580598 
" style="fill:none;stroke:#000000;stroke-linecap:square;stroke-width:0.5;"/>
   </g>
   <g id="line2d_79">
    <path clip-path="url(#pc5ab488f0f)" d="M 729.901093 801.059174 
L 728.036483 804.319886 
L 729.901093 807.580598 
" style="fill:none;stroke:#000000;stroke-linecap:square;stroke-width:0.5;"/>
   </g>
   <g id="text_6">
    <!-- protein_coding -->
    <g transform="translate(761.090931 566.42773)scale(0.08 -0.08)">
     <defs>
      <path d="M 18.109375 8.203125 
L 18.109375 -20.796875 
L 9.078125 -20.796875 
L 9.078125 54.6875 
L 18.109375 54.6875 
L 18.109375 46.390625 
Q 20.953125 51.265625 25.265625 53.625 
Q 29.59375 56 35.59375 56 
Q 45.5625 56 51.78125 48.09375 
Q 58.015625 40.1875 58.015625 27.296875 
Q 58.015625 14.40625 51.78125 6.484375 
Q 45.5625 -1.421875 35.59375 -1.421875 
Q 29.59375 -1.421875 25.265625 0.953125 
Q 20.953125 3.328125 18.109375 8.203125 
z
M 48.6875 27.296875 
Q 48.6875 37.203125 44.609375 42.84375 
Q 40.53125 48.484375 33.40625 48.484375 
Q 26.265625 48.484375 22.1875 42.84375 
Q 18.109375 37.203125 18.109375 27.296875 
Q 18.109375 17.390625 22.1875 11.75 
Q 26.265625 6.109375 33.40625 6.109375 
Q 40.53125 6.109375 44.609375 11.75 
Q 48.6875 17.390625 48.6875 27.296875 
z
" id="DejaVuSans-112"/>
      <path d="M 30.609375 48.390625 
Q 23.390625 48.390625 19.1875 42.75 
Q 14.984375 37.109375 14.984375 27.296875 
Q 14.984375 17.484375 19.15625 11.84375 
Q 23.34375 6.203125 30.609375 6.203125 
Q 37.796875 6.203125 41.984375 11.859375 
Q 46.1875 17.53125 46.1875 27.296875 
Q 46.1875 37.015625 41.984375 42.703125 
Q 37.796875 48.390625 30.609375 48.390625 
z
M 30.609375 56 
Q 42.328125 56 49.015625 48.375 
Q 55.71875 40.765625 55.71875 27.296875 
Q 55.71875 13.875 49.015625 6.21875 
Q 42.328125 -1.421875 30.609375 -1.421875 
Q 18.84375 -1.421875 12.171875 6.21875 
Q 5.515625 13.875 5.515625 27.296875 
Q 5.515625 40.765625 12.171875 48.375 
Q 18.84375 56 30.609375 56 
z
" id="DejaVuSans-111"/>
      <path d="M 9.421875 54.6875 
L 18.40625 54.6875 
L 18.40625 0 
L 9.421875 0 
z
M 9.421875 75.984375 
L 18.40625 75.984375 
L 18.40625 64.59375 
L 9.421875 64.59375 
z
" id="DejaVuSans-105"/>
      <path d="M 54.890625 33.015625 
L 54.890625 0 
L 45.90625 0 
L 45.90625 32.71875 
Q 45.90625 40.484375 42.875 44.328125 
Q 39.84375 48.1875 33.796875 48.1875 
Q 26.515625 48.1875 22.3125 43.546875 
Q 18.109375 38.921875 18.109375 30.90625 
L 18.109375 0 
L 9.078125 0 
L 9.078125 54.6875 
L 18.109375 54.6875 
L 18.109375 46.1875 
Q 21.34375 51.125 25.703125 53.5625 
Q 30.078125 56 35.796875 56 
Q 45.21875 56 50.046875 50.171875 
Q 54.890625 44.34375 54.890625 33.015625 
z
" id="DejaVuSans-110"/>
      <path d="M 50.984375 -16.609375 
L 50.984375 -23.578125 
L -0.984375 -23.578125 
L -0.984375 -16.609375 
z
" id="DejaVuSans-95"/>
      <path d="M 45.40625 46.390625 
L 45.40625 75.984375 
L 54.390625 75.984375 
L 54.390625 0 
L 45.40625 0 
L 45.40625 8.203125 
Q 42.578125 3.328125 38.25 0.953125 
Q 33.9375 -1.421875 27.875 -1.421875 
Q 17.96875 -1.421875 11.734375 6.484375 
Q 5.515625 14.40625 5.515625 27.296875 
Q 5.515625 40.1875 11.734375 48.09375 
Q 17.96875 56 27.875 56 
Q 33.9375 56 38.25 53.625 
Q 42.578125 51.265625 45.40625 46.390625 
z
M 14.796875 27.296875 
Q 14.796875 17.390625 18.875 11.75 
Q 22.953125 6.109375 30.078125 6.109375 
Q 37.203125 6.109375 41.296875 11.75 
Q 45.40625 17.390625 45.40625 27.296875 
Q 45.40625 37.203125 41.296875 42.84375 
Q 37.203125 48.484375 30.078125 48.484375 
Q 22.953125 48.484375 18.875 42.84375 
Q 14.796875 37.203125 14.796875 27.296875 
z
" id="DejaVuSans-100"/>
      <path d="M 45.40625 27.984375 
Q 45.40625 37.75 41.375 43.109375 
Q 37.359375 48.484375 30.078125 48.484375 
Q 22.859375 48.484375 18.828125 43.109375 
Q 14.796875 37.75 14.796875 27.984375 
Q 14.796875 18.265625 18.828125 12.890625 
Q 22.859375 7.515625 30.078125 7.515625 
Q 37.359375 7.515625 41.375 12.890625 
Q 45.40625 18.265625 45.40625 27.984375 
z
M 54.390625 6.78125 
Q 54.390625 -7.171875 48.1875 -13.984375 
Q 42 -20.796875 29.203125 -20.796875 
Q 24.46875 -20.796875 20.265625 -20.09375 
Q 16.0625 -19.390625 12.109375 -17.921875 
L 12.109375 -9.1875 
Q 16.0625 -11.328125 19.921875 -12.34375 
Q 23.78125 -13.375 27.78125 -13.375 
Q 36.625 -13.375 41.015625 -8.765625 
Q 45.40625 -4.15625 45.40625 5.171875 
L 45.40625 9.625 
Q 42.625 4.78125 38.28125 2.390625 
Q 33.9375 0 27.875 0 
Q 17.828125 0 11.671875 7.65625 
Q 5.515625 15.328125 5.515625 27.984375 
Q 5.515625 40.671875 11.671875 48.328125 
Q 17.828125 56 27.875 56 
Q 33.9375 56 38.28125 53.609375 
Q 42.625 51.21875 45.40625 46.390625 
L 45.40625 54.6875 
L 54.390625 54.6875 
z
" id="DejaVuSans-103"/>
     </defs>
     <use xlink:href="#DejaVuSans-112"/>
     <use x="63.476562" xlink:href="#DejaVuSans-114"/>
     <use x="102.339844" xlink:href="#DejaVuSans-111"/>
     <use x="163.521484" xlink:href="#DejaVuSans-116"/>
     <use x="202.730469" xlink:href="#DejaVuSans-101"/>
     <use x="264.253906" xlink:href="#DejaVuSans-105"/>
     <use x="292.037109" xlink:href="#DejaVuSans-110"/>
     <use x="355.416016" xlink:href="#DejaVuSans-95"/>
     <use x="405.416016" xlink:href="#DejaVuSans-99"/>
     <use x="460.396484" xlink:href="#DejaVuSans-111"/>
     <use x="521.578125" xlink:href="#DejaVuSans-100"/>
     <use x="585.054688" xlink:href="#DejaVuSans-105"/>
     <use x="612.837891" xlink:href="#DejaVuSans-110"/>
     <use x="676.216797" xlink:href="#DejaVuSans-103"/>
    </g>
   </g>
   <g id="text_7">
    <!-- protein_coding -->
    <g transform="translate(762.362256 596.42628)scale(0.08 -0.08)">
     <use xlink:href="#DejaVuSans-112"/>
     <use x="63.476562" xlink:href="#DejaVuSans-114"/>
     <use x="102.339844" xlink:href="#DejaVuSans-111"/>
     <use x="163.521484" xlink:href="#DejaVuSans-116"/>
     <use x="202.730469" xlink:href="#DejaVuSans-101"/>
     <use x="264.253906" xlink:href="#DejaVuSans-105"/>
     <use x="292.037109" xlink:href="#DejaVuSans-110"/>
     <use x="355.416016" xlink:href="#DejaVuSans-95"/>
     <use x="405.416016" xlink:href="#DejaVuSans-99"/>
     <use x="460.396484" xlink:href="#DejaVuSans-111"/>
     <use x="521.578125" xlink:href="#DejaVuSans-100"/>
     <use x="585.054688" xlink:href="#DejaVuSans-105"/>
     <use x="612.837891" xlink:href="#DejaVuSans-110"/>
     <use x="676.216797" xlink:href="#DejaVuSans-103"/>
    </g>
   </g>
   <g id="text_8">
    <!-- protein_coding_CDS_not_defined -->
    <g transform="translate(582.088382 626.424831)scale(0.08 -0.08)">
     <use xlink:href="#DejaVuSans-112"/>
     <use x="63.476562" xlink:href="#DejaVuSans-114"/>
     <use x="102.339844" xlink:href="#DejaVuSans-111"/>
     <use x="163.521484" xlink:href="#DejaVuSans-116"/>
     <use x="202.730469" xlink:href="#DejaVuSans-101"/>
     <use x="264.253906" xlink:href="#DejaVuSans-105"/>
     <use x="292.037109" xlink:href="#DejaVuSans-110"/>
     <use x="355.416016" xlink:href="#DejaVuSans-95"/>
     <use x="405.416016" xlink:href="#DejaVuSans-99"/>
     <use x="460.396484" xlink:href="#DejaVuSans-111"/>
     <use x="521.578125" xlink:href="#DejaVuSans-100"/>
     <use x="585.054688" xlink:href="#DejaVuSans-105"/>
     <use x="612.837891" xlink:href="#DejaVuSans-110"/>
     <use x="676.216797" xlink:href="#DejaVuSans-103"/>
     <use x="739.693359" xlink:href="#DejaVuSans-95"/>
     <use x="789.693359" xlink:href="#DejaVuSans-67"/>
     <use x="859.517578" xlink:href="#DejaVuSans-68"/>
     <use x="936.519531" xlink:href="#DejaVuSans-83"/>
     <use x="999.996094" xlink:href="#DejaVuSans-95"/>
     <use x="1049.996094" xlink:href="#DejaVuSans-110"/>
     <use x="1113.375" xlink:href="#DejaVuSans-111"/>
     <use x="1174.556641" xlink:href="#DejaVuSans-116"/>
     <use x="1213.765625" xlink:href="#DejaVuSans-95"/>
     <use x="1263.765625" xlink:href="#DejaVuSans-100"/>
     <use x="1327.242188" xlink:href="#DejaVuSans-101"/>
     <use x="1388.765625" xlink:href="#DejaVuSans-102"/>
     <use x="1423.970703" xlink:href="#DejaVuSans-105"/>
     <use x="1451.753906" xlink:href="#DejaVuSans-110"/>
     <use x="1515.132812" xlink:href="#DejaVuSans-101"/>
     <use x="1576.65625" xlink:href="#DejaVuSans-100"/>
    </g>
   </g>
   <g id="text_9">
    <!-- nonsense_mediated_decay -->
    <g transform="translate(689.811981 656.423382)scale(0.08 -0.08)">
     <defs>
      <path d="M 44.28125 53.078125 
L 44.28125 44.578125 
Q 40.484375 46.53125 36.375 47.5 
Q 32.28125 48.484375 27.875 48.484375 
Q 21.1875 48.484375 17.84375 46.4375 
Q 14.5 44.390625 14.5 40.28125 
Q 14.5 37.15625 16.890625 35.375 
Q 19.28125 33.59375 26.515625 31.984375 
L 29.59375 31.296875 
Q 39.15625 29.25 43.1875 25.515625 
Q 47.21875 21.78125 47.21875 15.09375 
Q 47.21875 7.46875 41.1875 3.015625 
Q 35.15625 -1.421875 24.609375 -1.421875 
Q 20.21875 -1.421875 15.453125 -0.5625 
Q 10.6875 0.296875 5.421875 2 
L 5.421875 11.28125 
Q 10.40625 8.6875 15.234375 7.390625 
Q 20.0625 6.109375 24.8125 6.109375 
Q 31.15625 6.109375 34.5625 8.28125 
Q 37.984375 10.453125 37.984375 14.40625 
Q 37.984375 18.0625 35.515625 20.015625 
Q 33.0625 21.96875 24.703125 23.78125 
L 21.578125 24.515625 
Q 13.234375 26.265625 9.515625 29.90625 
Q 5.8125 33.546875 5.8125 39.890625 
Q 5.8125 47.609375 11.28125 51.796875 
Q 16.75 56 26.8125 56 
Q 31.78125 56 36.171875 55.265625 
Q 40.578125 54.546875 44.28125 53.078125 
z
" id="DejaVuSans-115"/>
      <path d="M 52 44.1875 
Q 55.375 50.25 60.0625 53.125 
Q 64.75 56 71.09375 56 
Q 79.640625 56 84.28125 50.015625 
Q 88.921875 44.046875 88.921875 33.015625 
L 88.921875 0 
L 79.890625 0 
L 79.890625 32.71875 
Q 79.890625 40.578125 77.09375 44.375 
Q 74.3125 48.1875 68.609375 48.1875 
Q 61.625 48.1875 57.5625 43.546875 
Q 53.515625 38.921875 53.515625 30.90625 
L 53.515625 0 
L 44.484375 0 
L 44.484375 32.71875 
Q 44.484375 40.625 41.703125 44.40625 
Q 38.921875 48.1875 33.109375 48.1875 
Q 26.21875 48.1875 22.15625 43.53125 
Q 18.109375 38.875 18.109375 30.90625 
L 18.109375 0 
L 9.078125 0 
L 9.078125 54.6875 
L 18.109375 54.6875 
L 18.109375 46.1875 
Q 21.1875 51.21875 25.484375 53.609375 
Q 29.78125 56 35.6875 56 
Q 41.65625 56 45.828125 52.96875 
Q 50 49.953125 52 44.1875 
z
" id="DejaVuSans-109"/>
      <path d="M 32.171875 -5.078125 
Q 28.375 -14.84375 24.75 -17.8125 
Q 21.140625 -20.796875 15.09375 -20.796875 
L 7.90625 -20.796875 
L 7.90625 -13.28125 
L 13.1875 -13.28125 
Q 16.890625 -13.28125 18.9375 -11.515625 
Q 21 -9.765625 23.484375 -3.21875 
L 25.09375 0.875 
L 2.984375 54.6875 
L 12.5 54.6875 
L 29.59375 11.921875 
L 46.6875 54.6875 
L 56.203125 54.6875 
z
" id="DejaVuSans-121"/>
     </defs>
     <use xlink:href="#DejaVuSans-110"/>
     <use x="63.378906" xlink:href="#DejaVuSans-111"/>
     <use x="124.560547" xlink:href="#DejaVuSans-110"/>
     <use x="187.939453" xlink:href="#DejaVuSans-115"/>
     <use x="240.039062" xlink:href="#DejaVuSans-101"/>
     <use x="301.5625" xlink:href="#DejaVuSans-110"/>
     <use x="364.941406" xlink:href="#DejaVuSans-115"/>
     <use x="417.041016" xlink:href="#DejaVuSans-101"/>
     <use x="478.564453" xlink:href="#DejaVuSans-95"/>
     <use x="528.564453" xlink:href="#DejaVuSans-109"/>
     <use x="625.976562" xlink:href="#DejaVuSans-101"/>
     <use x="687.5" xlink:href="#DejaVuSans-100"/>
     <use x="750.976562" xlink:href="#DejaVuSans-105"/>
     <use x="778.759766" xlink:href="#DejaVuSans-97"/>
     <use x="840.039062" xlink:href="#DejaVuSans-116"/>
     <use x="879.248047" xlink:href="#DejaVuSans-101"/>
     <use x="940.771484" xlink:href="#DejaVuSans-100"/>
     <use x="1004.248047" xlink:href="#DejaVuSans-95"/>
     <use x="1054.248047" xlink:href="#DejaVuSans-100"/>
     <use x="1117.724609" xlink:href="#DejaVuSans-101"/>
     <use x="1179.248047" xlink:href="#DejaVuSans-99"/>
     <use x="1234.228516" xlink:href="#DejaVuSans-97"/>
     <use x="1295.507812" xlink:href="#DejaVuSans-121"/>
    </g>
   </g>
   <g id="text_10">
    <!-- nonsense_mediated_decay -->
    <g transform="translate(759.904362 686.421933)scale(0.08 -0.08)">
     <use xlink:href="#DejaVuSans-110"/>
     <use x="63.378906" xlink:href="#DejaVuSans-111"/>
     <use x="124.560547" xlink:href="#DejaVuSans-110"/>
     <use x="187.939453" xlink:href="#DejaVuSans-115"/>
     <use x="240.039062" xlink:href="#DejaVuSans-101"/>
     <use x="301.5625" xlink:href="#DejaVuSans-110"/>
     <use x="364.941406" xlink:href="#DejaVuSans-115"/>
     <use x="417.041016" xlink:href="#DejaVuSans-101"/>
     <use x="478.564453" xlink:href="#DejaVuSans-95"/>
     <use x="528.564453" xlink:href="#DejaVuSans-109"/>
     <use x="625.976562" xlink:href="#DejaVuSans-101"/>
     <use x="687.5" xlink:href="#DejaVuSans-100"/>
     <use x="750.976562" xlink:href="#DejaVuSans-105"/>
     <use x="778.759766" xlink:href="#DejaVuSans-97"/>
     <use x="840.039062" xlink:href="#DejaVuSans-116"/>
     <use x="879.248047" xlink:href="#DejaVuSans-101"/>
     <use x="940.771484" xlink:href="#DejaVuSans-100"/>
     <use x="1004.248047" xlink:href="#DejaVuSans-95"/>
     <use x="1054.248047" xlink:href="#DejaVuSans-100"/>
     <use x="1117.724609" xlink:href="#DejaVuSans-101"/>
     <use x="1179.248047" xlink:href="#DejaVuSans-99"/>
     <use x="1234.228516" xlink:href="#DejaVuSans-97"/>
     <use x="1295.507812" xlink:href="#DejaVuSans-121"/>
    </g>
   </g>
   <g id="text_11">
    <!-- protein_coding -->
    <g transform="translate(762.362256 716.420483)scale(0.08 -0.08)">
     <use xlink:href="#DejaVuSans-112"/>
     <use x="63.476562" xlink:href="#DejaVuSans-114"/>
     <use x="102.339844" xlink:href="#DejaVuSans-111"/>
     <use x="163.521484" xlink:href="#DejaVuSans-116"/>
     <use x="202.730469" xlink:href="#DejaVuSans-101"/>
     <use x="264.253906" xlink:href="#DejaVuSans-105"/>
     <use x="292.037109" xlink:href="#DejaVuSans-110"/>
     <use x="355.416016" xlink:href="#DejaVuSans-95"/>
     <use x="405.416016" xlink:href="#DejaVuSans-99"/>
     <use x="460.396484" xlink:href="#DejaVuSans-111"/>
     <use x="521.578125" xlink:href="#DejaVuSans-100"/>
     <use x="585.054688" xlink:href="#DejaVuSans-105"/>
     <use x="612.837891" xlink:href="#DejaVuSans-110"/>
     <use x="676.216797" xlink:href="#DejaVuSans-103"/>
    </g>
   </g>
   <g id="text_12">
    <!-- protein_coding -->
    <g transform="translate(763.379316 746.419034)scale(0.08 -0.08)">
     <use xlink:href="#DejaVuSans-112"/>
     <use x="63.476562" xlink:href="#DejaVuSans-114"/>
     <use x="102.339844" xlink:href="#DejaVuSans-111"/>
     <use x="163.521484" xlink:href="#DejaVuSans-116"/>
     <use x="202.730469" xlink:href="#DejaVuSans-101"/>
     <use x="264.253906" xlink:href="#DejaVuSans-105"/>
     <use x="292.037109" xlink:href="#DejaVuSans-110"/>
     <use x="355.416016" xlink:href="#DejaVuSans-95"/>
     <use x="405.416016" xlink:href="#DejaVuSans-99"/>
     <use x="460.396484" xlink:href="#DejaVuSans-111"/>
     <use x="521.578125" xlink:href="#DejaVuSans-100"/>
     <use x="585.054688" xlink:href="#DejaVuSans-105"/>
     <use x="612.837891" xlink:href="#DejaVuSans-110"/>
     <use x="676.216797" xlink:href="#DejaVuSans-103"/>
    </g>
   </g>
   <g id="text_13">
    <!-- nonsense_mediated_decay -->
    <g transform="translate(762.362256 776.417585)scale(0.08 -0.08)">
     <use xlink:href="#DejaVuSans-110"/>
     <use x="63.378906" xlink:href="#DejaVuSans-111"/>
     <use x="124.560547" xlink:href="#DejaVuSans-110"/>
     <use x="187.939453" xlink:href="#DejaVuSans-115"/>
     <use x="240.039062" xlink:href="#DejaVuSans-101"/>
     <use x="301.5625" xlink:href="#DejaVuSans-110"/>
     <use x="364.941406" xlink:href="#DejaVuSans-115"/>
     <use x="417.041016" xlink:href="#DejaVuSans-101"/>
     <use x="478.564453" xlink:href="#DejaVuSans-95"/>
     <use x="528.564453" xlink:href="#DejaVuSans-109"/>
     <use x="625.976562" xlink:href="#DejaVuSans-101"/>
     <use x="687.5" xlink:href="#DejaVuSans-100"/>
     <use x="750.976562" xlink:href="#DejaVuSans-105"/>
     <use x="778.759766" xlink:href="#DejaVuSans-97"/>
     <use x="840.039062" xlink:href="#DejaVuSans-116"/>
     <use x="879.248047" xlink:href="#DejaVuSans-101"/>
     <use x="940.771484" xlink:href="#DejaVuSans-100"/>
     <use x="1004.248047" xlink:href="#DejaVuSans-95"/>
     <use x="1054.248047" xlink:href="#DejaVuSans-100"/>
     <use x="1117.724609" xlink:href="#DejaVuSans-101"/>
     <use x="1179.248047" xlink:href="#DejaVuSans-99"/>
     <use x="1234.228516" xlink:href="#DejaVuSans-97"/>
     <use x="1295.507812" xlink:href="#DejaVuSans-121"/>
    </g>
   </g>
   <g id="text_14">
    <!-- retained_intron -->
    <g transform="translate(769.566431 806.416136)scale(0.08 -0.08)">
     <use xlink:href="#DejaVuSans-114"/>
     <use x="38.863281" xlink:href="#DejaVuSans-101"/>
     <use x="100.386719" xlink:href="#DejaVuSans-116"/>
     <use x="139.595703" xlink:href="#DejaVuSans-97"/>
     <use x="200.875" xlink:href="#DejaVuSans-105"/>
     <use x="228.658203" xlink:href="#DejaVuSans-110"/>
     <use x="292.037109" xlink:href="#DejaVuSans-101"/>
     <use x="353.560547" xlink:href="#DejaVuSans-100"/>
     <use x="417.037109" xlink:href="#DejaVuSans-95"/>
     <use x="467.037109" xlink:href="#DejaVuSans-105"/>
     <use x="494.820312" xlink:href="#DejaVuSans-110"/>
     <use x="558.199219" xlink:href="#DejaVuSans-116"/>
     <use x="597.408203" xlink:href="#DejaVuSans-114"/>
     <use x="636.271484" xlink:href="#DejaVuSans-111"/>
     <use x="697.453125" xlink:href="#DejaVuSans-110"/>
    </g>
   </g>
  </g>
  <g id="axes_29"/>
  <g id="axes_30"/>
  <g id="axes_31"/>
  <g id="axes_32"/>
  <g id="axes_33"/>
  <g id="axes_34">
   <g id="mpl_toolkits.axisartist.axis_artist_1">
    <defs>
     <path d="M 0 0 
L 0 -3.5 
" id="m35ac2d005e" style="stroke:#000000;stroke-width:0.8;"/>
    </defs>
    <g>
     <use style="fill:none;stroke:#000000;stroke-width:0.8;" x="143.22702" xlink:href="#m35ac2d005e" y="842.498911"/>
    </g>
    <g>
     <use style="fill:none;stroke:#000000;stroke-width:0.8;" x="312.737009" xlink:href="#m35ac2d005e" y="842.498911"/>
    </g>
    <g>
     <use style="fill:none;stroke:#000000;stroke-width:0.8;" x="482.246999" xlink:href="#m35ac2d005e" y="842.498911"/>
    </g>
    <g>
     <use style="fill:none;stroke:#000000;stroke-width:0.8;" x="651.756988" xlink:href="#m35ac2d005e" y="842.498911"/>
    </g>
    <g>
     <use style="fill:none;stroke:#000000;stroke-width:0.8;" x="821.266978" xlink:href="#m35ac2d005e" y="842.498911"/>
    </g>
    <g>
     <use style="fill:none;stroke:#000000;stroke-width:0.8;" x="990.776967" xlink:href="#m35ac2d005e" y="842.498911"/>
    </g>
    <g id="text_15">
     <!-- 58,000 -->
     <g transform="translate(129.23077 852.077661)scale(0.08 -0.08)">
      <defs>
       <path d="M 31.78125 34.625 
Q 24.75 34.625 20.71875 30.859375 
Q 16.703125 27.09375 16.703125 20.515625 
Q 16.703125 13.921875 20.71875 10.15625 
Q 24.75 6.390625 31.78125 6.390625 
Q 38.8125 6.390625 42.859375 10.171875 
Q 46.921875 13.96875 46.921875 20.515625 
Q 46.921875 27.09375 42.890625 30.859375 
Q 38.875 34.625 31.78125 34.625 
z
M 21.921875 38.8125 
Q 15.578125 40.375 12.03125 44.71875 
Q 8.5 49.078125 8.5 55.328125 
Q 8.5 64.0625 14.71875 69.140625 
Q 20.953125 74.21875 31.78125 74.21875 
Q 42.671875 74.21875 48.875 69.140625 
Q 55.078125 64.0625 55.078125 55.328125 
Q 55.078125 49.078125 51.53125 44.71875 
Q 48 40.375 41.703125 38.8125 
Q 48.828125 37.15625 52.796875 32.3125 
Q 56.78125 27.484375 56.78125 20.515625 
Q 56.78125 9.90625 50.3125 4.234375 
Q 43.84375 -1.421875 31.78125 -1.421875 
Q 19.734375 -1.421875 13.25 4.234375 
Q 6.78125 9.90625 6.78125 20.515625 
Q 6.78125 27.484375 10.78125 32.3125 
Q 14.796875 37.15625 21.921875 38.8125 
z
M 18.3125 54.390625 
Q 18.3125 48.734375 21.84375 45.5625 
Q 25.390625 42.390625 31.78125 42.390625 
Q 38.140625 42.390625 41.71875 45.5625 
Q 45.3125 48.734375 45.3125 54.390625 
Q 45.3125 60.0625 41.71875 63.234375 
Q 38.140625 66.40625 31.78125 66.40625 
Q 25.390625 66.40625 21.84375 63.234375 
Q 18.3125 60.0625 18.3125 54.390625 
z
" id="DejaVuSans-56"/>
       <path d="M 11.71875 12.40625 
L 22.015625 12.40625 
L 22.015625 4 
L 14.015625 -11.625 
L 7.71875 -11.625 
L 11.71875 4 
z
" id="DejaVuSans-44"/>
       <path d="M 31.78125 66.40625 
Q 24.171875 66.40625 20.328125 58.90625 
Q 16.5 51.421875 16.5 36.375 
Q 16.5 21.390625 20.328125 13.890625 
Q 24.171875 6.390625 31.78125 6.390625 
Q 39.453125 6.390625 43.28125 13.890625 
Q 47.125 21.390625 47.125 36.375 
Q 47.125 51.421875 43.28125 58.90625 
Q 39.453125 66.40625 31.78125 66.40625 
z
M 31.78125 74.21875 
Q 44.046875 74.21875 50.515625 64.515625 
Q 56.984375 54.828125 56.984375 36.375 
Q 56.984375 17.96875 50.515625 8.265625 
Q 44.046875 -1.421875 31.78125 -1.421875 
Q 19.53125 -1.421875 13.0625 8.265625 
Q 6.59375 17.96875 6.59375 36.375 
Q 6.59375 54.828125 13.0625 64.515625 
Q 19.53125 74.21875 31.78125 74.21875 
z
" id="DejaVuSans-48"/>
      </defs>
      <use xlink:href="#DejaVuSans-53"/>
      <use x="63.623047" xlink:href="#DejaVuSans-56"/>
      <use x="127.246094" xlink:href="#DejaVuSans-44"/>
      <use x="159.033203" xlink:href="#DejaVuSans-48"/>
      <use x="222.65625" xlink:href="#DejaVuSans-48"/>
      <use x="286.279297" xlink:href="#DejaVuSans-48"/>
     </g>
    </g>
    <g id="text_16">
     <!-- 58,002 -->
     <g transform="translate(298.740759 852.077661)scale(0.08 -0.08)">
      <use xlink:href="#DejaVuSans-53"/>
      <use x="63.623047" xlink:href="#DejaVuSans-56"/>
      <use x="127.246094" xlink:href="#DejaVuSans-44"/>
      <use x="159.033203" xlink:href="#DejaVuSans-48"/>
      <use x="222.65625" xlink:href="#DejaVuSans-48"/>
      <use x="286.279297" xlink:href="#DejaVuSans-50"/>
     </g>
    </g>
    <g id="text_17">
     <!-- 58,004 -->
     <g transform="translate(468.250749 852.077661)scale(0.08 -0.08)">
      <defs>
       <path d="M 37.796875 64.3125 
L 12.890625 25.390625 
L 37.796875 25.390625 
z
M 35.203125 72.90625 
L 47.609375 72.90625 
L 47.609375 25.390625 
L 58.015625 25.390625 
L 58.015625 17.1875 
L 47.609375 17.1875 
L 47.609375 0 
L 37.796875 0 
L 37.796875 17.1875 
L 4.890625 17.1875 
L 4.890625 26.703125 
z
" id="DejaVuSans-52"/>
      </defs>
      <use xlink:href="#DejaVuSans-53"/>
      <use x="63.623047" xlink:href="#DejaVuSans-56"/>
      <use x="127.246094" xlink:href="#DejaVuSans-44"/>
      <use x="159.033203" xlink:href="#DejaVuSans-48"/>
      <use x="222.65625" xlink:href="#DejaVuSans-48"/>
      <use x="286.279297" xlink:href="#DejaVuSans-52"/>
     </g>
    </g>
    <g id="text_18">
     <!-- 58,006 -->
     <g transform="translate(637.760738 852.077661)scale(0.08 -0.08)">
      <defs>
       <path d="M 33.015625 40.375 
Q 26.375 40.375 22.484375 35.828125 
Q 18.609375 31.296875 18.609375 23.390625 
Q 18.609375 15.53125 22.484375 10.953125 
Q 26.375 6.390625 33.015625 6.390625 
Q 39.65625 6.390625 43.53125 10.953125 
Q 47.40625 15.53125 47.40625 23.390625 
Q 47.40625 31.296875 43.53125 35.828125 
Q 39.65625 40.375 33.015625 40.375 
z
M 52.59375 71.296875 
L 52.59375 62.3125 
Q 48.875 64.0625 45.09375 64.984375 
Q 41.3125 65.921875 37.59375 65.921875 
Q 27.828125 65.921875 22.671875 59.328125 
Q 17.53125 52.734375 16.796875 39.40625 
Q 19.671875 43.65625 24.015625 45.921875 
Q 28.375 48.1875 33.59375 48.1875 
Q 44.578125 48.1875 50.953125 41.515625 
Q 57.328125 34.859375 57.328125 23.390625 
Q 57.328125 12.15625 50.6875 5.359375 
Q 44.046875 -1.421875 33.015625 -1.421875 
Q 20.359375 -1.421875 13.671875 8.265625 
Q 6.984375 17.96875 6.984375 36.375 
Q 6.984375 53.65625 15.1875 63.9375 
Q 23.390625 74.21875 37.203125 74.21875 
Q 40.921875 74.21875 44.703125 73.484375 
Q 48.484375 72.75 52.59375 71.296875 
z
" id="DejaVuSans-54"/>
      </defs>
      <use xlink:href="#DejaVuSans-53"/>
      <use x="63.623047" xlink:href="#DejaVuSans-56"/>
      <use x="127.246094" xlink:href="#DejaVuSans-44"/>
      <use x="159.033203" xlink:href="#DejaVuSans-48"/>
      <use x="222.65625" xlink:href="#DejaVuSans-48"/>
      <use x="286.279297" xlink:href="#DejaVuSans-54"/>
     </g>
    </g>
    <g id="text_19">
     <!-- 58,008 Kb -->
     <g transform="translate(800.836978 852.077661)scale(0.08 -0.08)">
      <defs>
       <path d="M 9.8125 72.90625 
L 19.671875 72.90625 
L 19.671875 42.09375 
L 52.390625 72.90625 
L 65.09375 72.90625 
L 28.90625 38.921875 
L 67.671875 0 
L 54.6875 0 
L 19.671875 35.109375 
L 19.671875 0 
L 9.8125 0 
z
" id="DejaVuSans-75"/>
      </defs>
      <use xlink:href="#DejaVuSans-53"/>
      <use x="63.623047" xlink:href="#DejaVuSans-56"/>
      <use x="127.246094" xlink:href="#DejaVuSans-44"/>
      <use x="159.033203" xlink:href="#DejaVuSans-48"/>
      <use x="222.65625" xlink:href="#DejaVuSans-48"/>
      <use x="286.279297" xlink:href="#DejaVuSans-56"/>
      <use x="349.902344" xlink:href="#DejaVuSans-32"/>
      <use x="381.689453" xlink:href="#DejaVuSans-75"/>
      <use x="447.265625" xlink:href="#DejaVuSans-98"/>
     </g>
    </g>
    <g id="text_20">
     <!-- 58,010 -->
     <g transform="translate(976.780717 852.077661)scale(0.08 -0.08)">
      <use xlink:href="#DejaVuSans-53"/>
      <use x="63.623047" xlink:href="#DejaVuSans-56"/>
      <use x="127.246094" xlink:href="#DejaVuSans-44"/>
      <use x="159.033203" xlink:href="#DejaVuSans-48"/>
      <use x="222.65625" xlink:href="#DejaVuSans-49"/>
      <use x="286.279297" xlink:href="#DejaVuSans-48"/>
     </g>
    </g>
    <g id="patch_115">
     <path clip-path="url(#p61ccaa499d)" d="M 58.472025 842.498911 
L 990.776967 842.498911 
" style="fill:none;stroke:#000000;stroke-linecap:square;stroke-width:0.8;"/>
    </g>
   </g>
   <g id="text_21">
    <!-- chr17 -->
    <g transform="translate(513.155746 861.017838)scale(0.08 -0.08)">
     <defs>
      <path d="M 54.890625 33.015625 
L 54.890625 0 
L 45.90625 0 
L 45.90625 32.71875 
Q 45.90625 40.484375 42.875 44.328125 
Q 39.84375 48.1875 33.796875 48.1875 
Q 26.515625 48.1875 22.3125 43.546875 
Q 18.109375 38.921875 18.109375 30.90625 
L 18.109375 0 
L 9.078125 0 
L 9.078125 75.984375 
L 18.109375 75.984375 
L 18.109375 46.1875 
Q 21.34375 51.125 25.703125 53.5625 
Q 30.078125 56 35.796875 56 
Q 45.21875 56 50.046875 50.171875 
Q 54.890625 44.34375 54.890625 33.015625 
z
" id="DejaVuSans-104"/>
      <path d="M 8.203125 72.90625 
L 55.078125 72.90625 
L 55.078125 68.703125 
L 28.609375 0 
L 18.3125 0 
L 43.21875 64.59375 
L 8.203125 64.59375 
z
" id="DejaVuSans-55"/>
     </defs>
     <use xlink:href="#DejaVuSans-99"/>
     <use x="54.980469" xlink:href="#DejaVuSans-104"/>
     <use x="118.359375" xlink:href="#DejaVuSans-114"/>
     <use x="159.472656" xlink:href="#DejaVuSans-49"/>
     <use x="223.095703" xlink:href="#DejaVuSans-55"/>
    </g>
   </g>
  </g>
  <g id="axes_35"/>
  <g id="axes_36"/>
  <g id="text_22">
   <!-- SRSF1 chr17:57999000-58010000 -->
   <g transform="translate(442.811259 28.733675)scale(0.144 -0.144)">
    <defs>
     <path d="M 11.71875 12.40625 
L 22.015625 12.40625 
L 22.015625 0 
L 11.71875 0 
z
M 11.71875 51.703125 
L 22.015625 51.703125 
L 22.015625 39.3125 
L 11.71875 39.3125 
z
" id="DejaVuSans-58"/>
     <path d="M 10.984375 1.515625 
L 10.984375 10.5 
Q 14.703125 8.734375 18.5 7.8125 
Q 22.3125 6.890625 25.984375 6.890625 
Q 35.75 6.890625 40.890625 13.453125 
Q 46.046875 20.015625 46.78125 33.40625 
Q 43.953125 29.203125 39.59375 26.953125 
Q 35.25 24.703125 29.984375 24.703125 
Q 19.046875 24.703125 12.671875 31.3125 
Q 6.296875 37.9375 6.296875 49.421875 
Q 6.296875 60.640625 12.9375 67.421875 
Q 19.578125 74.21875 30.609375 74.21875 
Q 43.265625 74.21875 49.921875 64.515625 
Q 56.59375 54.828125 56.59375 36.375 
Q 56.59375 19.140625 48.40625 8.859375 
Q 40.234375 -1.421875 26.421875 -1.421875 
Q 22.703125 -1.421875 18.890625 -0.6875 
Q 15.09375 0.046875 10.984375 1.515625 
z
M 30.609375 32.421875 
Q 37.25 32.421875 41.125 36.953125 
Q 45.015625 41.5 45.015625 49.421875 
Q 45.015625 57.28125 41.125 61.84375 
Q 37.25 66.40625 30.609375 66.40625 
Q 23.96875 66.40625 20.09375 61.84375 
Q 16.21875 57.28125 16.21875 49.421875 
Q 16.21875 41.5 20.09375 36.953125 
Q 23.96875 32.421875 30.609375 32.421875 
z
" id="DejaVuSans-57"/>
     <path d="M 4.890625 31.390625 
L 31.203125 31.390625 
L 31.203125 23.390625 
L 4.890625 23.390625 
z
" id="DejaVuSans-45"/>
    </defs>
    <use xlink:href="#DejaVuSans-83"/>
    <use x="63.476562" xlink:href="#DejaVuSans-82"/>
    <use x="132.958984" xlink:href="#DejaVuSans-83"/>
    <use x="196.435547" xlink:href="#DejaVuSans-70"/>
    <use x="253.955078" xlink:href="#DejaVuSans-49"/>
    <use x="317.578125" xlink:href="#DejaVuSans-32"/>
    <use x="349.365234" xlink:href="#DejaVuSans-99"/>
    <use x="404.345703" xlink:href="#DejaVuSans-104"/>
    <use x="467.724609" xlink:href="#DejaVuSans-114"/>
    <use x="508.837891" xlink:href="#DejaVuSans-49"/>
    <use x="572.460938" xlink:href="#DejaVuSans-55"/>
    <use x="636.083984" xlink:href="#DejaVuSans-58"/>
    <use x="669.775391" xlink:href="#DejaVuSans-53"/>
    <use x="733.398438" xlink:href="#DejaVuSans-55"/>
    <use x="797.021484" xlink:href="#DejaVuSans-57"/>
    <use x="860.644531" xlink:href="#DejaVuSans-57"/>
    <use x="924.267578" xlink:href="#DejaVuSans-57"/>
    <use x="987.890625" xlink:href="#DejaVuSans-48"/>
    <use x="1051.513672" xlink:href="#DejaVuSans-48"/>
    <use x="1115.136719" xlink:href="#DejaVuSans-48"/>
    <use x="1178.759766" xlink:href="#DejaVuSans-45"/>
    <use x="1214.84375" xlink:href="#DejaVuSans-53"/>
    <use x="1278.466797" xlink:href="#DejaVuSans-56"/>
    <use x="1342.089844" xlink:href="#DejaVuSans-48"/>
    <use x="1405.712891" xlink:href="#DejaVuSans-49"/>
    <use x="1469.335938" xlink:href="#DejaVuSans-48"/>
    <use x="1532.958984" xlink:href="#DejaVuSans-48"/>
    <use x="1596.582031" xlink:href="#DejaVuSans-48"/>
    <use x="1660.205078" xlink:href="#DejaVuSans-48"/>
   </g>
  </g>
 </g>
 <defs>
  <clipPath id="p010d2295bf">
   <rect height="5.669291" width="932.304942" x="58.472025" y="55.034344"/>
  </clipPath>
  <clipPath id="p0fe01f031d">
   <rect height="113.385827" width="932.304942" x="58.472025" y="74.876864"/>
  </clipPath>
  <clipPath id="p1a57d2b234">
   <rect height="14.173228" width="932.304942" x="58.472025" y="188.262691"/>
  </clipPath>
  <clipPath id="pe3f2194eed">
   <rect height="113.385827" width="932.304942" x="58.472025" y="202.435919"/>
  </clipPath>
  <clipPath id="p2557fe3a7c">
   <rect height="113.385827" width="932.304942" x="58.472025" y="315.821746"/>
  </clipPath>
  <clipPath id="p8ff641c088">
   <rect height="14.173228" width="932.304942" x="58.472025" y="429.207572"/>
  </clipPath>
  <clipPath id="pf0fbd4ac8f">
   <rect height="113.385827" width="932.304942" x="58.472025" y="443.380801"/>
  </clipPath>
  <clipPath id="pc5ab488f0f">
   <rect height="255.11811" width="932.304942" x="58.472025" y="556.766628"/>
  </clipPath>
  <clipPath id="p61ccaa499d">
   <rect height="22.677165" width="932.304942" x="58.472025" y="840.231195"/>
  </clipPath>
 </defs>
</svg>
