<?xml version="1.0" encoding="utf-8" standalone="no"?>
<!DOCTYPE svg PUBLIC "-//W3C//DTD SVG 1.1//EN"
  "http://www.w3.org/Graphics/SVG/1.1/DTD/svg11.dtd">
<!-- Created with matplotlib (https://matplotlib.org/) -->
<svg height="889.596247pt" version="1.1" viewBox="0 0 1133.858268 889.596247" width="1133.858268pt" xmlns="http://www.w3.org/2000/svg" xmlns:xlink="http://www.w3.org/1999/xlink">
 <metadata>
  <rdf:RDF xmlns:cc="http://creativecommons.org/ns#" xmlns:dc="http://purl.org/dc/elements/1.1/" xmlns:rdf="http://www.w3.org/1999/02/22-rdf-syntax-ns#">
   <cc:Work>
    <dc:type rdf:resource="http://purl.org/dc/dcmitype/StillImage"/>
    <dc:date>2024-09-16T10:48:11.618186</dc:date>
    <dc:format>image/svg+xml</dc:format>
    <dc:creator>
     <cc:Agent>
      <dc:title>Matplotlib v3.3.2, https://matplotlib.org/</dc:title>
     </cc:Agent>
    </dc:creator>
   </cc:Work>
  </rdf:RDF>
 </metadata>
 <defs>
  <style type="text/css">*{stroke-linecap:butt;stroke-linejoin:round;}</style>
 </defs>
 <g id="figure_1">
  <g id="patch_1">
   <path d="M 0 889.596247 
L 1133.858268 889.596247 
L 1133.858268 0 
L 0 0 
z
" style="fill:#ffffff;"/>
  </g>
  <g id="axes_1"/>
  <g id="axes_2"/>
  <g id="axes_3"/>
  <g id="axes_4">
   <g id="line2d_1">
    <path clip-path="url(#p43d6c8b93f)" d="M 378.951849 60.703635 
L 378.951849 55.034344 
" style="fill:none;stroke:#000000;stroke-linecap:square;stroke-width:0.5;"/>
   </g>
   <g id="line2d_2">
    <path clip-path="url(#p43d6c8b93f)" d="M 378.951849 57.86899 
L 670.297143 57.86899 
" style="fill:none;stroke:#000000;stroke-linecap:square;stroke-width:0.5;"/>
   </g>
   <g id="line2d_3">
    <path clip-path="url(#p43d6c8b93f)" d="M 670.297143 60.703635 
L 670.297143 55.034344 
" style="fill:none;stroke:#000000;stroke-linecap:square;stroke-width:0.5;"/>
   </g>
   <g id="text_1">
    <!-- 5 kb -->
    <g transform="translate(689.957206 61.18024)scale(0.12 -0.12)">
     <defs>
      <path d="M 10.796875 72.90625 
L 49.515625 72.90625 
L 49.515625 64.59375 
L 19.828125 64.59375 
L 19.828125 46.734375 
Q 21.96875 47.46875 24.109375 47.828125 
Q 26.265625 48.1875 28.421875 48.1875 
Q 40.625 48.1875 47.75 41.5 
Q 54.890625 34.8125 54.890625 23.390625 
Q 54.890625 11.625 47.5625 5.09375 
Q 40.234375 -1.421875 26.90625 -1.421875 
Q 22.3125 -1.421875 17.546875 -0.640625 
Q 12.796875 0.140625 7.71875 1.703125 
L 7.71875 11.625 
Q 12.109375 9.234375 16.796875 8.0625 
Q 21.484375 6.890625 26.703125 6.890625 
Q 35.15625 6.890625 40.078125 11.328125 
Q 45.015625 15.765625 45.015625 23.390625 
Q 45.015625 31 40.078125 35.4375 
Q 35.15625 39.890625 26.703125 39.890625 
Q 22.75 39.890625 18.8125 39.015625 
Q 14.890625 38.140625 10.796875 36.28125 
z
" id="DejaVuSans-53"/>
      <path id="DejaVuSans-32"/>
      <path d="M 9.078125 75.984375 
L 18.109375 75.984375 
L 18.109375 31.109375 
L 44.921875 54.6875 
L 56.390625 54.6875 
L 27.390625 29.109375 
L 57.625 0 
L 45.90625 0 
L 18.109375 26.703125 
L 18.109375 0 
L 9.078125 0 
z
" id="DejaVuSans-107"/>
      <path d="M 48.6875 27.296875 
Q 48.6875 37.203125 44.609375 42.84375 
Q 40.53125 48.484375 33.40625 48.484375 
Q 26.265625 48.484375 22.1875 42.84375 
Q 18.109375 37.203125 18.109375 27.296875 
Q 18.109375 17.390625 22.1875 11.75 
Q 26.265625 6.109375 33.40625 6.109375 
Q 40.53125 6.109375 44.609375 11.75 
Q 48.6875 17.390625 48.6875 27.296875 
z
M 18.109375 46.390625 
Q 20.953125 51.265625 25.265625 53.625 
Q 29.59375 56 35.59375 56 
Q 45.5625 56 51.78125 48.09375 
Q 58.015625 40.1875 58.015625 27.296875 
Q 58.015625 14.40625 51.78125 6.484375 
Q 45.5625 -1.421875 35.59375 -1.421875 
Q 29.59375 -1.421875 25.265625 0.953125 
Q 20.953125 3.328125 18.109375 8.203125 
L 18.109375 0 
L 9.078125 0 
L 9.078125 75.984375 
L 18.109375 75.984375 
z
" id="DejaVuSans-98"/>
     </defs>
     <use xlink:href="#DejaVuSans-53"/>
     <use x="63.623047" xlink:href="#DejaVuSans-32"/>
     <use x="95.410156" xlink:href="#DejaVuSans-107"/>
     <use x="153.320312" xlink:href="#DejaVuSans-98"/>
    </g>
   </g>
  </g>
  <g id="axes_5"/>
  <g id="axes_6"/>
  <g id="axes_7"/>
  <g id="axes_8"/>
  <g id="axes_9"/>
  <g id="axes_10">
   <g id="patch_2">
    <path clip-path="url(#pb1d36bfc3a)" d="M 203.095829 188.217459 
L 269.464287 85.180554 
L 335.832745 188.217459 
" style="fill:none;stroke:#0000ff;stroke-linejoin:miter;stroke-width:0.7;"/>
   </g>
   <g id="patch_3">
    <path clip-path="url(#pb1d36bfc3a)" d="M 348.010978 188.217459 
L 402.754759 103.227844 
L 457.49854 188.217459 
" style="fill:none;stroke:#0000ff;stroke-linejoin:miter;stroke-width:0.7;"/>
   </g>
   <g id="patch_4">
    <path clip-path="url(#pb1d36bfc3a)" d="M 465.423132 188.217459 
L 528.557658 90.201229 
L 591.692183 188.217459 
" style="fill:none;stroke:#0000ff;stroke-linejoin:miter;stroke-width:0.7;"/>
   </g>
  </g>
  <g id="axes_11"/>
  <g id="axes_12"/>
  <g id="axes_13">
   <g id="line2d_4">
    <path clip-path="url(#pda60678e1e)" d="M 196.045273 195.349305 
L 850.931226 195.349305 
" style="fill:none;stroke:#000000;stroke-linecap:square;stroke-width:0.5;"/>
   </g>
   <g id="patch_5">
    <path clip-path="url(#pda60678e1e)" d="M 196.045273 192.29473 
L 196.045273 198.40388 
L 203.03756 198.40388 
L 203.03756 192.29473 
z
" style="fill:#191970;"/>
   </g>
   <g id="patch_6">
    <path clip-path="url(#pda60678e1e)" d="M 209.447156 192.29473 
L 209.447156 198.40388 
L 219.003282 198.40388 
L 219.003282 192.29473 
z
" style="fill:#191970;"/>
   </g>
   <g id="patch_7">
    <path clip-path="url(#pda60678e1e)" d="M 335.832745 192.29473 
L 335.832745 198.40388 
L 335.949283 198.40388 
L 335.949283 201.458455 
L 347.952709 201.458455 
L 347.952709 189.240155 
L 335.949283 189.240155 
L 335.949283 192.29473 
z
" style="fill:#191970;"/>
   </g>
   <g id="patch_8">
    <path clip-path="url(#pda60678e1e)" d="M 335.832745 192.29473 
L 335.832745 198.40388 
L 335.949283 198.40388 
L 335.949283 201.458455 
L 347.952709 201.458455 
L 347.952709 189.240155 
L 335.949283 189.240155 
L 335.949283 192.29473 
z
" style="fill:#191970;"/>
   </g>
   <g id="patch_9">
    <path clip-path="url(#pda60678e1e)" d="M 457.49854 189.240155 
L 457.49854 201.458455 
L 465.364863 201.458455 
L 465.364863 189.240155 
z
" style="fill:#191970;"/>
   </g>
   <g id="patch_10">
    <path clip-path="url(#pda60678e1e)" d="M 457.49854 189.240155 
L 457.49854 201.458455 
L 465.364863 201.458455 
L 465.364863 189.240155 
z
" style="fill:#191970;"/>
   </g>
   <g id="patch_11">
    <path clip-path="url(#pda60678e1e)" d="M 591.692183 189.240155 
L 591.692183 201.458455 
L 593.964676 201.458455 
L 593.964676 189.240155 
z
" style="fill:#191970;"/>
   </g>
   <g id="patch_12">
    <path clip-path="url(#pda60678e1e)" d="M 591.692183 189.240155 
L 591.692183 201.458455 
L 593.964676 201.458455 
L 593.964676 189.240155 
z
" style="fill:#191970;"/>
   </g>
   <g id="patch_13">
    <path clip-path="url(#pda60678e1e)" d="M 624.08978 189.240155 
L 624.08978 201.458455 
L 629.159188 201.458455 
L 629.159188 189.240155 
z
" style="fill:#191970;"/>
   </g>
   <g id="patch_14">
    <path clip-path="url(#pda60678e1e)" d="M 624.08978 189.240155 
L 624.08978 201.458455 
L 629.159188 201.458455 
L 629.159188 189.240155 
z
" style="fill:#191970;"/>
   </g>
   <g id="patch_15">
    <path clip-path="url(#pda60678e1e)" d="M 638.890121 189.240155 
L 638.890121 201.458455 
L 640.346847 201.458455 
L 640.346847 198.40388 
L 652.641618 198.40388 
L 652.641618 192.29473 
L 640.346847 192.29473 
L 640.346847 189.240155 
z
" style="fill:#191970;"/>
   </g>
   <g id="patch_16">
    <path clip-path="url(#pda60678e1e)" d="M 638.890121 189.240155 
L 638.890121 201.458455 
L 640.346847 201.458455 
L 640.346847 198.40388 
L 850.931226 198.40388 
L 850.931226 192.29473 
L 640.346847 192.29473 
L 640.346847 189.240155 
z
" style="fill:#191970;"/>
   </g>
   <g id="line2d_5">
    <path clip-path="url(#pda60678e1e)" d="M 205.310053 192.29473 
L 207.174663 195.349305 
L 205.310053 198.40388 
" style="fill:none;stroke:#000000;stroke-linecap:square;stroke-width:0.5;"/>
   </g>
   <g id="line2d_6">
    <path clip-path="url(#pda60678e1e)" d="M 231.735071 192.29473 
L 233.599681 195.349305 
L 231.735071 198.40388 
" style="fill:none;stroke:#000000;stroke-linecap:square;stroke-width:0.5;"/>
   </g>
   <g id="line2d_7">
    <path clip-path="url(#pda60678e1e)" d="M 261.56883 192.29473 
L 263.43344 195.349305 
L 261.56883 198.40388 
" style="fill:none;stroke:#000000;stroke-linecap:square;stroke-width:0.5;"/>
   </g>
   <g id="line2d_8">
    <path clip-path="url(#pda60678e1e)" d="M 291.402588 192.29473 
L 293.267198 195.349305 
L 291.402588 198.40388 
" style="fill:none;stroke:#000000;stroke-linecap:square;stroke-width:0.5;"/>
   </g>
   <g id="line2d_9">
    <path clip-path="url(#pda60678e1e)" d="M 321.236346 192.29473 
L 323.100956 195.349305 
L 321.236346 198.40388 
" style="fill:none;stroke:#000000;stroke-linecap:square;stroke-width:0.5;"/>
   </g>
   <g id="line2d_10">
    <path clip-path="url(#pda60678e1e)" d="M 357.042683 192.29473 
L 358.907293 195.349305 
L 357.042683 198.40388 
" style="fill:none;stroke:#000000;stroke-linecap:square;stroke-width:0.5;"/>
   </g>
   <g id="line2d_11">
    <path clip-path="url(#pda60678e1e)" d="M 386.876441 192.29473 
L 388.741051 195.349305 
L 386.876441 198.40388 
" style="fill:none;stroke:#000000;stroke-linecap:square;stroke-width:0.5;"/>
   </g>
   <g id="line2d_12">
    <path clip-path="url(#pda60678e1e)" d="M 416.710199 192.29473 
L 418.574809 195.349305 
L 416.710199 198.40388 
" style="fill:none;stroke:#000000;stroke-linecap:square;stroke-width:0.5;"/>
   </g>
   <g id="line2d_13">
    <path clip-path="url(#pda60678e1e)" d="M 446.543957 192.29473 
L 448.408567 195.349305 
L 446.543957 198.40388 
" style="fill:none;stroke:#000000;stroke-linecap:square;stroke-width:0.5;"/>
   </g>
   <g id="line2d_14">
    <path clip-path="url(#pda60678e1e)" d="M 467.928702 192.29473 
L 469.793312 195.349305 
L 467.928702 198.40388 
" style="fill:none;stroke:#000000;stroke-linecap:square;stroke-width:0.5;"/>
   </g>
   <g id="line2d_15">
    <path clip-path="url(#pda60678e1e)" d="M 497.76246 192.29473 
L 499.62707 195.349305 
L 497.76246 198.40388 
" style="fill:none;stroke:#000000;stroke-linecap:square;stroke-width:0.5;"/>
   </g>
   <g id="line2d_16">
    <path clip-path="url(#pda60678e1e)" d="M 527.596218 192.29473 
L 529.460828 195.349305 
L 527.596218 198.40388 
" style="fill:none;stroke:#000000;stroke-linecap:square;stroke-width:0.5;"/>
   </g>
   <g id="line2d_17">
    <path clip-path="url(#pda60678e1e)" d="M 557.429976 192.29473 
L 559.294586 195.349305 
L 557.429976 198.40388 
" style="fill:none;stroke:#000000;stroke-linecap:square;stroke-width:0.5;"/>
   </g>
   <g id="line2d_18">
    <path clip-path="url(#pda60678e1e)" d="M 587.263734 192.29473 
L 589.128344 195.349305 
L 587.263734 198.40388 
" style="fill:none;stroke:#000000;stroke-linecap:square;stroke-width:0.5;"/>
   </g>
   <g id="line2d_19">
    <path clip-path="url(#pda60678e1e)" d="M 593.178044 192.29473 
L 595.042654 195.349305 
L 593.178044 198.40388 
" style="fill:none;stroke:#000000;stroke-linecap:square;stroke-width:0.5;"/>
   </g>
   <g id="line2d_20">
    <path clip-path="url(#pda60678e1e)" d="M 623.011802 192.29473 
L 624.876412 195.349305 
L 623.011802 198.40388 
" style="fill:none;stroke:#000000;stroke-linecap:square;stroke-width:0.5;"/>
   </g>
   <g id="line2d_21">
    <path clip-path="url(#pda60678e1e)" d="M 633.092349 192.29473 
L 634.956959 195.349305 
L 633.092349 198.40388 
" style="fill:none;stroke:#000000;stroke-linecap:square;stroke-width:0.5;"/>
   </g>
   <g id="text_2">
    <!-- SRSF3 -->
    <g transform="translate(854.660446 198.10868)scale(0.1 -0.1)">
     <defs>
      <path d="M 53.515625 70.515625 
L 53.515625 60.890625 
Q 47.90625 63.578125 42.921875 64.890625 
Q 37.9375 66.21875 33.296875 66.21875 
Q 25.25 66.21875 20.875 63.09375 
Q 16.5 59.96875 16.5 54.203125 
Q 16.5 49.359375 19.40625 46.890625 
Q 22.3125 44.4375 30.421875 42.921875 
L 36.375 41.703125 
Q 47.40625 39.59375 52.65625 34.296875 
Q 57.90625 29 57.90625 20.125 
Q 57.90625 9.515625 50.796875 4.046875 
Q 43.703125 -1.421875 29.984375 -1.421875 
Q 24.8125 -1.421875 18.96875 -0.25 
Q 13.140625 0.921875 6.890625 3.21875 
L 6.890625 13.375 
Q 12.890625 10.015625 18.65625 8.296875 
Q 24.421875 6.59375 29.984375 6.59375 
Q 38.421875 6.59375 43.015625 9.90625 
Q 47.609375 13.234375 47.609375 19.390625 
Q 47.609375 24.75 44.3125 27.78125 
Q 41.015625 30.8125 33.5 32.328125 
L 27.484375 33.5 
Q 16.453125 35.6875 11.515625 40.375 
Q 6.59375 45.0625 6.59375 53.421875 
Q 6.59375 63.09375 13.40625 68.65625 
Q 20.21875 74.21875 32.171875 74.21875 
Q 37.3125 74.21875 42.625 73.28125 
Q 47.953125 72.359375 53.515625 70.515625 
z
" id="DejaVuSans-83"/>
      <path d="M 44.390625 34.1875 
Q 47.5625 33.109375 50.5625 29.59375 
Q 53.5625 26.078125 56.59375 19.921875 
L 66.609375 0 
L 56 0 
L 46.6875 18.703125 
Q 43.0625 26.03125 39.671875 28.421875 
Q 36.28125 30.8125 30.421875 30.8125 
L 19.671875 30.8125 
L 19.671875 0 
L 9.8125 0 
L 9.8125 72.90625 
L 32.078125 72.90625 
Q 44.578125 72.90625 50.734375 67.671875 
Q 56.890625 62.453125 56.890625 51.90625 
Q 56.890625 45.015625 53.6875 40.46875 
Q 50.484375 35.9375 44.390625 34.1875 
z
M 19.671875 64.796875 
L 19.671875 38.921875 
L 32.078125 38.921875 
Q 39.203125 38.921875 42.84375 42.21875 
Q 46.484375 45.515625 46.484375 51.90625 
Q 46.484375 58.296875 42.84375 61.546875 
Q 39.203125 64.796875 32.078125 64.796875 
z
" id="DejaVuSans-82"/>
      <path d="M 9.8125 72.90625 
L 51.703125 72.90625 
L 51.703125 64.59375 
L 19.671875 64.59375 
L 19.671875 43.109375 
L 48.578125 43.109375 
L 48.578125 34.8125 
L 19.671875 34.8125 
L 19.671875 0 
L 9.8125 0 
z
" id="DejaVuSans-70"/>
      <path d="M 40.578125 39.3125 
Q 47.65625 37.796875 51.625 33 
Q 55.609375 28.21875 55.609375 21.1875 
Q 55.609375 10.40625 48.1875 4.484375 
Q 40.765625 -1.421875 27.09375 -1.421875 
Q 22.515625 -1.421875 17.65625 -0.515625 
Q 12.796875 0.390625 7.625 2.203125 
L 7.625 11.71875 
Q 11.71875 9.328125 16.59375 8.109375 
Q 21.484375 6.890625 26.8125 6.890625 
Q 36.078125 6.890625 40.9375 10.546875 
Q 45.796875 14.203125 45.796875 21.1875 
Q 45.796875 27.640625 41.28125 31.265625 
Q 36.765625 34.90625 28.71875 34.90625 
L 20.21875 34.90625 
L 20.21875 43.015625 
L 29.109375 43.015625 
Q 36.375 43.015625 40.234375 45.921875 
Q 44.09375 48.828125 44.09375 54.296875 
Q 44.09375 59.90625 40.109375 62.90625 
Q 36.140625 65.921875 28.71875 65.921875 
Q 24.65625 65.921875 20.015625 65.03125 
Q 15.375 64.15625 9.8125 62.3125 
L 9.8125 71.09375 
Q 15.4375 72.65625 20.34375 73.4375 
Q 25.25 74.21875 29.59375 74.21875 
Q 40.828125 74.21875 47.359375 69.109375 
Q 53.90625 64.015625 53.90625 55.328125 
Q 53.90625 49.265625 50.4375 45.09375 
Q 46.96875 40.921875 40.578125 39.3125 
z
" id="DejaVuSans-51"/>
     </defs>
     <use xlink:href="#DejaVuSans-83"/>
     <use x="63.476562" xlink:href="#DejaVuSans-82"/>
     <use x="132.958984" xlink:href="#DejaVuSans-83"/>
     <use x="196.435547" xlink:href="#DejaVuSans-70"/>
     <use x="253.955078" xlink:href="#DejaVuSans-51"/>
    </g>
   </g>
  </g>
  <g id="axes_14"/>
  <g id="axes_15">
   <g id="text_3">
    <!-- Leafcutter 2 -->
    <g transform="translate(996.534359 199.204441)scale(0.144 -0.144)">
     <defs>
      <path d="M 9.8125 72.90625 
L 19.671875 72.90625 
L 19.671875 8.296875 
L 55.171875 8.296875 
L 55.171875 0 
L 9.8125 0 
z
" id="DejaVuSans-76"/>
      <path d="M 56.203125 29.59375 
L 56.203125 25.203125 
L 14.890625 25.203125 
Q 15.484375 15.921875 20.484375 11.0625 
Q 25.484375 6.203125 34.421875 6.203125 
Q 39.59375 6.203125 44.453125 7.46875 
Q 49.3125 8.734375 54.109375 11.28125 
L 54.109375 2.78125 
Q 49.265625 0.734375 44.1875 -0.34375 
Q 39.109375 -1.421875 33.890625 -1.421875 
Q 20.796875 -1.421875 13.15625 6.1875 
Q 5.515625 13.8125 5.515625 26.8125 
Q 5.515625 40.234375 12.765625 48.109375 
Q 20.015625 56 32.328125 56 
Q 43.359375 56 49.78125 48.890625 
Q 56.203125 41.796875 56.203125 29.59375 
z
M 47.21875 32.234375 
Q 47.125 39.59375 43.09375 43.984375 
Q 39.0625 48.390625 32.421875 48.390625 
Q 24.90625 48.390625 20.390625 44.140625 
Q 15.875 39.890625 15.1875 32.171875 
z
" id="DejaVuSans-101"/>
      <path d="M 34.28125 27.484375 
Q 23.390625 27.484375 19.1875 25 
Q 14.984375 22.515625 14.984375 16.5 
Q 14.984375 11.71875 18.140625 8.90625 
Q 21.296875 6.109375 26.703125 6.109375 
Q 34.1875 6.109375 38.703125 11.40625 
Q 43.21875 16.703125 43.21875 25.484375 
L 43.21875 27.484375 
z
M 52.203125 31.203125 
L 52.203125 0 
L 43.21875 0 
L 43.21875 8.296875 
Q 40.140625 3.328125 35.546875 0.953125 
Q 30.953125 -1.421875 24.3125 -1.421875 
Q 15.921875 -1.421875 10.953125 3.296875 
Q 6 8.015625 6 15.921875 
Q 6 25.140625 12.171875 29.828125 
Q 18.359375 34.515625 30.609375 34.515625 
L 43.21875 34.515625 
L 43.21875 35.40625 
Q 43.21875 41.609375 39.140625 45 
Q 35.0625 48.390625 27.6875 48.390625 
Q 23 48.390625 18.546875 47.265625 
Q 14.109375 46.140625 10.015625 43.890625 
L 10.015625 52.203125 
Q 14.9375 54.109375 19.578125 55.046875 
Q 24.21875 56 28.609375 56 
Q 40.484375 56 46.34375 49.84375 
Q 52.203125 43.703125 52.203125 31.203125 
z
" id="DejaVuSans-97"/>
      <path d="M 37.109375 75.984375 
L 37.109375 68.5 
L 28.515625 68.5 
Q 23.6875 68.5 21.796875 66.546875 
Q 19.921875 64.59375 19.921875 59.515625 
L 19.921875 54.6875 
L 34.71875 54.6875 
L 34.71875 47.703125 
L 19.921875 47.703125 
L 19.921875 0 
L 10.890625 0 
L 10.890625 47.703125 
L 2.296875 47.703125 
L 2.296875 54.6875 
L 10.890625 54.6875 
L 10.890625 58.5 
Q 10.890625 67.625 15.140625 71.796875 
Q 19.390625 75.984375 28.609375 75.984375 
z
" id="DejaVuSans-102"/>
      <path d="M 48.78125 52.59375 
L 48.78125 44.1875 
Q 44.96875 46.296875 41.140625 47.34375 
Q 37.3125 48.390625 33.40625 48.390625 
Q 24.65625 48.390625 19.8125 42.84375 
Q 14.984375 37.3125 14.984375 27.296875 
Q 14.984375 17.28125 19.8125 11.734375 
Q 24.65625 6.203125 33.40625 6.203125 
Q 37.3125 6.203125 41.140625 7.25 
Q 44.96875 8.296875 48.78125 10.40625 
L 48.78125 2.09375 
Q 45.015625 0.34375 40.984375 -0.53125 
Q 36.96875 -1.421875 32.421875 -1.421875 
Q 20.0625 -1.421875 12.78125 6.34375 
Q 5.515625 14.109375 5.515625 27.296875 
Q 5.515625 40.671875 12.859375 48.328125 
Q 20.21875 56 33.015625 56 
Q 37.15625 56 41.109375 55.140625 
Q 45.0625 54.296875 48.78125 52.59375 
z
" id="DejaVuSans-99"/>
      <path d="M 8.5 21.578125 
L 8.5 54.6875 
L 17.484375 54.6875 
L 17.484375 21.921875 
Q 17.484375 14.15625 20.5 10.265625 
Q 23.53125 6.390625 29.59375 6.390625 
Q 36.859375 6.390625 41.078125 11.03125 
Q 45.3125 15.671875 45.3125 23.6875 
L 45.3125 54.6875 
L 54.296875 54.6875 
L 54.296875 0 
L 45.3125 0 
L 45.3125 8.40625 
Q 42.046875 3.421875 37.71875 1 
Q 33.40625 -1.421875 27.6875 -1.421875 
Q 18.265625 -1.421875 13.375 4.4375 
Q 8.5 10.296875 8.5 21.578125 
z
M 31.109375 56 
z
" id="DejaVuSans-117"/>
      <path d="M 18.3125 70.21875 
L 18.3125 54.6875 
L 36.8125 54.6875 
L 36.8125 47.703125 
L 18.3125 47.703125 
L 18.3125 18.015625 
Q 18.3125 11.328125 20.140625 9.421875 
Q 21.96875 7.515625 27.59375 7.515625 
L 36.8125 7.515625 
L 36.8125 0 
L 27.59375 0 
Q 17.1875 0 13.234375 3.875 
Q 9.28125 7.765625 9.28125 18.015625 
L 9.28125 47.703125 
L 2.6875 47.703125 
L 2.6875 54.6875 
L 9.28125 54.6875 
L 9.28125 70.21875 
z
" id="DejaVuSans-116"/>
      <path d="M 41.109375 46.296875 
Q 39.59375 47.171875 37.8125 47.578125 
Q 36.03125 48 33.890625 48 
Q 26.265625 48 22.1875 43.046875 
Q 18.109375 38.09375 18.109375 28.8125 
L 18.109375 0 
L 9.078125 0 
L 9.078125 54.6875 
L 18.109375 54.6875 
L 18.109375 46.1875 
Q 20.953125 51.171875 25.484375 53.578125 
Q 30.03125 56 36.53125 56 
Q 37.453125 56 38.578125 55.875 
Q 39.703125 55.765625 41.0625 55.515625 
z
" id="DejaVuSans-114"/>
      <path d="M 19.1875 8.296875 
L 53.609375 8.296875 
L 53.609375 0 
L 7.328125 0 
L 7.328125 8.296875 
Q 12.9375 14.109375 22.625 23.890625 
Q 32.328125 33.6875 34.8125 36.53125 
Q 39.546875 41.84375 41.421875 45.53125 
Q 43.3125 49.21875 43.3125 52.78125 
Q 43.3125 58.59375 39.234375 62.25 
Q 35.15625 65.921875 28.609375 65.921875 
Q 23.96875 65.921875 18.8125 64.3125 
Q 13.671875 62.703125 7.8125 59.421875 
L 7.8125 69.390625 
Q 13.765625 71.78125 18.9375 73 
Q 24.125 74.21875 28.421875 74.21875 
Q 39.75 74.21875 46.484375 68.546875 
Q 53.21875 62.890625 53.21875 53.421875 
Q 53.21875 48.921875 51.53125 44.890625 
Q 49.859375 40.875 45.40625 35.40625 
Q 44.1875 33.984375 37.640625 27.21875 
Q 31.109375 20.453125 19.1875 8.296875 
z
" id="DejaVuSans-50"/>
     </defs>
     <use xlink:href="#DejaVuSans-76"/>
     <use x="53.962891" xlink:href="#DejaVuSans-101"/>
     <use x="115.486328" xlink:href="#DejaVuSans-97"/>
     <use x="176.765625" xlink:href="#DejaVuSans-102"/>
     <use x="211.970703" xlink:href="#DejaVuSans-99"/>
     <use x="266.951172" xlink:href="#DejaVuSans-117"/>
     <use x="330.330078" xlink:href="#DejaVuSans-116"/>
     <use x="369.539062" xlink:href="#DejaVuSans-116"/>
     <use x="408.748047" xlink:href="#DejaVuSans-101"/>
     <use x="470.271484" xlink:href="#DejaVuSans-114"/>
     <use x="511.384766" xlink:href="#DejaVuSans-32"/>
     <use x="543.171875" xlink:href="#DejaVuSans-50"/>
    </g>
   </g>
  </g>
  <g id="axes_16">
   <g id="patch_17">
    <path clip-path="url(#p95de9b7186)" d="M 348.010978 202.506525 
L 365.112947 243.952119 
L 382.214916 202.506525 
" style="fill:none;stroke:#ff0000;stroke-linejoin:miter;stroke-width:0.7;"/>
   </g>
   <g id="patch_18">
    <path clip-path="url(#p95de9b7186)" d="M 348.010978 202.506525 
L 390.518257 305.520362 
L 433.025535 202.506525 
" style="fill:none;stroke:#ff0000;stroke-linejoin:miter;stroke-width:0.7;"/>
   </g>
   <g id="patch_19">
    <path clip-path="url(#p95de9b7186)" d="M 389.440279 202.506525 
L 423.46941 284.974079 
L 457.49854 202.506525 
" style="fill:none;stroke:#ff0000;stroke-linejoin:miter;stroke-width:0.7;"/>
   </g>
   <g id="patch_20">
    <path clip-path="url(#p95de9b7186)" d="M 438.794172 202.506525 
L 448.146356 225.170981 
L 457.49854 202.506525 
" style="fill:none;stroke:#ff0000;stroke-linejoin:miter;stroke-width:0.7;"/>
   </g>
   <g id="patch_21">
    <path clip-path="url(#p95de9b7186)" d="M 465.423132 202.506525 
L 489.779599 261.532959 
L 514.136065 202.506525 
" style="fill:none;stroke:#ff0000;stroke-linejoin:miter;stroke-width:0.7;"/>
   </g>
   <g id="patch_22">
    <path clip-path="url(#p95de9b7186)" d="M 540.765025 202.506525 
L 566.228604 264.215979 
L 591.692183 202.506525 
" style="fill:none;stroke:#ff0000;stroke-linejoin:miter;stroke-width:0.7;"/>
   </g>
  </g>
  <g id="axes_17"/>
  <g id="axes_18"/>
  <g id="axes_19">
   <g id="patch_23">
    <path clip-path="url(#pbc4eed2c80)" d="M 203.095829 429.162341 
L 269.464287 326.125436 
L 335.832745 429.162341 
" style="fill:none;stroke:#0000ff;stroke-linejoin:miter;stroke-width:0.7;"/>
   </g>
   <g id="patch_24">
    <path clip-path="url(#pbc4eed2c80)" d="M 219.061551 429.162341 
L 277.447148 338.518813 
L 335.832745 429.162341 
" style="fill:none;stroke:#0000ff;stroke-linejoin:miter;stroke-width:0.7;"/>
   </g>
   <g id="patch_25">
    <path clip-path="url(#pbc4eed2c80)" d="M 348.010978 429.162341 
L 402.754759 344.172726 
L 457.49854 429.162341 
" style="fill:none;stroke:#0000ff;stroke-linejoin:miter;stroke-width:0.7;"/>
   </g>
   <g id="patch_26">
    <path clip-path="url(#pbc4eed2c80)" d="M 465.423132 429.162341 
L 528.557658 331.146111 
L 591.692183 429.162341 
" style="fill:none;stroke:#0000ff;stroke-linejoin:miter;stroke-width:0.7;"/>
   </g>
   <g id="patch_27">
    <path clip-path="url(#pbc4eed2c80)" d="M 594.022945 429.162341 
L 609.056362 405.82299 
L 624.08978 429.162341 
" style="fill:none;stroke:#0000ff;stroke-linejoin:miter;stroke-width:0.7;"/>
   </g>
   <g id="patch_28">
    <path clip-path="url(#pbc4eed2c80)" d="M 629.217457 429.162341 
L 634.053789 421.653945 
L 638.890121 429.162341 
" style="fill:none;stroke:#0000ff;stroke-linejoin:miter;stroke-width:0.7;"/>
   </g>
  </g>
  <g id="axes_20"/>
  <g id="axes_21"/>
  <g id="axes_22">
   <g id="line2d_22">
    <path clip-path="url(#p995a2f4f26)" d="M 196.045273 436.294187 
L 850.931226 436.294187 
" style="fill:none;stroke:#000000;stroke-linecap:square;stroke-width:0.5;"/>
   </g>
   <g id="patch_29">
    <path clip-path="url(#p995a2f4f26)" d="M 196.045273 433.239612 
L 196.045273 439.348762 
L 203.03756 439.348762 
L 203.03756 433.239612 
z
" style="fill:#191970;"/>
   </g>
   <g id="patch_30">
    <path clip-path="url(#p995a2f4f26)" d="M 209.447156 433.239612 
L 209.447156 439.348762 
L 219.003282 439.348762 
L 219.003282 433.239612 
z
" style="fill:#191970;"/>
   </g>
   <g id="patch_31">
    <path clip-path="url(#p995a2f4f26)" d="M 335.832745 433.239612 
L 335.832745 439.348762 
L 335.949283 439.348762 
L 335.949283 442.403337 
L 347.952709 442.403337 
L 347.952709 430.185036 
L 335.949283 430.185036 
L 335.949283 433.239612 
z
" style="fill:#191970;"/>
   </g>
   <g id="patch_32">
    <path clip-path="url(#p995a2f4f26)" d="M 335.832745 433.239612 
L 335.832745 439.348762 
L 335.949283 439.348762 
L 335.949283 442.403337 
L 347.952709 442.403337 
L 347.952709 430.185036 
L 335.949283 430.185036 
L 335.949283 433.239612 
z
" style="fill:#191970;"/>
   </g>
   <g id="patch_33">
    <path clip-path="url(#p995a2f4f26)" d="M 457.49854 430.185036 
L 457.49854 442.403337 
L 465.364863 442.403337 
L 465.364863 430.185036 
z
" style="fill:#191970;"/>
   </g>
   <g id="patch_34">
    <path clip-path="url(#p995a2f4f26)" d="M 457.49854 430.185036 
L 457.49854 442.403337 
L 465.364863 442.403337 
L 465.364863 430.185036 
z
" style="fill:#191970;"/>
   </g>
   <g id="patch_35">
    <path clip-path="url(#p995a2f4f26)" d="M 591.692183 430.185036 
L 591.692183 442.403337 
L 593.964676 442.403337 
L 593.964676 430.185036 
z
" style="fill:#191970;"/>
   </g>
   <g id="patch_36">
    <path clip-path="url(#p995a2f4f26)" d="M 591.692183 430.185036 
L 591.692183 442.403337 
L 593.964676 442.403337 
L 593.964676 430.185036 
z
" style="fill:#191970;"/>
   </g>
   <g id="patch_37">
    <path clip-path="url(#p995a2f4f26)" d="M 624.08978 430.185036 
L 624.08978 442.403337 
L 629.159188 442.403337 
L 629.159188 430.185036 
z
" style="fill:#191970;"/>
   </g>
   <g id="patch_38">
    <path clip-path="url(#p995a2f4f26)" d="M 624.08978 430.185036 
L 624.08978 442.403337 
L 629.159188 442.403337 
L 629.159188 430.185036 
z
" style="fill:#191970;"/>
   </g>
   <g id="patch_39">
    <path clip-path="url(#p995a2f4f26)" d="M 638.890121 430.185036 
L 638.890121 442.403337 
L 640.346847 442.403337 
L 640.346847 439.348762 
L 652.641618 439.348762 
L 652.641618 433.239612 
L 640.346847 433.239612 
L 640.346847 430.185036 
z
" style="fill:#191970;"/>
   </g>
   <g id="patch_40">
    <path clip-path="url(#p995a2f4f26)" d="M 638.890121 430.185036 
L 638.890121 442.403337 
L 640.346847 442.403337 
L 640.346847 439.348762 
L 850.931226 439.348762 
L 850.931226 433.239612 
L 640.346847 433.239612 
L 640.346847 430.185036 
z
" style="fill:#191970;"/>
   </g>
   <g id="line2d_23">
    <path clip-path="url(#p995a2f4f26)" d="M 205.310053 433.239612 
L 207.174663 436.294187 
L 205.310053 439.348762 
" style="fill:none;stroke:#000000;stroke-linecap:square;stroke-width:0.5;"/>
   </g>
   <g id="line2d_24">
    <path clip-path="url(#p995a2f4f26)" d="M 231.735071 433.239612 
L 233.599681 436.294187 
L 231.735071 439.348762 
" style="fill:none;stroke:#000000;stroke-linecap:square;stroke-width:0.5;"/>
   </g>
   <g id="line2d_25">
    <path clip-path="url(#p995a2f4f26)" d="M 261.56883 433.239612 
L 263.43344 436.294187 
L 261.56883 439.348762 
" style="fill:none;stroke:#000000;stroke-linecap:square;stroke-width:0.5;"/>
   </g>
   <g id="line2d_26">
    <path clip-path="url(#p995a2f4f26)" d="M 291.402588 433.239612 
L 293.267198 436.294187 
L 291.402588 439.348762 
" style="fill:none;stroke:#000000;stroke-linecap:square;stroke-width:0.5;"/>
   </g>
   <g id="line2d_27">
    <path clip-path="url(#p995a2f4f26)" d="M 321.236346 433.239612 
L 323.100956 436.294187 
L 321.236346 439.348762 
" style="fill:none;stroke:#000000;stroke-linecap:square;stroke-width:0.5;"/>
   </g>
   <g id="line2d_28">
    <path clip-path="url(#p995a2f4f26)" d="M 357.042683 433.239612 
L 358.907293 436.294187 
L 357.042683 439.348762 
" style="fill:none;stroke:#000000;stroke-linecap:square;stroke-width:0.5;"/>
   </g>
   <g id="line2d_29">
    <path clip-path="url(#p995a2f4f26)" d="M 386.876441 433.239612 
L 388.741051 436.294187 
L 386.876441 439.348762 
" style="fill:none;stroke:#000000;stroke-linecap:square;stroke-width:0.5;"/>
   </g>
   <g id="line2d_30">
    <path clip-path="url(#p995a2f4f26)" d="M 416.710199 433.239612 
L 418.574809 436.294187 
L 416.710199 439.348762 
" style="fill:none;stroke:#000000;stroke-linecap:square;stroke-width:0.5;"/>
   </g>
   <g id="line2d_31">
    <path clip-path="url(#p995a2f4f26)" d="M 446.543957 433.239612 
L 448.408567 436.294187 
L 446.543957 439.348762 
" style="fill:none;stroke:#000000;stroke-linecap:square;stroke-width:0.5;"/>
   </g>
   <g id="line2d_32">
    <path clip-path="url(#p995a2f4f26)" d="M 467.928702 433.239612 
L 469.793312 436.294187 
L 467.928702 439.348762 
" style="fill:none;stroke:#000000;stroke-linecap:square;stroke-width:0.5;"/>
   </g>
   <g id="line2d_33">
    <path clip-path="url(#p995a2f4f26)" d="M 497.76246 433.239612 
L 499.62707 436.294187 
L 497.76246 439.348762 
" style="fill:none;stroke:#000000;stroke-linecap:square;stroke-width:0.5;"/>
   </g>
   <g id="line2d_34">
    <path clip-path="url(#p995a2f4f26)" d="M 527.596218 433.239612 
L 529.460828 436.294187 
L 527.596218 439.348762 
" style="fill:none;stroke:#000000;stroke-linecap:square;stroke-width:0.5;"/>
   </g>
   <g id="line2d_35">
    <path clip-path="url(#p995a2f4f26)" d="M 557.429976 433.239612 
L 559.294586 436.294187 
L 557.429976 439.348762 
" style="fill:none;stroke:#000000;stroke-linecap:square;stroke-width:0.5;"/>
   </g>
   <g id="line2d_36">
    <path clip-path="url(#p995a2f4f26)" d="M 587.263734 433.239612 
L 589.128344 436.294187 
L 587.263734 439.348762 
" style="fill:none;stroke:#000000;stroke-linecap:square;stroke-width:0.5;"/>
   </g>
   <g id="line2d_37">
    <path clip-path="url(#p995a2f4f26)" d="M 593.178044 433.239612 
L 595.042654 436.294187 
L 593.178044 439.348762 
" style="fill:none;stroke:#000000;stroke-linecap:square;stroke-width:0.5;"/>
   </g>
   <g id="line2d_38">
    <path clip-path="url(#p995a2f4f26)" d="M 623.011802 433.239612 
L 624.876412 436.294187 
L 623.011802 439.348762 
" style="fill:none;stroke:#000000;stroke-linecap:square;stroke-width:0.5;"/>
   </g>
   <g id="line2d_39">
    <path clip-path="url(#p995a2f4f26)" d="M 633.092349 433.239612 
L 634.956959 436.294187 
L 633.092349 439.348762 
" style="fill:none;stroke:#000000;stroke-linecap:square;stroke-width:0.5;"/>
   </g>
   <g id="text_4">
    <!-- SRSF3 -->
    <g transform="translate(854.660446 439.053562)scale(0.1 -0.1)">
     <use xlink:href="#DejaVuSans-83"/>
     <use x="63.476562" xlink:href="#DejaVuSans-82"/>
     <use x="132.958984" xlink:href="#DejaVuSans-83"/>
     <use x="196.435547" xlink:href="#DejaVuSans-70"/>
     <use x="253.955078" xlink:href="#DejaVuSans-51"/>
    </g>
   </g>
  </g>
  <g id="axes_23"/>
  <g id="axes_24">
   <g id="text_5">
    <!-- GENCODE -->
    <g transform="translate(996.534359 440.149322)scale(0.144 -0.144)">
     <defs>
      <path d="M 59.515625 10.40625 
L 59.515625 29.984375 
L 43.40625 29.984375 
L 43.40625 38.09375 
L 69.28125 38.09375 
L 69.28125 6.78125 
Q 63.578125 2.734375 56.6875 0.65625 
Q 49.8125 -1.421875 42 -1.421875 
Q 24.90625 -1.421875 15.25 8.5625 
Q 5.609375 18.5625 5.609375 36.375 
Q 5.609375 54.25 15.25 64.234375 
Q 24.90625 74.21875 42 74.21875 
Q 49.125 74.21875 55.546875 72.453125 
Q 61.96875 70.703125 67.390625 67.28125 
L 67.390625 56.78125 
Q 61.921875 61.421875 55.765625 63.765625 
Q 49.609375 66.109375 42.828125 66.109375 
Q 29.4375 66.109375 22.71875 58.640625 
Q 16.015625 51.171875 16.015625 36.375 
Q 16.015625 21.625 22.71875 14.15625 
Q 29.4375 6.6875 42.828125 6.6875 
Q 48.046875 6.6875 52.140625 7.59375 
Q 56.25 8.5 59.515625 10.40625 
z
" id="DejaVuSans-71"/>
      <path d="M 9.8125 72.90625 
L 55.90625 72.90625 
L 55.90625 64.59375 
L 19.671875 64.59375 
L 19.671875 43.015625 
L 54.390625 43.015625 
L 54.390625 34.71875 
L 19.671875 34.71875 
L 19.671875 8.296875 
L 56.78125 8.296875 
L 56.78125 0 
L 9.8125 0 
z
" id="DejaVuSans-69"/>
      <path d="M 9.8125 72.90625 
L 23.09375 72.90625 
L 55.421875 11.921875 
L 55.421875 72.90625 
L 64.984375 72.90625 
L 64.984375 0 
L 51.703125 0 
L 19.390625 60.984375 
L 19.390625 0 
L 9.8125 0 
z
" id="DejaVuSans-78"/>
      <path d="M 64.40625 67.28125 
L 64.40625 56.890625 
Q 59.421875 61.53125 53.78125 63.8125 
Q 48.140625 66.109375 41.796875 66.109375 
Q 29.296875 66.109375 22.65625 58.46875 
Q 16.015625 50.828125 16.015625 36.375 
Q 16.015625 21.96875 22.65625 14.328125 
Q 29.296875 6.6875 41.796875 6.6875 
Q 48.140625 6.6875 53.78125 8.984375 
Q 59.421875 11.28125 64.40625 15.921875 
L 64.40625 5.609375 
Q 59.234375 2.09375 53.4375 0.328125 
Q 47.65625 -1.421875 41.21875 -1.421875 
Q 24.65625 -1.421875 15.125 8.703125 
Q 5.609375 18.84375 5.609375 36.375 
Q 5.609375 53.953125 15.125 64.078125 
Q 24.65625 74.21875 41.21875 74.21875 
Q 47.75 74.21875 53.53125 72.484375 
Q 59.328125 70.75 64.40625 67.28125 
z
" id="DejaVuSans-67"/>
      <path d="M 39.40625 66.21875 
Q 28.65625 66.21875 22.328125 58.203125 
Q 16.015625 50.203125 16.015625 36.375 
Q 16.015625 22.609375 22.328125 14.59375 
Q 28.65625 6.59375 39.40625 6.59375 
Q 50.140625 6.59375 56.421875 14.59375 
Q 62.703125 22.609375 62.703125 36.375 
Q 62.703125 50.203125 56.421875 58.203125 
Q 50.140625 66.21875 39.40625 66.21875 
z
M 39.40625 74.21875 
Q 54.734375 74.21875 63.90625 63.9375 
Q 73.09375 53.65625 73.09375 36.375 
Q 73.09375 19.140625 63.90625 8.859375 
Q 54.734375 -1.421875 39.40625 -1.421875 
Q 24.03125 -1.421875 14.8125 8.828125 
Q 5.609375 19.09375 5.609375 36.375 
Q 5.609375 53.65625 14.8125 63.9375 
Q 24.03125 74.21875 39.40625 74.21875 
z
" id="DejaVuSans-79"/>
      <path d="M 19.671875 64.796875 
L 19.671875 8.109375 
L 31.59375 8.109375 
Q 46.6875 8.109375 53.6875 14.9375 
Q 60.6875 21.78125 60.6875 36.53125 
Q 60.6875 51.171875 53.6875 57.984375 
Q 46.6875 64.796875 31.59375 64.796875 
z
M 9.8125 72.90625 
L 30.078125 72.90625 
Q 51.265625 72.90625 61.171875 64.09375 
Q 71.09375 55.28125 71.09375 36.53125 
Q 71.09375 17.671875 61.125 8.828125 
Q 51.171875 0 30.078125 0 
L 9.8125 0 
z
" id="DejaVuSans-68"/>
     </defs>
     <use xlink:href="#DejaVuSans-71"/>
     <use x="77.490234" xlink:href="#DejaVuSans-69"/>
     <use x="140.673828" xlink:href="#DejaVuSans-78"/>
     <use x="215.478516" xlink:href="#DejaVuSans-67"/>
     <use x="285.302734" xlink:href="#DejaVuSans-79"/>
     <use x="364.013672" xlink:href="#DejaVuSans-68"/>
     <use x="441.015625" xlink:href="#DejaVuSans-69"/>
    </g>
   </g>
  </g>
  <g id="axes_25">
   <g id="patch_41">
    <path clip-path="url(#pff4f8d943f)" d="M 348.010978 443.451407 
L 390.518257 546.465244 
L 433.025535 443.451407 
" style="fill:none;stroke:#ff0000;stroke-linejoin:miter;stroke-width:0.7;"/>
   </g>
   <g id="patch_42">
    <path clip-path="url(#pff4f8d943f)" d="M 438.794172 443.451407 
L 448.146356 466.115863 
L 457.49854 443.451407 
" style="fill:none;stroke:#ff0000;stroke-linejoin:miter;stroke-width:0.7;"/>
   </g>
   <g id="patch_43">
    <path clip-path="url(#pff4f8d943f)" d="M 465.423132 443.451407 
L 489.779599 502.477841 
L 514.136065 443.451407 
" style="fill:none;stroke:#ff0000;stroke-linejoin:miter;stroke-width:0.7;"/>
   </g>
   <g id="patch_44">
    <path clip-path="url(#pff4f8d943f)" d="M 540.765025 443.451407 
L 566.228604 505.160861 
L 591.692183 443.451407 
" style="fill:none;stroke:#ff0000;stroke-linejoin:miter;stroke-width:0.7;"/>
   </g>
  </g>
  <g id="axes_26"/>
  <g id="axes_27"/>
  <g id="axes_28">
   <g id="line2d_40">
    <path clip-path="url(#p5cd9b41434)" d="M 195.520851 566.65757 
L 515.592792 566.65757 
" style="fill:none;stroke:#000000;stroke-linecap:square;stroke-width:0.5;"/>
   </g>
   <g id="line2d_41">
    <path clip-path="url(#p5cd9b41434)" d="M 196.045273 605.880274 
L 850.931226 605.880274 
" style="fill:none;stroke:#000000;stroke-linecap:square;stroke-width:0.5;"/>
   </g>
   <g id="line2d_42">
    <path clip-path="url(#p5cd9b41434)" d="M 196.336618 645.102979 
L 360.830171 645.102979 
" style="fill:none;stroke:#000000;stroke-linecap:square;stroke-width:0.5;"/>
   </g>
   <g id="line2d_43">
    <path clip-path="url(#p5cd9b41434)" d="M 196.394887 684.325683 
L 575.959537 684.325683 
" style="fill:none;stroke:#000000;stroke-linecap:square;stroke-width:0.5;"/>
   </g>
   <g id="line2d_44">
    <path clip-path="url(#p5cd9b41434)" d="M 197.735076 723.548387 
L 643.493376 723.548387 
" style="fill:none;stroke:#000000;stroke-linecap:square;stroke-width:0.5;"/>
   </g>
   <g id="line2d_45">
    <path clip-path="url(#p5cd9b41434)" d="M 209.447156 762.771091 
L 652.641618 762.771091 
" style="fill:none;stroke:#000000;stroke-linecap:square;stroke-width:0.5;"/>
   </g>
   <g id="line2d_46">
    <path clip-path="url(#p5cd9b41434)" d="M 491.819016 645.102979 
L 686.379404 645.102979 
" style="fill:none;stroke:#000000;stroke-linecap:square;stroke-width:0.5;"/>
   </g>
   <g id="line2d_47">
    <path clip-path="url(#p5cd9b41434)" d="M 548.048658 801.993795 
L 686.495942 801.993795 
" style="fill:none;stroke:#000000;stroke-linecap:square;stroke-width:0.5;"/>
   </g>
   <g id="patch_45">
    <path clip-path="url(#p5cd9b41434)" d="M 195.520851 562.394233 
L 195.520851 570.920908 
L 203.03756 570.920908 
L 203.03756 562.394233 
z
" style="fill:#0000ff;"/>
   </g>
   <g id="patch_46">
    <path clip-path="url(#p5cd9b41434)" d="M 335.832745 562.394233 
L 335.832745 570.920908 
L 335.949283 570.920908 
L 335.949283 575.184245 
L 347.952709 575.184245 
L 347.952709 558.130896 
L 335.949283 558.130896 
L 335.949283 562.394233 
z
" style="fill:#0000ff;"/>
   </g>
   <g id="patch_47">
    <path clip-path="url(#p5cd9b41434)" d="M 433.025535 558.130896 
L 433.025535 575.184245 
L 437.628791 575.184245 
L 437.628791 570.920908 
L 438.735903 570.920908 
L 438.735903 562.394233 
L 437.628791 562.394233 
L 437.628791 558.130896 
z
" style="fill:#0000ff;"/>
   </g>
   <g id="patch_48">
    <path clip-path="url(#p5cd9b41434)" d="M 457.49854 562.394233 
L 457.49854 570.920908 
L 465.364863 570.920908 
L 465.364863 562.394233 
z
" style="fill:#0000ff;"/>
   </g>
   <g id="patch_49">
    <path clip-path="url(#p5cd9b41434)" d="M 514.136065 562.394233 
L 514.136065 570.920908 
L 515.592792 570.920908 
L 515.592792 562.394233 
z
" style="fill:#0000ff;"/>
   </g>
   <g id="patch_50">
    <path clip-path="url(#p5cd9b41434)" d="M 196.045273 601.616937 
L 196.045273 610.143612 
L 203.03756 610.143612 
L 203.03756 601.616937 
z
" style="fill:#0000ff;"/>
   </g>
   <g id="patch_51">
    <path clip-path="url(#p5cd9b41434)" d="M 335.832745 601.616937 
L 335.832745 610.143612 
L 335.949283 610.143612 
L 335.949283 614.406949 
L 347.952709 614.406949 
L 347.952709 597.3536 
L 335.949283 597.3536 
L 335.949283 601.616937 
z
" style="fill:#0000ff;"/>
   </g>
   <g id="patch_52">
    <path clip-path="url(#p5cd9b41434)" d="M 457.49854 597.3536 
L 457.49854 614.406949 
L 465.364863 614.406949 
L 465.364863 597.3536 
z
" style="fill:#0000ff;"/>
   </g>
   <g id="patch_53">
    <path clip-path="url(#p5cd9b41434)" d="M 591.692183 597.3536 
L 591.692183 614.406949 
L 593.964676 614.406949 
L 593.964676 597.3536 
z
" style="fill:#0000ff;"/>
   </g>
   <g id="patch_54">
    <path clip-path="url(#p5cd9b41434)" d="M 624.08978 597.3536 
L 624.08978 614.406949 
L 629.159188 614.406949 
L 629.159188 597.3536 
z
" style="fill:#0000ff;"/>
   </g>
   <g id="patch_55">
    <path clip-path="url(#p5cd9b41434)" d="M 638.890121 597.3536 
L 638.890121 614.406949 
L 640.346847 614.406949 
L 640.346847 610.143612 
L 850.931226 610.143612 
L 850.931226 601.616937 
L 640.346847 601.616937 
L 640.346847 597.3536 
z
" style="fill:#0000ff;"/>
   </g>
   <g id="patch_56">
    <path clip-path="url(#p5cd9b41434)" d="M 196.336618 640.839641 
L 196.336618 649.366316 
L 203.03756 649.366316 
L 203.03756 640.839641 
z
" style="fill:#0000ff;"/>
   </g>
   <g id="patch_57">
    <path clip-path="url(#p5cd9b41434)" d="M 335.832745 640.839641 
L 335.832745 649.366316 
L 360.830171 649.366316 
L 360.830171 640.839641 
z
" style="fill:#0000ff;"/>
   </g>
   <g id="patch_58">
    <path clip-path="url(#p5cd9b41434)" d="M 196.394887 680.062345 
L 196.394887 688.58902 
L 203.03756 688.58902 
L 203.03756 680.062345 
z
" style="fill:#0000ff;"/>
   </g>
   <g id="patch_59">
    <path clip-path="url(#p5cd9b41434)" d="M 335.832745 680.062345 
L 335.832745 688.58902 
L 347.952709 688.58902 
L 347.952709 680.062345 
z
" style="fill:#0000ff;"/>
   </g>
   <g id="patch_60">
    <path clip-path="url(#p5cd9b41434)" d="M 457.49854 680.062345 
L 457.49854 688.58902 
L 465.364863 688.58902 
L 465.364863 680.062345 
z
" style="fill:#0000ff;"/>
   </g>
   <g id="patch_61">
    <path clip-path="url(#p5cd9b41434)" d="M 514.136065 680.062345 
L 514.136065 688.58902 
L 575.959537 688.58902 
L 575.959537 680.062345 
z
" style="fill:#0000ff;"/>
   </g>
   <g id="patch_62">
    <path clip-path="url(#p5cd9b41434)" d="M 197.735076 719.285049 
L 197.735076 727.811724 
L 203.03756 727.811724 
L 203.03756 719.285049 
z
" style="fill:#0000ff;"/>
   </g>
   <g id="patch_63">
    <path clip-path="url(#p5cd9b41434)" d="M 335.832745 719.285049 
L 335.832745 727.811724 
L 335.949283 727.811724 
L 335.949283 732.075062 
L 347.952709 732.075062 
L 347.952709 715.021712 
L 335.949283 715.021712 
L 335.949283 719.285049 
z
" style="fill:#0000ff;"/>
   </g>
   <g id="patch_64">
    <path clip-path="url(#p5cd9b41434)" d="M 457.49854 715.021712 
L 457.49854 732.075062 
L 465.364863 732.075062 
L 465.364863 715.021712 
z
" style="fill:#0000ff;"/>
   </g>
   <g id="patch_65">
    <path clip-path="url(#p5cd9b41434)" d="M 514.136065 715.021712 
L 514.136065 732.075062 
L 515.942406 732.075062 
L 515.942406 727.811724 
L 540.706756 727.811724 
L 540.706756 719.285049 
L 515.942406 719.285049 
L 515.942406 715.021712 
z
" style="fill:#0000ff;"/>
   </g>
   <g id="patch_66">
    <path clip-path="url(#p5cd9b41434)" d="M 591.692183 719.285049 
L 591.692183 727.811724 
L 593.964676 727.811724 
L 593.964676 719.285049 
z
" style="fill:#0000ff;"/>
   </g>
   <g id="patch_67">
    <path clip-path="url(#p5cd9b41434)" d="M 624.08978 719.285049 
L 624.08978 727.811724 
L 629.159188 727.811724 
L 629.159188 719.285049 
z
" style="fill:#0000ff;"/>
   </g>
   <g id="patch_68">
    <path clip-path="url(#p5cd9b41434)" d="M 638.890121 719.285049 
L 638.890121 727.811724 
L 643.493376 727.811724 
L 643.493376 719.285049 
z
" style="fill:#0000ff;"/>
   </g>
   <g id="patch_69">
    <path clip-path="url(#p5cd9b41434)" d="M 209.447156 758.507754 
L 209.447156 767.034428 
L 219.003282 767.034428 
L 219.003282 758.507754 
z
" style="fill:#0000ff;"/>
   </g>
   <g id="patch_70">
    <path clip-path="url(#p5cd9b41434)" d="M 335.832745 758.507754 
L 335.832745 767.034428 
L 335.949283 767.034428 
L 335.949283 771.297766 
L 347.952709 771.297766 
L 347.952709 754.244416 
L 335.949283 754.244416 
L 335.949283 758.507754 
z
" style="fill:#0000ff;"/>
   </g>
   <g id="patch_71">
    <path clip-path="url(#p5cd9b41434)" d="M 457.49854 754.244416 
L 457.49854 771.297766 
L 465.364863 771.297766 
L 465.364863 754.244416 
z
" style="fill:#0000ff;"/>
   </g>
   <g id="patch_72">
    <path clip-path="url(#p5cd9b41434)" d="M 591.692183 754.244416 
L 591.692183 771.297766 
L 593.964676 771.297766 
L 593.964676 754.244416 
z
" style="fill:#0000ff;"/>
   </g>
   <g id="patch_73">
    <path clip-path="url(#p5cd9b41434)" d="M 624.08978 754.244416 
L 624.08978 771.297766 
L 629.159188 771.297766 
L 629.159188 754.244416 
z
" style="fill:#0000ff;"/>
   </g>
   <g id="patch_74">
    <path clip-path="url(#p5cd9b41434)" d="M 638.890121 754.244416 
L 638.890121 771.297766 
L 640.346847 771.297766 
L 640.346847 767.034428 
L 652.641618 767.034428 
L 652.641618 758.507754 
L 640.346847 758.507754 
L 640.346847 754.244416 
z
" style="fill:#0000ff;"/>
   </g>
   <g id="patch_75">
    <path clip-path="url(#p5cd9b41434)" d="M 491.819016 640.839641 
L 491.819016 649.366316 
L 593.964676 649.366316 
L 593.964676 640.839641 
z
" style="fill:#0000ff;"/>
   </g>
   <g id="patch_76">
    <path clip-path="url(#p5cd9b41434)" d="M 624.08978 640.839641 
L 624.08978 649.366316 
L 629.159188 649.366316 
L 629.159188 640.839641 
z
" style="fill:#0000ff;"/>
   </g>
   <g id="patch_77">
    <path clip-path="url(#p5cd9b41434)" d="M 638.890121 640.839641 
L 638.890121 649.366316 
L 686.379404 649.366316 
L 686.379404 640.839641 
z
" style="fill:#0000ff;"/>
   </g>
   <g id="patch_78">
    <path clip-path="url(#p5cd9b41434)" d="M 548.048658 797.730458 
L 548.048658 806.257132 
L 686.495942 806.257132 
L 686.495942 797.730458 
z
" style="fill:#0000ff;"/>
   </g>
   <g id="line2d_48">
    <path clip-path="url(#p5cd9b41434)" d="M 208.835331 562.394233 
L 210.699941 566.65757 
L 208.835331 570.920908 
" style="fill:none;stroke:#000000;stroke-linecap:square;stroke-width:0.5;"/>
   </g>
   <g id="line2d_49">
    <path clip-path="url(#p5cd9b41434)" d="M 238.669089 562.394233 
L 240.533699 566.65757 
L 238.669089 570.920908 
" style="fill:none;stroke:#000000;stroke-linecap:square;stroke-width:0.5;"/>
   </g>
   <g id="line2d_50">
    <path clip-path="url(#p5cd9b41434)" d="M 268.502848 562.394233 
L 270.367458 566.65757 
L 268.502848 570.920908 
" style="fill:none;stroke:#000000;stroke-linecap:square;stroke-width:0.5;"/>
   </g>
   <g id="line2d_51">
    <path clip-path="url(#p5cd9b41434)" d="M 298.336606 562.394233 
L 300.201216 566.65757 
L 298.336606 570.920908 
" style="fill:none;stroke:#000000;stroke-linecap:square;stroke-width:0.5;"/>
   </g>
   <g id="line2d_52">
    <path clip-path="url(#p5cd9b41434)" d="M 328.170364 562.394233 
L 330.034974 566.65757 
L 328.170364 570.920908 
" style="fill:none;stroke:#000000;stroke-linecap:square;stroke-width:0.5;"/>
   </g>
   <g id="line2d_53">
    <path clip-path="url(#p5cd9b41434)" d="M 359.723059 562.394233 
L 361.587669 566.65757 
L 359.723059 570.920908 
" style="fill:none;stroke:#000000;stroke-linecap:square;stroke-width:0.5;"/>
   </g>
   <g id="line2d_54">
    <path clip-path="url(#p5cd9b41434)" d="M 389.556817 562.394233 
L 391.421427 566.65757 
L 389.556817 570.920908 
" style="fill:none;stroke:#000000;stroke-linecap:square;stroke-width:0.5;"/>
   </g>
   <g id="line2d_55">
    <path clip-path="url(#p5cd9b41434)" d="M 419.390576 562.394233 
L 421.255186 566.65757 
L 419.390576 570.920908 
" style="fill:none;stroke:#000000;stroke-linecap:square;stroke-width:0.5;"/>
   </g>
   <g id="line2d_56">
    <path clip-path="url(#p5cd9b41434)" d="M 447.184917 562.394233 
L 449.049527 566.65757 
L 447.184917 570.920908 
" style="fill:none;stroke:#000000;stroke-linecap:square;stroke-width:0.5;"/>
   </g>
   <g id="line2d_57">
    <path clip-path="url(#p5cd9b41434)" d="M 473.90128 562.394233 
L 475.76589 566.65757 
L 473.90128 570.920908 
" style="fill:none;stroke:#000000;stroke-linecap:square;stroke-width:0.5;"/>
   </g>
   <g id="line2d_58">
    <path clip-path="url(#p5cd9b41434)" d="M 503.735038 562.394233 
L 505.599648 566.65757 
L 503.735038 570.920908 
" style="fill:none;stroke:#000000;stroke-linecap:square;stroke-width:0.5;"/>
   </g>
   <g id="line2d_59">
    <path clip-path="url(#p5cd9b41434)" d="M 208.835331 601.616937 
L 210.699941 605.880274 
L 208.835331 610.143612 
" style="fill:none;stroke:#000000;stroke-linecap:square;stroke-width:0.5;"/>
   </g>
   <g id="line2d_60">
    <path clip-path="url(#p5cd9b41434)" d="M 238.669089 601.616937 
L 240.533699 605.880274 
L 238.669089 610.143612 
" style="fill:none;stroke:#000000;stroke-linecap:square;stroke-width:0.5;"/>
   </g>
   <g id="line2d_61">
    <path clip-path="url(#p5cd9b41434)" d="M 268.502848 601.616937 
L 270.367458 605.880274 
L 268.502848 610.143612 
" style="fill:none;stroke:#000000;stroke-linecap:square;stroke-width:0.5;"/>
   </g>
   <g id="line2d_62">
    <path clip-path="url(#p5cd9b41434)" d="M 298.336606 601.616937 
L 300.201216 605.880274 
L 298.336606 610.143612 
" style="fill:none;stroke:#000000;stroke-linecap:square;stroke-width:0.5;"/>
   </g>
   <g id="line2d_63">
    <path clip-path="url(#p5cd9b41434)" d="M 328.170364 601.616937 
L 330.034974 605.880274 
L 328.170364 610.143612 
" style="fill:none;stroke:#000000;stroke-linecap:square;stroke-width:0.5;"/>
   </g>
   <g id="line2d_64">
    <path clip-path="url(#p5cd9b41434)" d="M 357.042683 601.616937 
L 358.907293 605.880274 
L 357.042683 610.143612 
" style="fill:none;stroke:#000000;stroke-linecap:square;stroke-width:0.5;"/>
   </g>
   <g id="line2d_65">
    <path clip-path="url(#p5cd9b41434)" d="M 386.876441 601.616937 
L 388.741051 605.880274 
L 386.876441 610.143612 
" style="fill:none;stroke:#000000;stroke-linecap:square;stroke-width:0.5;"/>
   </g>
   <g id="line2d_66">
    <path clip-path="url(#p5cd9b41434)" d="M 416.710199 601.616937 
L 418.574809 605.880274 
L 416.710199 610.143612 
" style="fill:none;stroke:#000000;stroke-linecap:square;stroke-width:0.5;"/>
   </g>
   <g id="line2d_67">
    <path clip-path="url(#p5cd9b41434)" d="M 446.543957 601.616937 
L 448.408567 605.880274 
L 446.543957 610.143612 
" style="fill:none;stroke:#000000;stroke-linecap:square;stroke-width:0.5;"/>
   </g>
   <g id="line2d_68">
    <path clip-path="url(#p5cd9b41434)" d="M 467.928702 601.616937 
L 469.793312 605.880274 
L 467.928702 610.143612 
" style="fill:none;stroke:#000000;stroke-linecap:square;stroke-width:0.5;"/>
   </g>
   <g id="line2d_69">
    <path clip-path="url(#p5cd9b41434)" d="M 497.76246 601.616937 
L 499.62707 605.880274 
L 497.76246 610.143612 
" style="fill:none;stroke:#000000;stroke-linecap:square;stroke-width:0.5;"/>
   </g>
   <g id="line2d_70">
    <path clip-path="url(#p5cd9b41434)" d="M 527.596218 601.616937 
L 529.460828 605.880274 
L 527.596218 610.143612 
" style="fill:none;stroke:#000000;stroke-linecap:square;stroke-width:0.5;"/>
   </g>
   <g id="line2d_71">
    <path clip-path="url(#p5cd9b41434)" d="M 557.429976 601.616937 
L 559.294586 605.880274 
L 557.429976 610.143612 
" style="fill:none;stroke:#000000;stroke-linecap:square;stroke-width:0.5;"/>
   </g>
   <g id="line2d_72">
    <path clip-path="url(#p5cd9b41434)" d="M 587.263734 601.616937 
L 589.128344 605.880274 
L 587.263734 610.143612 
" style="fill:none;stroke:#000000;stroke-linecap:square;stroke-width:0.5;"/>
   </g>
   <g id="line2d_73">
    <path clip-path="url(#p5cd9b41434)" d="M 593.178044 601.616937 
L 595.042654 605.880274 
L 593.178044 610.143612 
" style="fill:none;stroke:#000000;stroke-linecap:square;stroke-width:0.5;"/>
   </g>
   <g id="line2d_74">
    <path clip-path="url(#p5cd9b41434)" d="M 623.011802 601.616937 
L 624.876412 605.880274 
L 623.011802 610.143612 
" style="fill:none;stroke:#000000;stroke-linecap:square;stroke-width:0.5;"/>
   </g>
   <g id="line2d_75">
    <path clip-path="url(#p5cd9b41434)" d="M 633.092349 601.616937 
L 634.956959 605.880274 
L 633.092349 610.143612 
" style="fill:none;stroke:#000000;stroke-linecap:square;stroke-width:0.5;"/>
   </g>
   <g id="line2d_76">
    <path clip-path="url(#p5cd9b41434)" d="M 208.835331 640.839641 
L 210.699941 645.102979 
L 208.835331 649.366316 
" style="fill:none;stroke:#000000;stroke-linecap:square;stroke-width:0.5;"/>
   </g>
   <g id="line2d_77">
    <path clip-path="url(#p5cd9b41434)" d="M 238.669089 640.839641 
L 240.533699 645.102979 
L 238.669089 649.366316 
" style="fill:none;stroke:#000000;stroke-linecap:square;stroke-width:0.5;"/>
   </g>
   <g id="line2d_78">
    <path clip-path="url(#p5cd9b41434)" d="M 268.502848 640.839641 
L 270.367458 645.102979 
L 268.502848 649.366316 
" style="fill:none;stroke:#000000;stroke-linecap:square;stroke-width:0.5;"/>
   </g>
   <g id="line2d_79">
    <path clip-path="url(#p5cd9b41434)" d="M 298.336606 640.839641 
L 300.201216 645.102979 
L 298.336606 649.366316 
" style="fill:none;stroke:#000000;stroke-linecap:square;stroke-width:0.5;"/>
   </g>
   <g id="line2d_80">
    <path clip-path="url(#p5cd9b41434)" d="M 328.170364 640.839641 
L 330.034974 645.102979 
L 328.170364 649.366316 
" style="fill:none;stroke:#000000;stroke-linecap:square;stroke-width:0.5;"/>
   </g>
   <g id="line2d_81">
    <path clip-path="url(#p5cd9b41434)" d="M 208.835331 680.062345 
L 210.699941 684.325683 
L 208.835331 688.58902 
" style="fill:none;stroke:#000000;stroke-linecap:square;stroke-width:0.5;"/>
   </g>
   <g id="line2d_82">
    <path clip-path="url(#p5cd9b41434)" d="M 238.669089 680.062345 
L 240.533699 684.325683 
L 238.669089 688.58902 
" style="fill:none;stroke:#000000;stroke-linecap:square;stroke-width:0.5;"/>
   </g>
   <g id="line2d_83">
    <path clip-path="url(#p5cd9b41434)" d="M 268.502848 680.062345 
L 270.367458 684.325683 
L 268.502848 688.58902 
" style="fill:none;stroke:#000000;stroke-linecap:square;stroke-width:0.5;"/>
   </g>
   <g id="line2d_84">
    <path clip-path="url(#p5cd9b41434)" d="M 298.336606 680.062345 
L 300.201216 684.325683 
L 298.336606 688.58902 
" style="fill:none;stroke:#000000;stroke-linecap:square;stroke-width:0.5;"/>
   </g>
   <g id="line2d_85">
    <path clip-path="url(#p5cd9b41434)" d="M 328.170364 680.062345 
L 330.034974 684.325683 
L 328.170364 688.58902 
" style="fill:none;stroke:#000000;stroke-linecap:square;stroke-width:0.5;"/>
   </g>
   <g id="line2d_86">
    <path clip-path="url(#p5cd9b41434)" d="M 357.042683 680.062345 
L 358.907293 684.325683 
L 357.042683 688.58902 
" style="fill:none;stroke:#000000;stroke-linecap:square;stroke-width:0.5;"/>
   </g>
   <g id="line2d_87">
    <path clip-path="url(#p5cd9b41434)" d="M 386.876441 680.062345 
L 388.741051 684.325683 
L 386.876441 688.58902 
" style="fill:none;stroke:#000000;stroke-linecap:square;stroke-width:0.5;"/>
   </g>
   <g id="line2d_88">
    <path clip-path="url(#p5cd9b41434)" d="M 416.710199 680.062345 
L 418.574809 684.325683 
L 416.710199 688.58902 
" style="fill:none;stroke:#000000;stroke-linecap:square;stroke-width:0.5;"/>
   </g>
   <g id="line2d_89">
    <path clip-path="url(#p5cd9b41434)" d="M 446.543957 680.062345 
L 448.408567 684.325683 
L 446.543957 688.58902 
" style="fill:none;stroke:#000000;stroke-linecap:square;stroke-width:0.5;"/>
   </g>
   <g id="line2d_90">
    <path clip-path="url(#p5cd9b41434)" d="M 473.90128 680.062345 
L 475.76589 684.325683 
L 473.90128 688.58902 
" style="fill:none;stroke:#000000;stroke-linecap:square;stroke-width:0.5;"/>
   </g>
   <g id="line2d_91">
    <path clip-path="url(#p5cd9b41434)" d="M 503.735038 680.062345 
L 505.599648 684.325683 
L 503.735038 688.58902 
" style="fill:none;stroke:#000000;stroke-linecap:square;stroke-width:0.5;"/>
   </g>
   <g id="line2d_92">
    <path clip-path="url(#p5cd9b41434)" d="M 208.835331 719.285049 
L 210.699941 723.548387 
L 208.835331 727.811724 
" style="fill:none;stroke:#000000;stroke-linecap:square;stroke-width:0.5;"/>
   </g>
   <g id="line2d_93">
    <path clip-path="url(#p5cd9b41434)" d="M 238.669089 719.285049 
L 240.533699 723.548387 
L 238.669089 727.811724 
" style="fill:none;stroke:#000000;stroke-linecap:square;stroke-width:0.5;"/>
   </g>
   <g id="line2d_94">
    <path clip-path="url(#p5cd9b41434)" d="M 268.502848 719.285049 
L 270.367458 723.548387 
L 268.502848 727.811724 
" style="fill:none;stroke:#000000;stroke-linecap:square;stroke-width:0.5;"/>
   </g>
   <g id="line2d_95">
    <path clip-path="url(#p5cd9b41434)" d="M 298.336606 719.285049 
L 300.201216 723.548387 
L 298.336606 727.811724 
" style="fill:none;stroke:#000000;stroke-linecap:square;stroke-width:0.5;"/>
   </g>
   <g id="line2d_96">
    <path clip-path="url(#p5cd9b41434)" d="M 328.170364 719.285049 
L 330.034974 723.548387 
L 328.170364 727.811724 
" style="fill:none;stroke:#000000;stroke-linecap:square;stroke-width:0.5;"/>
   </g>
   <g id="line2d_97">
    <path clip-path="url(#p5cd9b41434)" d="M 357.042683 719.285049 
L 358.907293 723.548387 
L 357.042683 727.811724 
" style="fill:none;stroke:#000000;stroke-linecap:square;stroke-width:0.5;"/>
   </g>
   <g id="line2d_98">
    <path clip-path="url(#p5cd9b41434)" d="M 386.876441 719.285049 
L 388.741051 723.548387 
L 386.876441 727.811724 
" style="fill:none;stroke:#000000;stroke-linecap:square;stroke-width:0.5;"/>
   </g>
   <g id="line2d_99">
    <path clip-path="url(#p5cd9b41434)" d="M 416.710199 719.285049 
L 418.574809 723.548387 
L 416.710199 727.811724 
" style="fill:none;stroke:#000000;stroke-linecap:square;stroke-width:0.5;"/>
   </g>
   <g id="line2d_100">
    <path clip-path="url(#p5cd9b41434)" d="M 446.543957 719.285049 
L 448.408567 723.548387 
L 446.543957 727.811724 
" style="fill:none;stroke:#000000;stroke-linecap:square;stroke-width:0.5;"/>
   </g>
   <g id="line2d_101">
    <path clip-path="url(#p5cd9b41434)" d="M 473.90128 719.285049 
L 475.76589 723.548387 
L 473.90128 727.811724 
" style="fill:none;stroke:#000000;stroke-linecap:square;stroke-width:0.5;"/>
   </g>
   <g id="line2d_102">
    <path clip-path="url(#p5cd9b41434)" d="M 503.735038 719.285049 
L 505.599648 723.548387 
L 503.735038 727.811724 
" style="fill:none;stroke:#000000;stroke-linecap:square;stroke-width:0.5;"/>
   </g>
   <g id="line2d_103">
    <path clip-path="url(#p5cd9b41434)" d="M 550.350286 719.285049 
L 552.214895 723.548387 
L 550.350286 727.811724 
" style="fill:none;stroke:#000000;stroke-linecap:square;stroke-width:0.5;"/>
   </g>
   <g id="line2d_104">
    <path clip-path="url(#p5cd9b41434)" d="M 580.184044 719.285049 
L 582.048654 723.548387 
L 580.184044 727.811724 
" style="fill:none;stroke:#000000;stroke-linecap:square;stroke-width:0.5;"/>
   </g>
   <g id="line2d_105">
    <path clip-path="url(#p5cd9b41434)" d="M 593.178044 719.285049 
L 595.042654 723.548387 
L 593.178044 727.811724 
" style="fill:none;stroke:#000000;stroke-linecap:square;stroke-width:0.5;"/>
   </g>
   <g id="line2d_106">
    <path clip-path="url(#p5cd9b41434)" d="M 623.011802 719.285049 
L 624.876412 723.548387 
L 623.011802 727.811724 
" style="fill:none;stroke:#000000;stroke-linecap:square;stroke-width:0.5;"/>
   </g>
   <g id="line2d_107">
    <path clip-path="url(#p5cd9b41434)" d="M 633.092349 719.285049 
L 634.956959 723.548387 
L 633.092349 727.811724 
" style="fill:none;stroke:#000000;stroke-linecap:square;stroke-width:0.5;"/>
   </g>
   <g id="line2d_108">
    <path clip-path="url(#p5cd9b41434)" d="M 231.735071 758.507754 
L 233.599681 762.771091 
L 231.735071 767.034428 
" style="fill:none;stroke:#000000;stroke-linecap:square;stroke-width:0.5;"/>
   </g>
   <g id="line2d_109">
    <path clip-path="url(#p5cd9b41434)" d="M 261.56883 758.507754 
L 263.43344 762.771091 
L 261.56883 767.034428 
" style="fill:none;stroke:#000000;stroke-linecap:square;stroke-width:0.5;"/>
   </g>
   <g id="line2d_110">
    <path clip-path="url(#p5cd9b41434)" d="M 291.402588 758.507754 
L 293.267198 762.771091 
L 291.402588 767.034428 
" style="fill:none;stroke:#000000;stroke-linecap:square;stroke-width:0.5;"/>
   </g>
   <g id="line2d_111">
    <path clip-path="url(#p5cd9b41434)" d="M 321.236346 758.507754 
L 323.100956 762.771091 
L 321.236346 767.034428 
" style="fill:none;stroke:#000000;stroke-linecap:square;stroke-width:0.5;"/>
   </g>
   <g id="line2d_112">
    <path clip-path="url(#p5cd9b41434)" d="M 357.042683 758.507754 
L 358.907293 762.771091 
L 357.042683 767.034428 
" style="fill:none;stroke:#000000;stroke-linecap:square;stroke-width:0.5;"/>
   </g>
   <g id="line2d_113">
    <path clip-path="url(#p5cd9b41434)" d="M 386.876441 758.507754 
L 388.741051 762.771091 
L 386.876441 767.034428 
" style="fill:none;stroke:#000000;stroke-linecap:square;stroke-width:0.5;"/>
   </g>
   <g id="line2d_114">
    <path clip-path="url(#p5cd9b41434)" d="M 416.710199 758.507754 
L 418.574809 762.771091 
L 416.710199 767.034428 
" style="fill:none;stroke:#000000;stroke-linecap:square;stroke-width:0.5;"/>
   </g>
   <g id="line2d_115">
    <path clip-path="url(#p5cd9b41434)" d="M 446.543957 758.507754 
L 448.408567 762.771091 
L 446.543957 767.034428 
" style="fill:none;stroke:#000000;stroke-linecap:square;stroke-width:0.5;"/>
   </g>
   <g id="line2d_116">
    <path clip-path="url(#p5cd9b41434)" d="M 467.928702 758.507754 
L 469.793312 762.771091 
L 467.928702 767.034428 
" style="fill:none;stroke:#000000;stroke-linecap:square;stroke-width:0.5;"/>
   </g>
   <g id="line2d_117">
    <path clip-path="url(#p5cd9b41434)" d="M 497.76246 758.507754 
L 499.62707 762.771091 
L 497.76246 767.034428 
" style="fill:none;stroke:#000000;stroke-linecap:square;stroke-width:0.5;"/>
   </g>
   <g id="line2d_118">
    <path clip-path="url(#p5cd9b41434)" d="M 527.596218 758.507754 
L 529.460828 762.771091 
L 527.596218 767.034428 
" style="fill:none;stroke:#000000;stroke-linecap:square;stroke-width:0.5;"/>
   </g>
   <g id="line2d_119">
    <path clip-path="url(#p5cd9b41434)" d="M 557.429976 758.507754 
L 559.294586 762.771091 
L 557.429976 767.034428 
" style="fill:none;stroke:#000000;stroke-linecap:square;stroke-width:0.5;"/>
   </g>
   <g id="line2d_120">
    <path clip-path="url(#p5cd9b41434)" d="M 587.263734 758.507754 
L 589.128344 762.771091 
L 587.263734 767.034428 
" style="fill:none;stroke:#000000;stroke-linecap:square;stroke-width:0.5;"/>
   </g>
   <g id="line2d_121">
    <path clip-path="url(#p5cd9b41434)" d="M 593.178044 758.507754 
L 595.042654 762.771091 
L 593.178044 767.034428 
" style="fill:none;stroke:#000000;stroke-linecap:square;stroke-width:0.5;"/>
   </g>
   <g id="line2d_122">
    <path clip-path="url(#p5cd9b41434)" d="M 623.011802 758.507754 
L 624.876412 762.771091 
L 623.011802 767.034428 
" style="fill:none;stroke:#000000;stroke-linecap:square;stroke-width:0.5;"/>
   </g>
   <g id="line2d_123">
    <path clip-path="url(#p5cd9b41434)" d="M 633.092349 758.507754 
L 634.956959 762.771091 
L 633.092349 767.034428 
" style="fill:none;stroke:#000000;stroke-linecap:square;stroke-width:0.5;"/>
   </g>
   <g id="line2d_124">
    <path clip-path="url(#p5cd9b41434)" d="M 593.178044 640.839641 
L 595.042654 645.102979 
L 593.178044 649.366316 
" style="fill:none;stroke:#000000;stroke-linecap:square;stroke-width:0.5;"/>
   </g>
   <g id="line2d_125">
    <path clip-path="url(#p5cd9b41434)" d="M 623.011802 640.839641 
L 624.876412 645.102979 
L 623.011802 649.366316 
" style="fill:none;stroke:#000000;stroke-linecap:square;stroke-width:0.5;"/>
   </g>
   <g id="line2d_126">
    <path clip-path="url(#p5cd9b41434)" d="M 633.092349 640.839641 
L 634.956959 645.102979 
L 633.092349 649.366316 
" style="fill:none;stroke:#000000;stroke-linecap:square;stroke-width:0.5;"/>
   </g>
   <g id="text_6">
    <!-- nonsense_mediated_decay -->
    <g transform="translate(519.322012 568.75382)scale(0.08 -0.08)">
     <defs>
      <path d="M 54.890625 33.015625 
L 54.890625 0 
L 45.90625 0 
L 45.90625 32.71875 
Q 45.90625 40.484375 42.875 44.328125 
Q 39.84375 48.1875 33.796875 48.1875 
Q 26.515625 48.1875 22.3125 43.546875 
Q 18.109375 38.921875 18.109375 30.90625 
L 18.109375 0 
L 9.078125 0 
L 9.078125 54.6875 
L 18.109375 54.6875 
L 18.109375 46.1875 
Q 21.34375 51.125 25.703125 53.5625 
Q 30.078125 56 35.796875 56 
Q 45.21875 56 50.046875 50.171875 
Q 54.890625 44.34375 54.890625 33.015625 
z
" id="DejaVuSans-110"/>
      <path d="M 30.609375 48.390625 
Q 23.390625 48.390625 19.1875 42.75 
Q 14.984375 37.109375 14.984375 27.296875 
Q 14.984375 17.484375 19.15625 11.84375 
Q 23.34375 6.203125 30.609375 6.203125 
Q 37.796875 6.203125 41.984375 11.859375 
Q 46.1875 17.53125 46.1875 27.296875 
Q 46.1875 37.015625 41.984375 42.703125 
Q 37.796875 48.390625 30.609375 48.390625 
z
M 30.609375 56 
Q 42.328125 56 49.015625 48.375 
Q 55.71875 40.765625 55.71875 27.296875 
Q 55.71875 13.875 49.015625 6.21875 
Q 42.328125 -1.421875 30.609375 -1.421875 
Q 18.84375 -1.421875 12.171875 6.21875 
Q 5.515625 13.875 5.515625 27.296875 
Q 5.515625 40.765625 12.171875 48.375 
Q 18.84375 56 30.609375 56 
z
" id="DejaVuSans-111"/>
      <path d="M 44.28125 53.078125 
L 44.28125 44.578125 
Q 40.484375 46.53125 36.375 47.5 
Q 32.28125 48.484375 27.875 48.484375 
Q 21.1875 48.484375 17.84375 46.4375 
Q 14.5 44.390625 14.5 40.28125 
Q 14.5 37.15625 16.890625 35.375 
Q 19.28125 33.59375 26.515625 31.984375 
L 29.59375 31.296875 
Q 39.15625 29.25 43.1875 25.515625 
Q 47.21875 21.78125 47.21875 15.09375 
Q 47.21875 7.46875 41.1875 3.015625 
Q 35.15625 -1.421875 24.609375 -1.421875 
Q 20.21875 -1.421875 15.453125 -0.5625 
Q 10.6875 0.296875 5.421875 2 
L 5.421875 11.28125 
Q 10.40625 8.6875 15.234375 7.390625 
Q 20.0625 6.109375 24.8125 6.109375 
Q 31.15625 6.109375 34.5625 8.28125 
Q 37.984375 10.453125 37.984375 14.40625 
Q 37.984375 18.0625 35.515625 20.015625 
Q 33.0625 21.96875 24.703125 23.78125 
L 21.578125 24.515625 
Q 13.234375 26.265625 9.515625 29.90625 
Q 5.8125 33.546875 5.8125 39.890625 
Q 5.8125 47.609375 11.28125 51.796875 
Q 16.75 56 26.8125 56 
Q 31.78125 56 36.171875 55.265625 
Q 40.578125 54.546875 44.28125 53.078125 
z
" id="DejaVuSans-115"/>
      <path d="M 50.984375 -16.609375 
L 50.984375 -23.578125 
L -0.984375 -23.578125 
L -0.984375 -16.609375 
z
" id="DejaVuSans-95"/>
      <path d="M 52 44.1875 
Q 55.375 50.25 60.0625 53.125 
Q 64.75 56 71.09375 56 
Q 79.640625 56 84.28125 50.015625 
Q 88.921875 44.046875 88.921875 33.015625 
L 88.921875 0 
L 79.890625 0 
L 79.890625 32.71875 
Q 79.890625 40.578125 77.09375 44.375 
Q 74.3125 48.1875 68.609375 48.1875 
Q 61.625 48.1875 57.5625 43.546875 
Q 53.515625 38.921875 53.515625 30.90625 
L 53.515625 0 
L 44.484375 0 
L 44.484375 32.71875 
Q 44.484375 40.625 41.703125 44.40625 
Q 38.921875 48.1875 33.109375 48.1875 
Q 26.21875 48.1875 22.15625 43.53125 
Q 18.109375 38.875 18.109375 30.90625 
L 18.109375 0 
L 9.078125 0 
L 9.078125 54.6875 
L 18.109375 54.6875 
L 18.109375 46.1875 
Q 21.1875 51.21875 25.484375 53.609375 
Q 29.78125 56 35.6875 56 
Q 41.65625 56 45.828125 52.96875 
Q 50 49.953125 52 44.1875 
z
" id="DejaVuSans-109"/>
      <path d="M 45.40625 46.390625 
L 45.40625 75.984375 
L 54.390625 75.984375 
L 54.390625 0 
L 45.40625 0 
L 45.40625 8.203125 
Q 42.578125 3.328125 38.25 0.953125 
Q 33.9375 -1.421875 27.875 -1.421875 
Q 17.96875 -1.421875 11.734375 6.484375 
Q 5.515625 14.40625 5.515625 27.296875 
Q 5.515625 40.1875 11.734375 48.09375 
Q 17.96875 56 27.875 56 
Q 33.9375 56 38.25 53.625 
Q 42.578125 51.265625 45.40625 46.390625 
z
M 14.796875 27.296875 
Q 14.796875 17.390625 18.875 11.75 
Q 22.953125 6.109375 30.078125 6.109375 
Q 37.203125 6.109375 41.296875 11.75 
Q 45.40625 17.390625 45.40625 27.296875 
Q 45.40625 37.203125 41.296875 42.84375 
Q 37.203125 48.484375 30.078125 48.484375 
Q 22.953125 48.484375 18.875 42.84375 
Q 14.796875 37.203125 14.796875 27.296875 
z
" id="DejaVuSans-100"/>
      <path d="M 9.421875 54.6875 
L 18.40625 54.6875 
L 18.40625 0 
L 9.421875 0 
z
M 9.421875 75.984375 
L 18.40625 75.984375 
L 18.40625 64.59375 
L 9.421875 64.59375 
z
" id="DejaVuSans-105"/>
      <path d="M 32.171875 -5.078125 
Q 28.375 -14.84375 24.75 -17.8125 
Q 21.140625 -20.796875 15.09375 -20.796875 
L 7.90625 -20.796875 
L 7.90625 -13.28125 
L 13.1875 -13.28125 
Q 16.890625 -13.28125 18.9375 -11.515625 
Q 21 -9.765625 23.484375 -3.21875 
L 25.09375 0.875 
L 2.984375 54.6875 
L 12.5 54.6875 
L 29.59375 11.921875 
L 46.6875 54.6875 
L 56.203125 54.6875 
z
" id="DejaVuSans-121"/>
     </defs>
     <use xlink:href="#DejaVuSans-110"/>
     <use x="63.378906" xlink:href="#DejaVuSans-111"/>
     <use x="124.560547" xlink:href="#DejaVuSans-110"/>
     <use x="187.939453" xlink:href="#DejaVuSans-115"/>
     <use x="240.039062" xlink:href="#DejaVuSans-101"/>
     <use x="301.5625" xlink:href="#DejaVuSans-110"/>
     <use x="364.941406" xlink:href="#DejaVuSans-115"/>
     <use x="417.041016" xlink:href="#DejaVuSans-101"/>
     <use x="478.564453" xlink:href="#DejaVuSans-95"/>
     <use x="528.564453" xlink:href="#DejaVuSans-109"/>
     <use x="625.976562" xlink:href="#DejaVuSans-101"/>
     <use x="687.5" xlink:href="#DejaVuSans-100"/>
     <use x="750.976562" xlink:href="#DejaVuSans-105"/>
     <use x="778.759766" xlink:href="#DejaVuSans-97"/>
     <use x="840.039062" xlink:href="#DejaVuSans-116"/>
     <use x="879.248047" xlink:href="#DejaVuSans-101"/>
     <use x="940.771484" xlink:href="#DejaVuSans-100"/>
     <use x="1004.248047" xlink:href="#DejaVuSans-95"/>
     <use x="1054.248047" xlink:href="#DejaVuSans-100"/>
     <use x="1117.724609" xlink:href="#DejaVuSans-101"/>
     <use x="1179.248047" xlink:href="#DejaVuSans-99"/>
     <use x="1234.228516" xlink:href="#DejaVuSans-97"/>
     <use x="1295.507812" xlink:href="#DejaVuSans-121"/>
    </g>
   </g>
   <g id="text_7">
    <!-- protein_coding -->
    <g transform="translate(854.660446 607.976524)scale(0.08 -0.08)">
     <defs>
      <path d="M 18.109375 8.203125 
L 18.109375 -20.796875 
L 9.078125 -20.796875 
L 9.078125 54.6875 
L 18.109375 54.6875 
L 18.109375 46.390625 
Q 20.953125 51.265625 25.265625 53.625 
Q 29.59375 56 35.59375 56 
Q 45.5625 56 51.78125 48.09375 
Q 58.015625 40.1875 58.015625 27.296875 
Q 58.015625 14.40625 51.78125 6.484375 
Q 45.5625 -1.421875 35.59375 -1.421875 
Q 29.59375 -1.421875 25.265625 0.953125 
Q 20.953125 3.328125 18.109375 8.203125 
z
M 48.6875 27.296875 
Q 48.6875 37.203125 44.609375 42.84375 
Q 40.53125 48.484375 33.40625 48.484375 
Q 26.265625 48.484375 22.1875 42.84375 
Q 18.109375 37.203125 18.109375 27.296875 
Q 18.109375 17.390625 22.1875 11.75 
Q 26.265625 6.109375 33.40625 6.109375 
Q 40.53125 6.109375 44.609375 11.75 
Q 48.6875 17.390625 48.6875 27.296875 
z
" id="DejaVuSans-112"/>
      <path d="M 45.40625 27.984375 
Q 45.40625 37.75 41.375 43.109375 
Q 37.359375 48.484375 30.078125 48.484375 
Q 22.859375 48.484375 18.828125 43.109375 
Q 14.796875 37.75 14.796875 27.984375 
Q 14.796875 18.265625 18.828125 12.890625 
Q 22.859375 7.515625 30.078125 7.515625 
Q 37.359375 7.515625 41.375 12.890625 
Q 45.40625 18.265625 45.40625 27.984375 
z
M 54.390625 6.78125 
Q 54.390625 -7.171875 48.1875 -13.984375 
Q 42 -20.796875 29.203125 -20.796875 
Q 24.46875 -20.796875 20.265625 -20.09375 
Q 16.0625 -19.390625 12.109375 -17.921875 
L 12.109375 -9.1875 
Q 16.0625 -11.328125 19.921875 -12.34375 
Q 23.78125 -13.375 27.78125 -13.375 
Q 36.625 -13.375 41.015625 -8.765625 
Q 45.40625 -4.15625 45.40625 5.171875 
L 45.40625 9.625 
Q 42.625 4.78125 38.28125 2.390625 
Q 33.9375 0 27.875 0 
Q 17.828125 0 11.671875 7.65625 
Q 5.515625 15.328125 5.515625 27.984375 
Q 5.515625 40.671875 11.671875 48.328125 
Q 17.828125 56 27.875 56 
Q 33.9375 56 38.28125 53.609375 
Q 42.625 51.21875 45.40625 46.390625 
L 45.40625 54.6875 
L 54.390625 54.6875 
z
" id="DejaVuSans-103"/>
     </defs>
     <use xlink:href="#DejaVuSans-112"/>
     <use x="63.476562" xlink:href="#DejaVuSans-114"/>
     <use x="102.339844" xlink:href="#DejaVuSans-111"/>
     <use x="163.521484" xlink:href="#DejaVuSans-116"/>
     <use x="202.730469" xlink:href="#DejaVuSans-101"/>
     <use x="264.253906" xlink:href="#DejaVuSans-105"/>
     <use x="292.037109" xlink:href="#DejaVuSans-110"/>
     <use x="355.416016" xlink:href="#DejaVuSans-95"/>
     <use x="405.416016" xlink:href="#DejaVuSans-99"/>
     <use x="460.396484" xlink:href="#DejaVuSans-111"/>
     <use x="521.578125" xlink:href="#DejaVuSans-100"/>
     <use x="585.054688" xlink:href="#DejaVuSans-105"/>
     <use x="612.837891" xlink:href="#DejaVuSans-110"/>
     <use x="676.216797" xlink:href="#DejaVuSans-103"/>
    </g>
   </g>
   <g id="text_8">
    <!-- retained_intron -->
    <g transform="translate(364.559391 647.199229)scale(0.08 -0.08)">
     <use xlink:href="#DejaVuSans-114"/>
     <use x="38.863281" xlink:href="#DejaVuSans-101"/>
     <use x="100.386719" xlink:href="#DejaVuSans-116"/>
     <use x="139.595703" xlink:href="#DejaVuSans-97"/>
     <use x="200.875" xlink:href="#DejaVuSans-105"/>
     <use x="228.658203" xlink:href="#DejaVuSans-110"/>
     <use x="292.037109" xlink:href="#DejaVuSans-101"/>
     <use x="353.560547" xlink:href="#DejaVuSans-100"/>
     <use x="417.037109" xlink:href="#DejaVuSans-95"/>
     <use x="467.037109" xlink:href="#DejaVuSans-105"/>
     <use x="494.820312" xlink:href="#DejaVuSans-110"/>
     <use x="558.199219" xlink:href="#DejaVuSans-116"/>
     <use x="597.408203" xlink:href="#DejaVuSans-114"/>
     <use x="636.271484" xlink:href="#DejaVuSans-111"/>
     <use x="697.453125" xlink:href="#DejaVuSans-110"/>
    </g>
   </g>
   <g id="text_9">
    <!-- retained_intron -->
    <g transform="translate(579.688757 686.421933)scale(0.08 -0.08)">
     <use xlink:href="#DejaVuSans-114"/>
     <use x="38.863281" xlink:href="#DejaVuSans-101"/>
     <use x="100.386719" xlink:href="#DejaVuSans-116"/>
     <use x="139.595703" xlink:href="#DejaVuSans-97"/>
     <use x="200.875" xlink:href="#DejaVuSans-105"/>
     <use x="228.658203" xlink:href="#DejaVuSans-110"/>
     <use x="292.037109" xlink:href="#DejaVuSans-101"/>
     <use x="353.560547" xlink:href="#DejaVuSans-100"/>
     <use x="417.037109" xlink:href="#DejaVuSans-95"/>
     <use x="467.037109" xlink:href="#DejaVuSans-105"/>
     <use x="494.820312" xlink:href="#DejaVuSans-110"/>
     <use x="558.199219" xlink:href="#DejaVuSans-116"/>
     <use x="597.408203" xlink:href="#DejaVuSans-114"/>
     <use x="636.271484" xlink:href="#DejaVuSans-111"/>
     <use x="697.453125" xlink:href="#DejaVuSans-110"/>
    </g>
   </g>
   <g id="text_10">
    <!-- nonsense_mediated_decay -->
    <g transform="translate(647.222596 725.644637)scale(0.08 -0.08)">
     <use xlink:href="#DejaVuSans-110"/>
     <use x="63.378906" xlink:href="#DejaVuSans-111"/>
     <use x="124.560547" xlink:href="#DejaVuSans-110"/>
     <use x="187.939453" xlink:href="#DejaVuSans-115"/>
     <use x="240.039062" xlink:href="#DejaVuSans-101"/>
     <use x="301.5625" xlink:href="#DejaVuSans-110"/>
     <use x="364.941406" xlink:href="#DejaVuSans-115"/>
     <use x="417.041016" xlink:href="#DejaVuSans-101"/>
     <use x="478.564453" xlink:href="#DejaVuSans-95"/>
     <use x="528.564453" xlink:href="#DejaVuSans-109"/>
     <use x="625.976562" xlink:href="#DejaVuSans-101"/>
     <use x="687.5" xlink:href="#DejaVuSans-100"/>
     <use x="750.976562" xlink:href="#DejaVuSans-105"/>
     <use x="778.759766" xlink:href="#DejaVuSans-97"/>
     <use x="840.039062" xlink:href="#DejaVuSans-116"/>
     <use x="879.248047" xlink:href="#DejaVuSans-101"/>
     <use x="940.771484" xlink:href="#DejaVuSans-100"/>
     <use x="1004.248047" xlink:href="#DejaVuSans-95"/>
     <use x="1054.248047" xlink:href="#DejaVuSans-100"/>
     <use x="1117.724609" xlink:href="#DejaVuSans-101"/>
     <use x="1179.248047" xlink:href="#DejaVuSans-99"/>
     <use x="1234.228516" xlink:href="#DejaVuSans-97"/>
     <use x="1295.507812" xlink:href="#DejaVuSans-121"/>
    </g>
   </g>
   <g id="text_11">
    <!-- protein_coding -->
    <g transform="translate(656.370838 764.867341)scale(0.08 -0.08)">
     <use xlink:href="#DejaVuSans-112"/>
     <use x="63.476562" xlink:href="#DejaVuSans-114"/>
     <use x="102.339844" xlink:href="#DejaVuSans-111"/>
     <use x="163.521484" xlink:href="#DejaVuSans-116"/>
     <use x="202.730469" xlink:href="#DejaVuSans-101"/>
     <use x="264.253906" xlink:href="#DejaVuSans-105"/>
     <use x="292.037109" xlink:href="#DejaVuSans-110"/>
     <use x="355.416016" xlink:href="#DejaVuSans-95"/>
     <use x="405.416016" xlink:href="#DejaVuSans-99"/>
     <use x="460.396484" xlink:href="#DejaVuSans-111"/>
     <use x="521.578125" xlink:href="#DejaVuSans-100"/>
     <use x="585.054688" xlink:href="#DejaVuSans-105"/>
     <use x="612.837891" xlink:href="#DejaVuSans-110"/>
     <use x="676.216797" xlink:href="#DejaVuSans-103"/>
    </g>
   </g>
   <g id="text_12">
    <!-- retained_intron -->
    <g transform="translate(690.108623 647.199229)scale(0.08 -0.08)">
     <use xlink:href="#DejaVuSans-114"/>
     <use x="38.863281" xlink:href="#DejaVuSans-101"/>
     <use x="100.386719" xlink:href="#DejaVuSans-116"/>
     <use x="139.595703" xlink:href="#DejaVuSans-97"/>
     <use x="200.875" xlink:href="#DejaVuSans-105"/>
     <use x="228.658203" xlink:href="#DejaVuSans-110"/>
     <use x="292.037109" xlink:href="#DejaVuSans-101"/>
     <use x="353.560547" xlink:href="#DejaVuSans-100"/>
     <use x="417.037109" xlink:href="#DejaVuSans-95"/>
     <use x="467.037109" xlink:href="#DejaVuSans-105"/>
     <use x="494.820312" xlink:href="#DejaVuSans-110"/>
     <use x="558.199219" xlink:href="#DejaVuSans-116"/>
     <use x="597.408203" xlink:href="#DejaVuSans-114"/>
     <use x="636.271484" xlink:href="#DejaVuSans-111"/>
     <use x="697.453125" xlink:href="#DejaVuSans-110"/>
    </g>
   </g>
   <g id="text_13">
    <!-- retained_intron -->
    <g transform="translate(690.225161 804.090045)scale(0.08 -0.08)">
     <use xlink:href="#DejaVuSans-114"/>
     <use x="38.863281" xlink:href="#DejaVuSans-101"/>
     <use x="100.386719" xlink:href="#DejaVuSans-116"/>
     <use x="139.595703" xlink:href="#DejaVuSans-97"/>
     <use x="200.875" xlink:href="#DejaVuSans-105"/>
     <use x="228.658203" xlink:href="#DejaVuSans-110"/>
     <use x="292.037109" xlink:href="#DejaVuSans-101"/>
     <use x="353.560547" xlink:href="#DejaVuSans-100"/>
     <use x="417.037109" xlink:href="#DejaVuSans-95"/>
     <use x="467.037109" xlink:href="#DejaVuSans-105"/>
     <use x="494.820312" xlink:href="#DejaVuSans-110"/>
     <use x="558.199219" xlink:href="#DejaVuSans-116"/>
     <use x="597.408203" xlink:href="#DejaVuSans-114"/>
     <use x="636.271484" xlink:href="#DejaVuSans-111"/>
     <use x="697.453125" xlink:href="#DejaVuSans-110"/>
    </g>
   </g>
  </g>
  <g id="axes_29"/>
  <g id="axes_30"/>
  <g id="axes_31"/>
  <g id="axes_32"/>
  <g id="axes_33"/>
  <g id="axes_34">
   <g id="mpl_toolkits.axisartist.axis_artist_1">
    <defs>
     <path d="M 0 0 
L 0 -3.5 
" id="mc86bca4f1c" style="stroke:#000000;stroke-width:0.8;"/>
    </defs>
    <g>
     <use style="fill:none;stroke:#000000;stroke-width:0.8;" x="58.472025" xlink:href="#mc86bca4f1c" y="842.498911"/>
    </g>
    <g>
     <use style="fill:none;stroke:#000000;stroke-width:0.8;" x="175.010143" xlink:href="#mc86bca4f1c" y="842.498911"/>
    </g>
    <g>
     <use style="fill:none;stroke:#000000;stroke-width:0.8;" x="291.54826" xlink:href="#mc86bca4f1c" y="842.498911"/>
    </g>
    <g>
     <use style="fill:none;stroke:#000000;stroke-width:0.8;" x="408.086378" xlink:href="#mc86bca4f1c" y="842.498911"/>
    </g>
    <g>
     <use style="fill:none;stroke:#000000;stroke-width:0.8;" x="524.624496" xlink:href="#mc86bca4f1c" y="842.498911"/>
    </g>
    <g>
     <use style="fill:none;stroke:#000000;stroke-width:0.8;" x="641.162614" xlink:href="#mc86bca4f1c" y="842.498911"/>
    </g>
    <g>
     <use style="fill:none;stroke:#000000;stroke-width:0.8;" x="757.700732" xlink:href="#mc86bca4f1c" y="842.498911"/>
    </g>
    <g>
     <use style="fill:none;stroke:#000000;stroke-width:0.8;" x="874.238849" xlink:href="#mc86bca4f1c" y="842.498911"/>
    </g>
    <g>
     <use style="fill:none;stroke:#000000;stroke-width:0.8;" x="990.776967" xlink:href="#mc86bca4f1c" y="842.498911"/>
    </g>
    <g id="text_14">
     <!-- 36,592 -->
     <g transform="translate(44.475775 852.077661)scale(0.08 -0.08)">
      <defs>
       <path d="M 33.015625 40.375 
Q 26.375 40.375 22.484375 35.828125 
Q 18.609375 31.296875 18.609375 23.390625 
Q 18.609375 15.53125 22.484375 10.953125 
Q 26.375 6.390625 33.015625 6.390625 
Q 39.65625 6.390625 43.53125 10.953125 
Q 47.40625 15.53125 47.40625 23.390625 
Q 47.40625 31.296875 43.53125 35.828125 
Q 39.65625 40.375 33.015625 40.375 
z
M 52.59375 71.296875 
L 52.59375 62.3125 
Q 48.875 64.0625 45.09375 64.984375 
Q 41.3125 65.921875 37.59375 65.921875 
Q 27.828125 65.921875 22.671875 59.328125 
Q 17.53125 52.734375 16.796875 39.40625 
Q 19.671875 43.65625 24.015625 45.921875 
Q 28.375 48.1875 33.59375 48.1875 
Q 44.578125 48.1875 50.953125 41.515625 
Q 57.328125 34.859375 57.328125 23.390625 
Q 57.328125 12.15625 50.6875 5.359375 
Q 44.046875 -1.421875 33.015625 -1.421875 
Q 20.359375 -1.421875 13.671875 8.265625 
Q 6.984375 17.96875 6.984375 36.375 
Q 6.984375 53.65625 15.1875 63.9375 
Q 23.390625 74.21875 37.203125 74.21875 
Q 40.921875 74.21875 44.703125 73.484375 
Q 48.484375 72.75 52.59375 71.296875 
z
" id="DejaVuSans-54"/>
       <path d="M 11.71875 12.40625 
L 22.015625 12.40625 
L 22.015625 4 
L 14.015625 -11.625 
L 7.71875 -11.625 
L 11.71875 4 
z
" id="DejaVuSans-44"/>
       <path d="M 10.984375 1.515625 
L 10.984375 10.5 
Q 14.703125 8.734375 18.5 7.8125 
Q 22.3125 6.890625 25.984375 6.890625 
Q 35.75 6.890625 40.890625 13.453125 
Q 46.046875 20.015625 46.78125 33.40625 
Q 43.953125 29.203125 39.59375 26.953125 
Q 35.25 24.703125 29.984375 24.703125 
Q 19.046875 24.703125 12.671875 31.3125 
Q 6.296875 37.9375 6.296875 49.421875 
Q 6.296875 60.640625 12.9375 67.421875 
Q 19.578125 74.21875 30.609375 74.21875 
Q 43.265625 74.21875 49.921875 64.515625 
Q 56.59375 54.828125 56.59375 36.375 
Q 56.59375 19.140625 48.40625 8.859375 
Q 40.234375 -1.421875 26.421875 -1.421875 
Q 22.703125 -1.421875 18.890625 -0.6875 
Q 15.09375 0.046875 10.984375 1.515625 
z
M 30.609375 32.421875 
Q 37.25 32.421875 41.125 36.953125 
Q 45.015625 41.5 45.015625 49.421875 
Q 45.015625 57.28125 41.125 61.84375 
Q 37.25 66.40625 30.609375 66.40625 
Q 23.96875 66.40625 20.09375 61.84375 
Q 16.21875 57.28125 16.21875 49.421875 
Q 16.21875 41.5 20.09375 36.953125 
Q 23.96875 32.421875 30.609375 32.421875 
z
" id="DejaVuSans-57"/>
      </defs>
      <use xlink:href="#DejaVuSans-51"/>
      <use x="63.623047" xlink:href="#DejaVuSans-54"/>
      <use x="127.246094" xlink:href="#DejaVuSans-44"/>
      <use x="159.033203" xlink:href="#DejaVuSans-53"/>
      <use x="222.65625" xlink:href="#DejaVuSans-57"/>
      <use x="286.279297" xlink:href="#DejaVuSans-50"/>
     </g>
    </g>
    <g id="text_15">
     <!-- 36,594 -->
     <g transform="translate(161.013893 852.077661)scale(0.08 -0.08)">
      <defs>
       <path d="M 37.796875 64.3125 
L 12.890625 25.390625 
L 37.796875 25.390625 
z
M 35.203125 72.90625 
L 47.609375 72.90625 
L 47.609375 25.390625 
L 58.015625 25.390625 
L 58.015625 17.1875 
L 47.609375 17.1875 
L 47.609375 0 
L 37.796875 0 
L 37.796875 17.1875 
L 4.890625 17.1875 
L 4.890625 26.703125 
z
" id="DejaVuSans-52"/>
      </defs>
      <use xlink:href="#DejaVuSans-51"/>
      <use x="63.623047" xlink:href="#DejaVuSans-54"/>
      <use x="127.246094" xlink:href="#DejaVuSans-44"/>
      <use x="159.033203" xlink:href="#DejaVuSans-53"/>
      <use x="222.65625" xlink:href="#DejaVuSans-57"/>
      <use x="286.279297" xlink:href="#DejaVuSans-52"/>
     </g>
    </g>
    <g id="text_16">
     <!-- 36,596 -->
     <g transform="translate(277.55201 852.077661)scale(0.08 -0.08)">
      <use xlink:href="#DejaVuSans-51"/>
      <use x="63.623047" xlink:href="#DejaVuSans-54"/>
      <use x="127.246094" xlink:href="#DejaVuSans-44"/>
      <use x="159.033203" xlink:href="#DejaVuSans-53"/>
      <use x="222.65625" xlink:href="#DejaVuSans-57"/>
      <use x="286.279297" xlink:href="#DejaVuSans-54"/>
     </g>
    </g>
    <g id="text_17">
     <!-- 36,598 -->
     <g transform="translate(394.090128 852.077661)scale(0.08 -0.08)">
      <defs>
       <path d="M 31.78125 34.625 
Q 24.75 34.625 20.71875 30.859375 
Q 16.703125 27.09375 16.703125 20.515625 
Q 16.703125 13.921875 20.71875 10.15625 
Q 24.75 6.390625 31.78125 6.390625 
Q 38.8125 6.390625 42.859375 10.171875 
Q 46.921875 13.96875 46.921875 20.515625 
Q 46.921875 27.09375 42.890625 30.859375 
Q 38.875 34.625 31.78125 34.625 
z
M 21.921875 38.8125 
Q 15.578125 40.375 12.03125 44.71875 
Q 8.5 49.078125 8.5 55.328125 
Q 8.5 64.0625 14.71875 69.140625 
Q 20.953125 74.21875 31.78125 74.21875 
Q 42.671875 74.21875 48.875 69.140625 
Q 55.078125 64.0625 55.078125 55.328125 
Q 55.078125 49.078125 51.53125 44.71875 
Q 48 40.375 41.703125 38.8125 
Q 48.828125 37.15625 52.796875 32.3125 
Q 56.78125 27.484375 56.78125 20.515625 
Q 56.78125 9.90625 50.3125 4.234375 
Q 43.84375 -1.421875 31.78125 -1.421875 
Q 19.734375 -1.421875 13.25 4.234375 
Q 6.78125 9.90625 6.78125 20.515625 
Q 6.78125 27.484375 10.78125 32.3125 
Q 14.796875 37.15625 21.921875 38.8125 
z
M 18.3125 54.390625 
Q 18.3125 48.734375 21.84375 45.5625 
Q 25.390625 42.390625 31.78125 42.390625 
Q 38.140625 42.390625 41.71875 45.5625 
Q 45.3125 48.734375 45.3125 54.390625 
Q 45.3125 60.0625 41.71875 63.234375 
Q 38.140625 66.40625 31.78125 66.40625 
Q 25.390625 66.40625 21.84375 63.234375 
Q 18.3125 60.0625 18.3125 54.390625 
z
" id="DejaVuSans-56"/>
      </defs>
      <use xlink:href="#DejaVuSans-51"/>
      <use x="63.623047" xlink:href="#DejaVuSans-54"/>
      <use x="127.246094" xlink:href="#DejaVuSans-44"/>
      <use x="159.033203" xlink:href="#DejaVuSans-53"/>
      <use x="222.65625" xlink:href="#DejaVuSans-57"/>
      <use x="286.279297" xlink:href="#DejaVuSans-56"/>
     </g>
    </g>
    <g id="text_18">
     <!-- 36,600 -->
     <g transform="translate(510.628246 852.077661)scale(0.08 -0.08)">
      <defs>
       <path d="M 31.78125 66.40625 
Q 24.171875 66.40625 20.328125 58.90625 
Q 16.5 51.421875 16.5 36.375 
Q 16.5 21.390625 20.328125 13.890625 
Q 24.171875 6.390625 31.78125 6.390625 
Q 39.453125 6.390625 43.28125 13.890625 
Q 47.125 21.390625 47.125 36.375 
Q 47.125 51.421875 43.28125 58.90625 
Q 39.453125 66.40625 31.78125 66.40625 
z
M 31.78125 74.21875 
Q 44.046875 74.21875 50.515625 64.515625 
Q 56.984375 54.828125 56.984375 36.375 
Q 56.984375 17.96875 50.515625 8.265625 
Q 44.046875 -1.421875 31.78125 -1.421875 
Q 19.53125 -1.421875 13.0625 8.265625 
Q 6.59375 17.96875 6.59375 36.375 
Q 6.59375 54.828125 13.0625 64.515625 
Q 19.53125 74.21875 31.78125 74.21875 
z
" id="DejaVuSans-48"/>
      </defs>
      <use xlink:href="#DejaVuSans-51"/>
      <use x="63.623047" xlink:href="#DejaVuSans-54"/>
      <use x="127.246094" xlink:href="#DejaVuSans-44"/>
      <use x="159.033203" xlink:href="#DejaVuSans-54"/>
      <use x="222.65625" xlink:href="#DejaVuSans-48"/>
      <use x="286.279297" xlink:href="#DejaVuSans-48"/>
     </g>
    </g>
    <g id="text_19">
     <!-- 36,602 -->
     <g transform="translate(627.166364 852.077661)scale(0.08 -0.08)">
      <use xlink:href="#DejaVuSans-51"/>
      <use x="63.623047" xlink:href="#DejaVuSans-54"/>
      <use x="127.246094" xlink:href="#DejaVuSans-44"/>
      <use x="159.033203" xlink:href="#DejaVuSans-54"/>
      <use x="222.65625" xlink:href="#DejaVuSans-48"/>
      <use x="286.279297" xlink:href="#DejaVuSans-50"/>
     </g>
    </g>
    <g id="text_20">
     <!-- 36,604 -->
     <g transform="translate(743.704482 852.077661)scale(0.08 -0.08)">
      <use xlink:href="#DejaVuSans-51"/>
      <use x="63.623047" xlink:href="#DejaVuSans-54"/>
      <use x="127.246094" xlink:href="#DejaVuSans-44"/>
      <use x="159.033203" xlink:href="#DejaVuSans-54"/>
      <use x="222.65625" xlink:href="#DejaVuSans-48"/>
      <use x="286.279297" xlink:href="#DejaVuSans-52"/>
     </g>
    </g>
    <g id="text_21">
     <!-- 36,606 Kb -->
     <g transform="translate(853.808849 852.077661)scale(0.08 -0.08)">
      <defs>
       <path d="M 9.8125 72.90625 
L 19.671875 72.90625 
L 19.671875 42.09375 
L 52.390625 72.90625 
L 65.09375 72.90625 
L 28.90625 38.921875 
L 67.671875 0 
L 54.6875 0 
L 19.671875 35.109375 
L 19.671875 0 
L 9.8125 0 
z
" id="DejaVuSans-75"/>
      </defs>
      <use xlink:href="#DejaVuSans-51"/>
      <use x="63.623047" xlink:href="#DejaVuSans-54"/>
      <use x="127.246094" xlink:href="#DejaVuSans-44"/>
      <use x="159.033203" xlink:href="#DejaVuSans-54"/>
      <use x="222.65625" xlink:href="#DejaVuSans-48"/>
      <use x="286.279297" xlink:href="#DejaVuSans-54"/>
      <use x="349.902344" xlink:href="#DejaVuSans-32"/>
      <use x="381.689453" xlink:href="#DejaVuSans-75"/>
      <use x="447.265625" xlink:href="#DejaVuSans-98"/>
     </g>
    </g>
    <g id="text_22">
     <!-- 36,608 -->
     <g transform="translate(976.780717 852.077661)scale(0.08 -0.08)">
      <use xlink:href="#DejaVuSans-51"/>
      <use x="63.623047" xlink:href="#DejaVuSans-54"/>
      <use x="127.246094" xlink:href="#DejaVuSans-44"/>
      <use x="159.033203" xlink:href="#DejaVuSans-54"/>
      <use x="222.65625" xlink:href="#DejaVuSans-48"/>
      <use x="286.279297" xlink:href="#DejaVuSans-56"/>
     </g>
    </g>
    <g id="patch_79">
     <path clip-path="url(#p82457c8f5f)" d="M 58.472025 842.498911 
L 990.776967 842.498911 
" style="fill:none;stroke:#000000;stroke-linecap:square;stroke-width:0.8;"/>
    </g>
   </g>
   <g id="text_23">
    <!-- chr6 -->
    <g transform="translate(515.700746 861.017838)scale(0.08 -0.08)">
     <defs>
      <path d="M 54.890625 33.015625 
L 54.890625 0 
L 45.90625 0 
L 45.90625 32.71875 
Q 45.90625 40.484375 42.875 44.328125 
Q 39.84375 48.1875 33.796875 48.1875 
Q 26.515625 48.1875 22.3125 43.546875 
Q 18.109375 38.921875 18.109375 30.90625 
L 18.109375 0 
L 9.078125 0 
L 9.078125 75.984375 
L 18.109375 75.984375 
L 18.109375 46.1875 
Q 21.34375 51.125 25.703125 53.5625 
Q 30.078125 56 35.796875 56 
Q 45.21875 56 50.046875 50.171875 
Q 54.890625 44.34375 54.890625 33.015625 
z
" id="DejaVuSans-104"/>
     </defs>
     <use xlink:href="#DejaVuSans-99"/>
     <use x="54.980469" xlink:href="#DejaVuSans-104"/>
     <use x="118.359375" xlink:href="#DejaVuSans-114"/>
     <use x="159.472656" xlink:href="#DejaVuSans-54"/>
    </g>
   </g>
  </g>
  <g id="axes_35"/>
  <g id="axes_36"/>
  <g id="text_24">
   <!-- SRSF3 chr6:36592000-36608000 -->
   <g transform="translate(447.392259 28.733675)scale(0.144 -0.144)">
    <defs>
     <path d="M 11.71875 12.40625 
L 22.015625 12.40625 
L 22.015625 0 
L 11.71875 0 
z
M 11.71875 51.703125 
L 22.015625 51.703125 
L 22.015625 39.3125 
L 11.71875 39.3125 
z
" id="DejaVuSans-58"/>
     <path d="M 4.890625 31.390625 
L 31.203125 31.390625 
L 31.203125 23.390625 
L 4.890625 23.390625 
z
" id="DejaVuSans-45"/>
    </defs>
    <use xlink:href="#DejaVuSans-83"/>
    <use x="63.476562" xlink:href="#DejaVuSans-82"/>
    <use x="132.958984" xlink:href="#DejaVuSans-83"/>
    <use x="196.435547" xlink:href="#DejaVuSans-70"/>
    <use x="253.955078" xlink:href="#DejaVuSans-51"/>
    <use x="317.578125" xlink:href="#DejaVuSans-32"/>
    <use x="349.365234" xlink:href="#DejaVuSans-99"/>
    <use x="404.345703" xlink:href="#DejaVuSans-104"/>
    <use x="467.724609" xlink:href="#DejaVuSans-114"/>
    <use x="508.837891" xlink:href="#DejaVuSans-54"/>
    <use x="572.460938" xlink:href="#DejaVuSans-58"/>
    <use x="606.152344" xlink:href="#DejaVuSans-51"/>
    <use x="669.775391" xlink:href="#DejaVuSans-54"/>
    <use x="733.398438" xlink:href="#DejaVuSans-53"/>
    <use x="797.021484" xlink:href="#DejaVuSans-57"/>
    <use x="860.644531" xlink:href="#DejaVuSans-50"/>
    <use x="924.267578" xlink:href="#DejaVuSans-48"/>
    <use x="987.890625" xlink:href="#DejaVuSans-48"/>
    <use x="1051.513672" xlink:href="#DejaVuSans-48"/>
    <use x="1115.136719" xlink:href="#DejaVuSans-45"/>
    <use x="1151.220703" xlink:href="#DejaVuSans-51"/>
    <use x="1214.84375" xlink:href="#DejaVuSans-54"/>
    <use x="1278.466797" xlink:href="#DejaVuSans-54"/>
    <use x="1342.089844" xlink:href="#DejaVuSans-48"/>
    <use x="1405.712891" xlink:href="#DejaVuSans-56"/>
    <use x="1469.335938" xlink:href="#DejaVuSans-48"/>
    <use x="1532.958984" xlink:href="#DejaVuSans-48"/>
    <use x="1596.582031" xlink:href="#DejaVuSans-48"/>
   </g>
  </g>
 </g>
 <defs>
  <clipPath id="p43d6c8b93f">
   <rect height="5.669291" width="932.304942" x="58.472025" y="55.034344"/>
  </clipPath>
  <clipPath id="pb1d36bfc3a">
   <rect height="113.385827" width="932.304942" x="58.472025" y="74.876864"/>
  </clipPath>
  <clipPath id="pda60678e1e">
   <rect height="14.173228" width="932.304942" x="58.472025" y="188.262691"/>
  </clipPath>
  <clipPath id="p95de9b7186">
   <rect height="113.385827" width="932.304942" x="58.472025" y="202.435919"/>
  </clipPath>
  <clipPath id="pbc4eed2c80">
   <rect height="113.385827" width="932.304942" x="58.472025" y="315.821746"/>
  </clipPath>
  <clipPath id="p995a2f4f26">
   <rect height="14.173228" width="932.304942" x="58.472025" y="429.207572"/>
  </clipPath>
  <clipPath id="pff4f8d943f">
   <rect height="113.385827" width="932.304942" x="58.472025" y="443.380801"/>
  </clipPath>
  <clipPath id="p5cd9b41434">
   <rect height="255.11811" width="932.304942" x="58.472025" y="556.766628"/>
  </clipPath>
  <clipPath id="p82457c8f5f">
   <rect height="22.677165" width="932.304942" x="58.472025" y="840.231195"/>
  </clipPath>
 </defs>
</svg>
